<?xml version="1.0" encoding="UTF-8" standalone="no"?>
<!DOCTYPE svg PUBLIC "-//W3C//DTD SVG 1.1//EN" "http://www.w3.org/Graphics/SVG/1.1/DTD/svg11.dtd">
<svg width="100%" height="100%" viewBox="0 0 784 430" version="1.1" xmlns="http://www.w3.org/2000/svg" xmlns:xlink="http://www.w3.org/1999/xlink" xml:space="preserve" xmlns:serif="http://www.serif.com/" style="fill-rule:evenodd;clip-rule:evenodd;stroke-linecap:round;stroke-linejoin:round;stroke-miterlimit:10;">
    <g id="g10" transform="matrix(1.33333,0,0,-1.33333,0,429.333)">
        <g id="g12">
        </g>
        <g id="g16">
            <g id="g18">
                <path id="path24" d="M26.52,246.22L27.75,243L28.98,246.68L30.21,233.86L31.44,246.91L32.67,238.43L33.9,245.88L35.13,244.92L36.36,226.22L37.58,248.22L38.81,232.16L40.04,248.25L41.27,236.59L42.5,247L43.73,229.69L44.96,254.34L46.19,234.14L47.42,226.18L48.65,242.32L49.88,256.21L51.11,250.25L52.34,223.72L53.57,232.3L54.8,250.57L56.03,229.08L57.26,239.58L58.49,257.66L59.72,256.22L60.94,243.05L62.17,250.61L63.4,259.16L64.63,247.56L65.86,249.01L67.09,238.71L68.32,243.31L69.55,235.76L70.78,236.01L72.01,238.16L73.24,249.76L74.47,229.88L75.7,245.06L76.93,249.08L78.16,245.9L79.39,240.37L80.62,245.6L81.85,224.29L83.08,248.79L84.31,237.62L85.53,259.74L86.76,245.91L87.99,227.41L89.22,240.68L90.45,217.67L91.68,251.44L92.91,234.71L94.14,236.65L95.37,227.92L96.6,242.57L97.83,249.53L99.06,244.05L100.29,262.14L101.52,236.58L102.75,245.79L103.98,246.01L105.21,233.79L106.44,248.71L107.67,239.47L108.89,223.57L110.12,223.17L111.35,244.56L112.58,240.9L113.81,243.94L115.04,253.81L116.27,240.05L117.5,259.52L118.73,243.43L119.96,243.96L121.19,245.51L122.42,247.86L123.65,265.55L124.88,254.95L126.11,251.3L127.34,252.77L128.57,230.13L129.8,257.35L131.03,232.08L132.25,245.69L133.48,247.48L134.71,246.96L135.94,245.57L137.17,216.15L138.4,235.17L139.63,237.86L140.86,238.69L142.09,240.2L143.32,233.73L144.55,244.38L145.78,237.27L147.01,231.97L148.24,230.52L149.47,248.75L150.7,245.2L151.93,239.71L153.16,223.72L154.39,241.16L155.61,230.78L156.84,231.39L158.07,244.39L159.3,234.05L160.53,240.34L161.76,229.79L162.99,231.93L164.22,224.89L165.45,218.76L166.68,230.23L167.91,243.26L169.14,240.42L170.37,228.68L171.6,226.53L172.83,235.92L174.06,254.55L175.29,230.49L176.52,238.72L177.75,245.69L178.98,233.7L180.2,212.84L181.43,224.97L182.66,254.62L183.89,229.85L185.12,251.8L186.35,237.54L187.58,231.12L188.81,234.72L190.04,229.4L191.27,231.87L192.5,240.35L193.73,224.67L194.96,244.14L196.19,228.74L197.42,226.71L198.65,246.72L199.88,234.05L201.11,230.52L202.34,235.89L203.56,229.59L204.79,221.95L206.02,237.69L207.25,241.88L208.48,249.85L209.71,242.49L210.94,236.89L212.17,239.35L213.4,234.65L214.63,230.76L215.86,233.06L217.09,229.41L218.32,241.39L219.55,234.59L220.78,231.2L222.01,233.98L223.24,239.13L224.47,243.03L225.7,234.47L226.92,249.85L228.15,243.37L229.38,248.54L230.61,235.12L231.84,226.73L233.07,221.92L234.3,235.33L235.53,238.25L236.76,228.88L237.99,241.22L239.22,246.06L240.45,227.76L241.68,235.6L242.91,235.88L244.14,232.47L245.37,244.22L246.6,234.46L247.83,231.93L249.06,236.26L250.28,241.37L251.51,244.92L252.74,241.59L253.97,232.07L255.2,223.27L256.43,253.25L257.66,241.89L258.89,245.19L260.12,235.61L261.35,227.74L262.58,237.22L263.81,233.37L265.04,239.23L266.27,240.57L267.5,225.44L268.73,236.93L269.96,237.28L271.19,242.28" style="fill:none;fill-rule:nonzero;stroke:rgb(56,108,176);stroke-width:1.65px;"/>
                <path id="path26" d="M26.52,231.48L27.75,211.03L28.98,227.79L30.21,207.83L31.44,233.76L32.67,215.01L33.9,227.3L35.13,222.79L36.36,209.2L37.58,227.41L38.81,205L40.04,226.5L41.27,217.68L42.5,222.82L43.73,195.68L44.96,226.79L46.19,214.48L47.42,200.03L48.65,219.9L49.88,229.96L51.11,221.34L52.34,197.77L53.57,211.02L54.8,224.82L56.03,206.43L57.26,213.11L58.49,226.8L59.72,220.56L60.94,212.65L62.17,222.34L63.4,223.82L64.63,226.88L65.86,231.65L67.09,212.47L68.32,224.62L69.55,195.31L70.78,206.17L72.01,206.89L73.24,228.03L74.47,208.71L75.7,212.05L76.93,225.1L78.16,220.38L79.39,212.69L80.62,219.46L81.85,196.78L83.08,216.26L84.31,210.43L85.53,243.87L86.76,211.48L87.99,195.08L89.22,218.94L90.45,189.63L91.68,221.61L92.91,213.71L94.14,216.83L95.37,202.12L96.6,219.11L97.83,222.21L99.06,217.62L100.29,235.58L101.52,217.82L102.75,224.79L103.98,215.23L105.21,204.95L106.44,226.69L107.67,205.29L108.89,205.26L110.12,196.96L111.35,213.17L112.58,215.6L113.81,207.07L115.04,224.24L116.27,203.43L117.5,234.39L118.73,206.64L119.96,207.25L121.19,216.56L122.42,217.23L123.65,227.24L124.88,221.34L126.11,222.55L127.34,223.69L128.57,196.17L129.8,226.22L131.03,212.72L132.25,222.37L133.48,217.03L134.71,219.46L135.94,213.03L137.17,191.14L138.4,199.89L139.63,213.24L140.86,205.82L142.09,212.21L143.32,214.42L144.55,215.9L145.78,214.43L147.01,197.69L148.24,206.52L149.47,219.98L150.7,224.34L151.93,216.76L153.16,190.77L154.39,218.9L155.61,206.22L156.84,210.16L158.07,221.39L159.3,212.84L160.53,216.64L161.76,197.58L162.99,212.07L164.22,197.53L165.45,185.68L166.68,203.23L167.91,220.94L169.14,209.1L170.37,206.2L171.6,206.54L172.83,212.18L174.06,228.55L175.29,206.38L176.52,212.35L177.75,223L178.98,196.76L180.2,182.88L181.43,193.79L182.66,226.17L183.89,197.25L185.12,223.37L186.35,212.67L187.58,205.32L188.81,211.28L190.04,205.6L191.27,209.76L192.5,212.22L193.73,192.8L194.96,221.68L196.19,204.08L197.42,210.56L198.65,218.48L199.88,200.37L201.11,206.2L202.34,217.99L203.56,199.98L204.79,197L206.02,213.63L207.25,222.16L208.48,224.33L209.71,216.83L210.94,205.71L212.17,214.38L213.4,198.02L214.63,201.47L215.86,211.64L217.09,201L218.32,214.49L219.55,203.42L220.78,206.79L222.01,207.28L223.24,213.23L224.47,215.02L225.7,202.66L226.92,226.69L228.15,219.81L229.38,226.57L230.61,208.64L231.84,190.46L233.07,194.55L234.3,212.92L235.53,213.69L236.76,200.19L237.99,214.92L239.22,225.25L240.45,201.63L241.68,207.09L242.91,207.07L244.14,208.36L245.37,216.2L246.6,205.4L247.83,208.74L249.06,211.84L250.28,214.33L251.51,219.36L252.74,213.93L253.97,205.18L255.2,195.09L256.43,227.04L257.66,217.89L258.89,223.7L260.12,206.05L261.35,193.22L262.58,211.47L263.81,204.44L265.04,212.13L266.27,214.24L267.5,194.75L268.73,205.38L269.96,207.2L271.19,208.7" style="fill:none;fill-rule:nonzero;stroke:rgb(253,180,98);stroke-width:1.12px;"/>
                <path id="path28" d="M26.52,266.6L27.75,263.91L28.98,265.98L30.21,259.82L31.44,262.21L32.67,255.83L33.9,268.57L35.13,264.6L36.36,248.93L37.58,267.13L38.81,259.54L40.04,271.98L41.27,268.46L42.5,265.88L43.73,260.71L44.96,275L46.19,257.33L47.42,250.62L48.65,261.02L49.88,289.92L51.11,271.73L52.34,253.66L53.57,261.06L54.8,280.34L56.03,250.59L57.26,264.94L58.49,281.78L59.72,293.29L60.94,275.32L62.17,276.21L63.4,289.22L64.63,276.96L65.86,269.66L67.09,266.28L68.32,264.61L69.55,262.81L70.78,265.45L72.01,264.12L73.24,272.29L74.47,255.57L75.7,273.18L76.93,270.26L78.16,267.54L79.39,273.22L80.62,266.5L81.85,254.66L83.08,272.17L84.31,256.8L85.53,276.19L86.76,271.76L87.99,254.46L89.22,267.69L90.45,247.67L91.68,278.79L92.91,268.32L94.14,258.52L95.37,256.37L96.6,264.02L97.83,285.57L99.06,267.05L100.29,291.85L101.52,263.58L102.75,265.88L103.98,270.24L105.21,264.02L106.44,267.91L107.67,262.61L108.89,244.85L110.12,246.92L111.35,278.35L112.58,258.34L113.81,274.53L115.04,280.49L116.27,279.73L117.5,298.32L118.73,281.04L119.96,277.76L121.19,274.37L122.42,277L123.65,304.55L124.88,297.06L126.11,291.2L127.34,286.87L128.57,264.12L129.8,282.77L131.03,253.02L132.25,264.92L133.48,268.55L134.71,269.79L135.94,268.19L137.17,248.33L138.4,261.44L139.63,256.91L140.86,264.99L142.09,271.86L143.32,265.01L144.55,263.03L145.78,257.22L147.01,257.79L148.24,260.37L149.47,267.33L150.7,269.66L151.93,265.85L153.16,262.97L154.39,265.22L155.61,252.72L156.84,252.08L158.07,274.04L159.3,253.56L160.53,262.88L161.76,257.45L162.99,244.02L164.22,248.16L165.45,243.79L166.68,263.57L167.91,263.76L169.14,261.57L170.37,259.37L171.6,249.22L172.83,262.8L174.06,286.81L175.29,247.84L176.52,258.18L177.75,273.53L178.98,263.28L180.2,244.94L181.43,246.48L182.66,290.13L183.89,262.55L185.12,274.61L186.35,268.25L187.58,257.29L188.81,261.49L190.04,256.95L191.27,253.02L192.5,270.08L193.73,249.17L194.96,265.12L196.19,251.99L197.42,247.76L198.65,269.24L199.88,268.15L201.11,261.55L202.34,257.57L203.56,254.64L204.79,244.44L206.02,267.72L207.25,263.57L208.48,272.62L209.71,265.35L210.94,267.97L212.17,266.35L213.4,265.75L214.63,260.65L215.86,258.3L217.09,256.84L218.32,269.19L219.55,264.27L220.78,260.14L222.01,258.18L223.24,261.08L224.47,274.08L225.7,264.96L226.92,273.36L228.15,265.41L229.38,273.42L230.61,263.35L231.84,263.53L233.07,250.54L234.3,258.14L235.53,264.28L236.76,258.26L237.99,265.1L239.22,276.63L240.45,254.05L241.68,261.19L242.91,264.18L244.14,262.04L245.37,273.36L246.6,259.17L247.83,254.36L249.06,263.59L250.28,268.23L251.51,265.54L252.74,273.46L253.97,258.12L255.2,248.26L256.43,282.44L257.66,264.43L258.89,270.44L260.12,260.53L261.35,256.36L262.58,266.03L263.81,261.36L265.04,265.2L266.27,264.95L267.5,249.27L268.73,264.3L269.96,263.7L271.19,270.7" style="fill:none;fill-rule:nonzero;stroke:rgb(253,180,98);stroke-width:1.12px;"/>
            </g>
        </g>
        <g id="g30">
            <g id="g32">
                <clipPath id="_clip1">
                    <rect x="0" y="161.28" width="294.12" height="161.28"/>
                </clipPath>
                <g clip-path="url(#_clip1)">
                    <g id="text40" transform="matrix(1,0,0,-1,137.74,142.16)">
                        <text x="0px" y="0px" style="font-family:'Helvetica';font-size:10px;">Time</text>
                    </g>
                </g>
            </g>
        </g>
        <g id="g42">
            <path id="path44" d="M25.29,178.01L271.19,178.01" style="fill:none;fill-rule:nonzero;stroke:black;stroke-width:0.75px;"/>
            <path id="path46" d="M25.29,178.01L25.29,173.23" style="fill:none;fill-rule:nonzero;stroke:black;stroke-width:0.75px;"/>
            <path id="path48" d="M86.76,178.01L86.76,173.23" style="fill:none;fill-rule:nonzero;stroke:black;stroke-width:0.75px;"/>
            <path id="path50" d="M148.24,178.01L148.24,173.23" style="fill:none;fill-rule:nonzero;stroke:black;stroke-width:0.75px;"/>
            <path id="path52" d="M209.71,178.01L209.71,173.23" style="fill:none;fill-rule:nonzero;stroke:black;stroke-width:0.75px;"/>
            <path id="path54" d="M271.19,178.01L271.19,173.23" style="fill:none;fill-rule:nonzero;stroke:black;stroke-width:0.75px;"/>
            <g id="text58" transform="matrix(1,0,0,-1,22.51,163.07)">
                <text x="0px" y="0px" style="font-family:'Helvetica';font-size:10px;">0</text>
            </g>
            <g id="text62" transform="matrix(1,0,0,-1,81.2,163.07)">
                <text x="0px" y="0px" style="font-family:'Helvetica';font-size:10px;">50</text>
            </g>
            <g id="text66" transform="matrix(1,0,0,-1,139.9,163.07)">
                <text x="0px" y="0px" style="font-family:'Helvetica';font-size:10px;">100</text>
            </g>
            <g id="text70" transform="matrix(1,0,0,-1,201.37,163.07)">
                <text x="0px" y="0px" style="font-family:'Helvetica';font-size:10px;">150</text>
            </g>
            <g id="text74" transform="matrix(1,0,0,-1,262.85,163.07)">
                <text x="0px" y="0px" style="font-family:'Helvetica';font-size:10px;">200</text>
            </g>
            <path id="path76" d="M16.73,198.85L16.73,286.16" style="fill:none;fill-rule:nonzero;stroke:black;stroke-width:0.75px;"/>
            <path id="path78" d="M16.73,198.85L11.95,198.85" style="fill:none;fill-rule:nonzero;stroke:black;stroke-width:0.75px;"/>
            <path id="path80" d="M16.73,227.95L11.95,227.95" style="fill:none;fill-rule:nonzero;stroke:black;stroke-width:0.75px;"/>
            <path id="path82" d="M16.73,257.06L11.95,257.06" style="fill:none;fill-rule:nonzero;stroke:black;stroke-width:0.75px;"/>
            <path id="path84" d="M16.73,286.16L11.95,286.16" style="fill:none;fill-rule:nonzero;stroke:black;stroke-width:0.75px;"/>
            <g id="text88" transform="matrix(0,1,1,0,8.96,188.98)">
                <text x="0px" y="0px" style="font-family:'Helvetica';font-size:10px;">−0.1</text>
            </g>
            <g id="text92" transform="matrix(0,1,1,0,8.96,221)">
                <text x="0px" y="0px" style="font-family:'Helvetica';font-size:10px;">0.0</text>
            </g>
            <g id="text96" transform="matrix(0,1,1,0,8.96,250.11)">
                <text x="0px" y="0px" style="font-family:'Helvetica';font-size:10px;">0.1</text>
            </g>
            <g id="text100" transform="matrix(0,1,1,0,8.96,279.21)">
                <text x="0px" y="0px" style="font-family:'Helvetica';font-size:10px;">0.2</text>
            </g>
            <rect id="path102" x="16.73" y="178.01" width="264.24" height="131.4" style="fill:none;fill-rule:nonzero;stroke:black;stroke-width:0.75px;"/>
        </g>
        <g id="g104">
            <g id="g106">
                <clipPath id="_clip2">
                    <rect x="16.73" y="178.01" width="264.24" height="131.4"/>
                </clipPath>
                <g clip-path="url(#_clip2)">
                    <path id="path112" d="M16.73,228.84L280.97,228.84" style="fill:none;fill-rule:nonzero;stroke:rgb(127,201,127);stroke-width:0.75px;"/>
                    <path id="path114" d="M209.71,178.01L209.71,309.41" style="fill:none;fill-rule:nonzero;stroke:black;stroke-width:0.41px;stroke-dasharray:1.24,2.06;"/>
                    <rect id="path116" x="16.73" y="178.01" width="101.86" height="39.88" style="fill:white;fill-rule:nonzero;stroke:black;stroke-width:0.75px;"/>
                    <path id="path118" d="M23.97,209.91L38.44,209.91" style="fill:none;fill-rule:nonzero;stroke:rgb(56,108,176);stroke-width:0.75px;"/>
                    <path id="path120" d="M23.97,201.94L38.44,201.94" style="fill:none;fill-rule:nonzero;stroke:rgb(253,180,98);stroke-width:0.75px;"/>
                    <path id="path122" d="M23.97,193.96L38.44,193.96" style="fill:none;fill-rule:nonzero;stroke:rgb(127,201,127);stroke-width:0.75px;"/>
                    <path id="path124" d="M23.97,185.99L38.44,185.99" style="fill:none;fill-rule:nonzero;stroke:black;stroke-width:0.75px;stroke-dasharray:2.25,3.75;"/>
                    <g id="text128" transform="matrix(1,0,0,-1,45.68,207.76)">
                        <text x="0px" y="0px" style="font-family:'Helvetica';font-size:6px;">Posterior Mean</text>
                    </g>
                    <g id="text132" transform="matrix(1,0,0,-1,45.68,199.79)">
                        <text x="0px" y="0px" style="font-family:'Helvetica';font-size:6px;">16 &amp; 84% quantiles</text>
                    </g>
                    <g id="text136" transform="matrix(1,0,0,-1,45.68,191.81)">
                        <text x="0px" y="0px" style="font-family:'Helvetica';font-size:6px;">OLS</text>
                    </g>
                    <g id="text140" transform="matrix(1,0,0,-1,45.68,183.83)">
                        <text x="0px" y="0px" style="font-family:'Helvetica';font-size:6px;">OOS start</text>
                    </g>
                </g>
            </g>
        </g>
        <g id="g142">
            <g id="g144">
                <path id="path150" d="M320.64,286.9L321.87,285.53L323.1,285.88L324.33,272.86L325.56,287.43L326.79,276.67L328.02,289.31L329.25,282.43L330.48,284.94L331.7,282.02L332.93,275.34L334.16,278.15L335.39,275.34L336.62,284.22L337.85,271.15L339.08,284.29L340.31,284.65L341.54,284.51L342.77,282.8L344,284.46L345.23,283.96L346.46,271.64L347.69,278.44L348.92,283.6L350.15,270.4L351.38,274.36L352.61,283.81L353.84,288.27L355.06,282.16L356.29,286.04L357.52,279.4L358.75,286.42L359.98,285.16L361.21,277.99L362.44,279.27L363.67,275.73L364.9,286.21L366.13,283.82L367.36,285.77L368.59,280.76L369.82,277.45L371.05,285.57L372.28,285.25L373.51,279.74L374.74,280.43L375.97,278.67L377.2,289.95L378.43,283.26L379.65,279.36L380.88,278.6L382.11,282.93L383.34,281.63L384.57,281.24L385.8,267.83L387.03,280.49L388.26,273.07L389.49,262.07L390.72,273.74L391.95,279.18L393.18,268.03L394.41,275.9L395.64,268.04L396.87,276.89L398.1,262.71L399.33,256.26L400.56,263.2L401.79,260.34L403.01,255.42L404.24,252.18L405.47,254.73L406.7,255.48L407.93,251.17L409.16,249.38L410.39,247.36L411.62,262.91L412.85,242.29L414.08,247.58L415.31,242.28L416.54,237.93L417.77,231.01L419,238.44L420.23,238.19L421.46,233.54L422.69,232.5L423.92,229.54L425.15,226.82L426.37,230.34L427.6,223.13L428.83,229.26L430.06,234.81L431.29,231.18L432.52,227.46L433.75,226.87L434.98,225.15L436.21,231.61L437.44,224.2L438.67,221.87L439.9,220.52L441.13,218.17L442.36,226.58L443.59,222.01L444.82,218.17L446.05,223.05L447.28,225.63L448.51,220.94L449.73,216.58L450.96,222.55L452.19,219.62L453.42,219.68L454.65,218.24L455.88,218.7L457.11,222.31L458.34,215.22L459.57,218.39L460.8,217.03L462.03,220.76L463.26,209.69L464.49,219.7L465.72,220.28L466.95,231.34L468.18,216.18L469.41,225.37L470.64,215.74L471.87,220.25L473.1,224L474.32,218.04L475.55,222.66L476.78,205.11L478.01,222.12L479.24,218.68L480.47,225.4L481.7,214.48L482.93,225.52L484.16,212.91L485.39,227.17L486.62,217.52L487.85,218.24L489.08,209.09L490.31,216.97L491.54,225.61L492.77,214.55L494,222.33L495.23,220.64L496.46,215.36L497.68,207.82L498.91,218.59L500.14,224.75L501.37,219.26L502.6,222.14L503.83,218.7L505.06,223.32L506.29,221.44L507.52,223.24L508.75,219.53L509.98,227.08L511.21,226.84L512.44,220.58L513.67,213.66L514.9,222.56L516.13,222.27L517.36,216.84L518.59,222.4L519.82,220.7L521.04,219.53L522.27,215.4L523.5,221.3L524.73,225.55L525.96,219.73L527.19,219.7L528.42,224.01L529.65,221.53L530.88,219.97L532.11,219.98L533.34,219.39L534.57,218.11L535.8,219.95L537.03,220.37L538.26,220.6L539.49,224.59L540.72,220.39L541.95,219.9L543.18,222.41L544.4,215.78L545.63,222.47L546.86,220.78L548.09,224.38L549.32,224.46L550.55,215.52L551.78,214.67L553.01,216.9L554.24,227.83L555.47,219.99L556.7,219.37L557.93,222.28L559.16,222.62L560.39,220.46L561.62,221.13L562.85,216.6L564.08,213.78L565.31,215.97" style="fill:none;fill-rule:nonzero;stroke:rgb(56,108,176);stroke-width:1.65px;"/>
                <path id="path152" d="M320.64,277.04L321.87,277.37L323.1,275.11L324.33,264.22L325.56,281.01L326.79,259.61L328.02,279.09L329.25,270.83L330.48,273.04L331.7,272.47L332.93,264.41L334.16,260.96L335.39,262.83L336.62,276.27L337.85,256.71L339.08,278.73L340.31,277.38L341.54,272.39L342.77,270.84L344,276.77L345.23,270.82L346.46,256.05L347.69,260.21L348.92,273.13L350.15,252.76L351.38,263.12L352.61,275.02L353.84,276.72L355.06,271.11L356.29,281.06L357.52,269.47L358.75,278.55L359.98,279.52L361.21,268.72L362.44,270L363.67,261.39L364.9,277.3L366.13,270.49L367.36,276.88L368.59,268.98L369.82,268.04L371.05,277.28L372.28,279.83L373.51,271.48L374.74,273.26L375.97,262.22L377.2,281.59L378.43,274.21L379.65,273.81L380.88,273.98L382.11,276.92L383.34,269.23L384.57,265.22L385.8,257.19L387.03,271.21L388.26,266.01L389.49,230.36L390.72,257.11L391.95,265.83L393.18,249.39L394.41,260.81L395.64,233.1L396.87,266.64L398.1,225.84L399.33,219.9L400.56,224.26L401.79,229L403.01,223.33L404.24,211.38L405.47,218.62L406.7,203.06L407.93,205.26L409.16,211.09L410.39,209.8L411.62,239.68L412.85,206.31L414.08,211.64L415.31,207.83L416.54,206.07L417.77,194.79L419,210.51L420.23,208.83L421.46,204.76L422.69,199.69L423.92,203.52L425.15,199.51L426.37,208.68L427.6,202.31L428.83,202.96L430.06,207.15L431.29,209.58L432.52,203.61L433.75,202.7L434.98,201.5L436.21,204.83L437.44,203.87L438.67,203.91L439.9,200.87L441.13,205.09L442.36,212.03L443.59,209.15L444.82,201.45L446.05,205.87L447.28,199.63L448.51,198.35L449.73,197.79L450.96,204.75L452.19,198.13L453.42,207.01L454.65,201.31L455.88,204.43L457.11,207.48L458.34,205.81L459.57,199.85L460.8,207.05L462.03,201.25L463.26,198.51L464.49,204.86L465.72,209.33L466.95,209.81L468.18,205.81L469.41,209.9L470.64,207.98L471.87,208.65L473.1,212.86L474.32,199.58L475.55,213.78L476.78,192.89L478.01,211.2L479.24,206.82L480.47,211.02L481.7,201.54L482.93,213.07L484.16,197.98L485.39,212.88L486.62,199.93L487.85,201.14L489.08,195.36L490.31,207.83L491.54,213.3L492.77,198.11L494,209.47L495.23,207.38L496.46,201.9L497.68,182.88L498.91,200.51L500.14,211.68L501.37,205.25L502.6,208.51L503.83,201.34L505.06,205.8L506.29,205.69L507.52,207.99L508.75,199.71L509.98,210.88L511.21,210.96L512.44,201.75L513.67,193.34L514.9,206.55L516.13,201.34L517.36,199.34L518.59,204.84L519.82,201.55L521.04,202.32L522.27,198.39L523.5,201.73L524.73,209.68L525.96,202.73L527.19,202.69L528.42,208.19L529.65,206.28L530.88,204.04L532.11,201.58L533.34,201.04L534.57,200.77L535.8,202.65L537.03,197.91L538.26,204.59L539.49,210.3L540.72,202.82L541.95,202.8L543.18,206.92L544.4,194.78L545.63,201.56L546.86,205.72L548.09,208.26L549.32,206.59L550.55,196.06L551.78,196.57L553.01,194.66L554.24,212.34L555.47,206.4L556.7,204.93L557.93,207.06L559.16,205.81L560.39,200.99L561.62,206.92L562.85,198.88L564.08,197.92L565.31,192.58" style="fill:none;fill-rule:nonzero;stroke:rgb(253,180,98);stroke-width:1.12px;"/>
                <path id="path154" d="M320.64,299.77L321.87,297.32L323.1,297.03L324.33,282.07L325.56,299.89L326.79,289.47L328.02,302.77L329.25,299.16L330.48,297.21L331.7,297.76L332.93,283.09L334.16,289.56L335.39,292.37L336.62,294.95L337.85,285.87L339.08,298.28L340.31,298.38L341.54,296.98L342.77,296.85L344,296.84L345.23,296.84L346.46,285.1L347.69,297.02L348.92,297.3L350.15,286.98L351.38,283.72L352.61,296.44L353.84,299.92L355.06,290.41L356.29,293.93L357.52,294.32L358.75,295.37L359.98,298.89L361.21,290.6L362.44,287.75L363.67,287.78L364.9,304.55L366.13,297.83L367.36,296.33L368.59,297.03L369.82,288.8L371.05,296.59L372.28,291.55L373.51,288.51L374.74,287.98L375.97,295.34L377.2,299.94L378.43,294.91L379.65,293.52L380.88,295.98L382.11,297.17L383.34,298.24L384.57,297.09L385.8,282.22L387.03,292.85L388.26,285.04L389.49,284.51L390.72,289.76L391.95,291.17L393.18,286.32L394.41,294.09L395.64,287.54L396.87,296L398.1,288.71L399.33,287.09L400.56,286.15L401.79,283.97L403.01,284.85L404.24,283.18L405.47,287.19L406.7,284.7L407.93,291.44L409.16,290.92L410.39,284.5L411.62,290.62L412.85,275.34L414.08,276.72L415.31,275.19L416.54,274.81L417.77,279.5L419,275.17L420.23,275.06L421.46,272.01L422.69,265.29L423.92,266.1L425.15,258.34L426.37,264.21L427.6,251.53L428.83,263.81L430.06,280.64L431.29,257.45L432.52,253.31L433.75,252.72L434.98,258.53L436.21,262.33L437.44,249.01L438.67,239.34L439.9,239.4L441.13,232.49L442.36,242.48L443.59,237.43L444.82,234.28L446.05,233.61L447.28,253.55L448.51,237.68L449.73,231.41L450.96,232.83L452.19,233.4L453.42,237.95L454.65,231.9L455.88,239.28L457.11,230.27L458.34,229.81L459.57,232.06L460.8,228.86L462.03,237.34L463.26,219L464.49,235.01L465.72,233.66L466.95,252.83L468.18,230.73L469.41,234.16L470.64,226.81L471.87,229.04L473.1,236.6L474.32,231.52L475.55,237.34L476.78,214.22L478.01,235.77L479.24,228.23L480.47,238.24L481.7,225.02L482.93,239.79L484.16,226.84L485.39,248.4L486.62,230.88L487.85,236.12L489.08,223.81L490.31,231.21L491.54,235.91L492.77,229.92L494,233.43L495.23,236.51L496.46,225.42L497.68,231.32L498.91,236.57L500.14,235.55L501.37,231.51L502.6,238.11L503.83,237.03L505.06,242.26L506.29,237.49L507.52,236.43L508.75,236.93L509.98,243.5L511.21,243.97L512.44,234.36L513.67,233.37L514.9,234.16L516.13,243.46L517.36,235.81L518.59,239.29L519.82,240.96L521.04,235.81L522.27,233.78L523.5,244.11L524.73,245.43L525.96,237.22L527.19,239.69L528.42,240.48L529.65,236.28L530.88,237.75L532.11,240.96L533.34,237.29L534.57,232.16L535.8,241.47L537.03,244.01L538.26,235.77L539.49,239.4L540.72,240.21L541.95,241.96L543.18,240.89L544.4,239.98L545.63,244.69L546.86,235.35L548.09,246.45L549.32,242.38L550.55,236.09L551.78,230.82L553.01,240.49L554.24,244.83L555.47,233.9L556.7,233L557.93,242.59L559.16,241.01L560.39,241.01L561.62,234.41L562.85,231.54L564.08,231.71L565.31,241.48" style="fill:none;fill-rule:nonzero;stroke:rgb(253,180,98);stroke-width:1.12px;"/>
            </g>
        </g>
        <g id="g156">
            <g id="g158">
                <clipPath id="_clip3">
                    <rect x="294.12" y="161.28" width="294.12" height="161.28"/>
                </clipPath>
                <g clip-path="url(#_clip3)">
                    <g id="text166" transform="matrix(1,0,0,-1,431.86,142.16)">
                        <text x="0px" y="0px" style="font-family:'Helvetica';font-size:10px;">Time</text>
                    </g>
                </g>
            </g>
        </g>
        <g id="g168">
            <path id="path170" d="M319.41,178.01L565.31,178.01" style="fill:none;fill-rule:nonzero;stroke:black;stroke-width:0.75px;"/>
            <path id="path172" d="M319.41,178.01L319.41,173.23" style="fill:none;fill-rule:nonzero;stroke:black;stroke-width:0.75px;"/>
            <path id="path174" d="M380.88,178.01L380.88,173.23" style="fill:none;fill-rule:nonzero;stroke:black;stroke-width:0.75px;"/>
            <path id="path176" d="M442.36,178.01L442.36,173.23" style="fill:none;fill-rule:nonzero;stroke:black;stroke-width:0.75px;"/>
            <path id="path178" d="M503.83,178.01L503.83,173.23" style="fill:none;fill-rule:nonzero;stroke:black;stroke-width:0.75px;"/>
            <path id="path180" d="M565.31,178.01L565.31,173.23" style="fill:none;fill-rule:nonzero;stroke:black;stroke-width:0.75px;"/>
            <g id="text184" transform="matrix(1,0,0,-1,316.63,163.07)">
                <text x="0px" y="0px" style="font-family:'Helvetica';font-size:10px;">0</text>
            </g>
            <g id="text188" transform="matrix(1,0,0,-1,375.32,163.07)">
                <text x="0px" y="0px" style="font-family:'Helvetica';font-size:10px;">50</text>
            </g>
            <g id="text192" transform="matrix(1,0,0,-1,434.02,163.07)">
                <text x="0px" y="0px" style="font-family:'Helvetica';font-size:10px;">100</text>
            </g>
            <g id="text196" transform="matrix(1,0,0,-1,495.49,163.07)">
                <text x="0px" y="0px" style="font-family:'Helvetica';font-size:10px;">150</text>
            </g>
            <g id="text200" transform="matrix(1,0,0,-1,556.97,163.07)">
                <text x="0px" y="0px" style="font-family:'Helvetica';font-size:10px;">200</text>
            </g>
            <path id="path202" d="M310.85,180.31L310.85,284.28" style="fill:none;fill-rule:nonzero;stroke:black;stroke-width:0.75px;"/>
            <path id="path204" d="M310.85,180.31L306.07,180.31" style="fill:none;fill-rule:nonzero;stroke:black;stroke-width:0.75px;"/>
            <path id="path206" d="M310.85,206.3L306.07,206.3" style="fill:none;fill-rule:nonzero;stroke:black;stroke-width:0.75px;"/>
            <path id="path208" d="M310.85,232.3L306.07,232.3" style="fill:none;fill-rule:nonzero;stroke:black;stroke-width:0.75px;"/>
            <path id="path210" d="M310.85,258.29L306.07,258.29" style="fill:none;fill-rule:nonzero;stroke:black;stroke-width:0.75px;"/>
            <path id="path212" d="M310.85,284.28L306.07,284.28" style="fill:none;fill-rule:nonzero;stroke:black;stroke-width:0.75px;"/>
            <g id="text216" transform="matrix(0,1,1,0,303.08,173.36)">
                <text x="0px" y="0px" style="font-family:'Helvetica';font-size:10px;">0.2</text>
            </g>
            <g id="text220" transform="matrix(0,1,1,0,303.08,199.35)">
                <text x="0px" y="0px" style="font-family:'Helvetica';font-size:10px;">0.4</text>
            </g>
            <g id="text224" transform="matrix(0,1,1,0,303.08,225.35)">
                <text x="0px" y="0px" style="font-family:'Helvetica';font-size:10px;">0.6</text>
            </g>
            <g id="text228" transform="matrix(0,1,1,0,303.08,251.34)">
                <text x="0px" y="0px" style="font-family:'Helvetica';font-size:10px;">0.8</text>
            </g>
            <g id="text232" transform="matrix(0,1,1,0,303.08,277.33)">
                <text x="0px" y="0px" style="font-family:'Helvetica';font-size:10px;">1.0</text>
            </g>
            <rect id="path234" x="310.85" y="178.01" width="264.24" height="131.4" style="fill:none;fill-rule:nonzero;stroke:black;stroke-width:0.75px;"/>
        </g>
        <g id="g236">
            <g id="g238">
                <clipPath id="_clip4">
                    <rect x="310.85" y="178.01" width="264.24" height="131.4"/>
                </clipPath>
                <g clip-path="url(#_clip4)">
                    <path id="path244" d="M310.85,243.43L575.09,243.43" style="fill:none;fill-rule:nonzero;stroke:rgb(127,201,127);stroke-width:0.75px;"/>
                    <path id="path246" d="M503.83,178.01L503.83,309.41" style="fill:none;fill-rule:nonzero;stroke:black;stroke-width:0.41px;stroke-dasharray:1.24,2.06;"/>
                    <rect id="path248" x="310.85" y="178.01" width="101.86" height="39.88" style="fill:white;fill-rule:nonzero;stroke:black;stroke-width:0.75px;"/>
                    <path id="path250" d="M318.09,209.91L332.56,209.91" style="fill:none;fill-rule:nonzero;stroke:rgb(56,108,176);stroke-width:0.75px;"/>
                    <path id="path252" d="M318.09,201.94L332.56,201.94" style="fill:none;fill-rule:nonzero;stroke:rgb(253,180,98);stroke-width:0.75px;"/>
                    <path id="path254" d="M318.09,193.96L332.56,193.96" style="fill:none;fill-rule:nonzero;stroke:rgb(127,201,127);stroke-width:0.75px;"/>
                    <path id="path256" d="M318.09,185.99L332.56,185.99" style="fill:none;fill-rule:nonzero;stroke:black;stroke-width:0.75px;stroke-dasharray:2.25,3.75;"/>
                    <g id="text260" transform="matrix(1,0,0,-1,339.8,207.76)">
                        <text x="0px" y="0px" style="font-family:'Helvetica';font-size:6px;">Posterior Mean</text>
                    </g>
                    <g id="text264" transform="matrix(1,0,0,-1,339.8,199.79)">
                        <text x="0px" y="0px" style="font-family:'Helvetica';font-size:6px;">16 &amp; 84% quantiles</text>
                    </g>
                    <g id="text268" transform="matrix(1,0,0,-1,339.8,191.81)">
                        <text x="0px" y="0px" style="font-family:'Helvetica';font-size:6px;">OLS</text>
                    </g>
                    <g id="text272" transform="matrix(1,0,0,-1,339.8,183.83)">
                        <text x="0px" y="0px" style="font-family:'Helvetica';font-size:6px;">OOS start</text>
                    </g>
                </g>
            </g>
        </g>
        <g id="g274">
            <g id="g276">
                <path id="path282" d="M26.52,112.96L27.75,121.05L28.98,123.62L30.21,128.63L31.44,120.44L32.67,124.32L33.9,113.2L35.13,119.33L36.36,124.44L37.58,120.35L38.81,126.29L40.04,118.62L41.27,123.13L42.5,118.25L43.73,125.45L44.96,118.75L46.19,115.9L47.42,122.7L48.65,110.91L49.88,117.16L51.11,115.36L52.34,117.39L53.57,104.89L54.8,125.02L56.03,112.76L57.26,119.87L58.49,117.85L59.72,114.97L60.94,123.21L62.17,114.68L63.4,121.27L64.63,120.63L65.86,120.31L67.09,115.11L68.32,124.99L69.55,122.41L70.78,127.15L72.01,118.24L73.24,117.46L74.47,114.66L75.7,118.72L76.93,125.3L78.16,123.3L79.39,119.18L80.62,120.63L81.85,115.67L83.08,114.32L84.31,119.11L85.53,125.14L86.76,113.94L87.99,116.69L89.22,112.32L90.45,110.05L91.68,115.01L92.91,116.58L94.14,110.6L95.37,110.17L96.6,116.66L97.83,103.04L99.06,111.33L100.29,109.06L101.52,105.51L102.75,106.19L103.98,96.37L105.21,98.26L106.44,104.75L107.67,95.83L108.89,108.09L110.12,88.24L111.35,94.46L112.58,96.94L113.81,82.35L115.04,78.56L116.27,85.37L117.5,95.41L118.73,73.48L119.96,87.13L121.19,63.23L122.42,58.95L123.65,66.56L124.88,68.84L126.11,72.73L127.34,68.85L128.57,57.41L129.8,57.35L131.03,55.17L132.25,56.85L133.48,61.44L134.71,46.04L135.94,57.63L137.17,54.38L138.4,51.06L139.63,67.92L140.86,55.18L142.09,55.11L143.32,55.45L144.55,47.51L145.78,53.38L147.01,47.34L148.24,55.77L149.47,47.03L150.7,49.61L151.93,54.16L153.16,49.25L154.39,55.71L155.61,50.06L156.84,54.17L158.07,54.4L159.3,46.16L160.53,48.43L161.76,43.55L162.99,51.04L164.22,51.02L165.45,48.48L166.68,51.79L167.91,51.38L169.14,39.02L170.37,53.39L171.6,49.58L172.83,57.42L174.06,50.86L175.29,48.24L176.52,63.39L177.75,44.39L178.98,49.69L180.2,53.56L181.43,52.9L182.66,40.55L183.89,52.75L185.12,43.67L186.35,58.23L187.58,43.44L188.81,59.03L190.04,52.66L191.27,53.58L192.5,52.97L193.73,51.87L194.96,42.03L196.19,51.55L197.42,52.19L198.65,44.59L199.88,52.63L201.11,59.82L202.34,54.29L203.56,55.13L204.79,51.01L206.02,53.82L207.25,56.24L208.48,46.29L209.71,51.98L210.94,52.66L212.17,52.66L213.4,54.99L214.63,49.18L215.86,59.1L217.09,58.75L218.32,54.57L219.55,51.08L220.78,51.07L222.01,54.24L223.24,51.07L224.47,49.72L225.7,53.39L226.92,51.35L228.15,49.3L229.38,55.38L230.61,52.23L231.84,52.86L233.07,52.79L234.3,54.76L235.53,55.7L236.76,51.91L237.99,51.56L239.22,48.54L240.45,55.3L241.68,51.87L242.91,54.1L244.14,52.61L245.37,52.48L246.6,54.85L247.83,48.71L249.06,50.93L250.28,48.79L251.51,60.04L252.74,47.89L253.97,59.25L255.2,55.79L256.43,49.52L257.66,51.15L258.89,50.97L260.12,58.4L261.35,50.37L262.58,45.6L263.81,51.73L265.04,54.13L266.27,53.63L267.5,53.78L268.73,53.12L269.96,50.24L271.19,51.4" style="fill:none;fill-rule:nonzero;stroke:rgb(56,108,176);stroke-width:1.65px;"/>
                <path id="path284" d="M26.52,105.94L27.75,113.39L28.98,117.12L30.21,118.56L31.44,112.8L32.67,114.52L33.9,106.44L35.13,109.67L36.36,110.51L37.58,112.5L38.81,115.55L40.04,110.59L41.27,109.92L42.5,108.9L43.73,112.94L44.96,100.32L46.19,104.42L47.42,113.52L48.65,100.37L49.88,99.94L51.11,96.13L52.34,105.51L53.57,92.47L54.8,110.71L56.03,91.61L57.26,104.55L58.49,108.64L59.72,106.48L60.94,107.9L62.17,103.47L63.4,109.14L64.63,112.15L65.86,108.07L67.09,109.51L68.32,117.2L69.55,112.12L70.78,119.12L72.01,106.87L73.24,110.39L74.47,104.56L75.7,111.25L76.93,110.92L78.16,110.82L79.39,106.76L80.62,111.3L81.85,104.73L83.08,107.17L84.31,105.53L85.53,114.29L86.76,102.38L87.99,108.12L89.22,103.2L90.45,99.44L91.68,103.73L92.91,106.22L94.14,98.07L95.37,81.06L96.6,101.08L97.83,83.74L99.06,92.75L100.29,86.65L101.52,65.57L102.75,80.06L103.98,58.45L105.21,46.6L106.44,53.98L107.67,53.41L108.89,69.22L110.12,48.86L111.35,48.26L112.58,57.84L113.81,49.87L115.04,37.96L116.27,53.48L117.5,74.23L118.73,33.75L119.96,45.48L121.19,37.18L122.42,24.29L123.65,36.03L124.88,36.17L126.11,36.59L127.34,39.25L128.57,22.6L129.8,35.56L131.03,21.6L132.25,31.81L133.48,33.41L134.71,22.71L135.94,25.42L137.17,32.3L138.4,28.86L139.63,45.82L140.86,32.54L142.09,33.66L143.32,32.71L144.55,29.31L145.78,38.18L147.01,28.92L148.24,29.37L149.47,28.27L150.7,29.08L151.93,39.79L153.16,27.46L154.39,36.71L155.61,34L156.84,35.04L158.07,40.77L159.3,26.65L160.53,33.77L161.76,27.87L162.99,37.65L164.22,38.73L165.45,33.22L166.68,41.4L167.91,32.72L169.14,24.93L170.37,41.33L171.6,31.11L172.83,46.32L174.06,33.55L175.29,35.02L176.52,45.58L177.75,30.83L178.98,36.19L180.2,40.83L181.43,40.54L182.66,30.1L183.89,38.95L185.12,32.86L186.35,42.83L187.58,31.22L188.81,41.16L190.04,39.32L191.27,34.69L192.5,39.92L193.73,35.52L194.96,26.47L196.19,30.95L197.42,36.63L198.65,21.72L199.88,37.23L201.11,42.11L202.34,36.95L203.56,34.93L204.79,36.33L206.02,34.81L207.25,45.21L208.48,32.58L209.71,33.67L210.94,35.81L212.17,33.64L213.4,39.1L214.63,31.88L215.86,41.24L217.09,42.36L218.32,38.73L219.55,32.32L220.78,32.78L222.01,37.48L223.24,32.03L224.47,33.85L225.7,34.72L226.92,33.85L228.15,31.62L229.38,36.16L230.61,33.23L231.84,36.58L233.07,37.23L234.3,38.48L235.53,37.14L236.76,33.23L237.99,31.88L239.22,33.56L240.45,42.74L241.68,31.62L242.91,35.68L244.14,34.08L245.37,39.1L246.6,39.19L247.83,31.43L249.06,31.23L250.28,31.21L251.51,44.31L252.74,31.38L253.97,38.64L255.2,37.13L256.43,32.28L257.66,33.82L258.89,33.08L260.12,42.93L261.35,34.64L262.58,24.78L263.81,33.69L265.04,36.31L266.27,39.41L267.5,36.45L268.73,36.51L269.96,31.06L271.19,33.51" style="fill:none;fill-rule:nonzero;stroke:rgb(253,180,98);stroke-width:1.12px;"/>
                <path id="path286" d="M26.52,126.01L27.75,133.97L28.98,132.7L30.21,140.47L31.44,131.55L32.67,137.98L33.9,120.64L35.13,133.23L36.36,138.75L37.58,132.15L38.81,137.39L40.04,129.14L41.27,138.83L42.5,128.53L43.73,135.65L44.96,138.44L46.19,129.65L47.42,134.35L48.65,123.19L49.88,134.47L51.11,131.96L52.34,133.95L53.57,117.36L54.8,140.7L56.03,129.5L57.26,136.79L58.49,126.69L59.72,129.04L60.94,137.56L62.17,125.75L63.4,136.92L64.63,128.65L65.86,133.5L67.09,128.3L68.32,137.06L69.55,135.45L70.78,136.55L72.01,132.27L73.24,125.1L74.47,128.56L75.7,135.34L76.93,137.27L78.16,135.98L79.39,130.24L80.62,137.11L81.85,133.99L83.08,128.08L84.31,137.47L85.53,141.07L86.76,130.88L87.99,130.09L89.22,128.04L90.45,123.59L91.68,132.67L92.91,135.74L94.14,129.89L95.37,130.73L96.6,133.91L97.83,117.65L99.06,131.91L100.29,126.06L101.52,131.67L102.75,133.39L103.98,121.18L105.21,128.28L106.44,143.27L107.67,129.59L108.89,133.79L110.12,129.65L111.35,128.05L112.58,133.42L113.81,113.25L115.04,117.41L116.27,117.99L117.5,117.81L118.73,118.83L119.96,127.6L121.19,101.57L122.42,98.26L123.65,100.24L124.88,104.49L126.11,103.45L127.34,98.49L128.57,98.25L129.8,86.1L131.03,99.05L132.25,96.26L133.48,99.51L134.71,78.62L135.94,119.25L137.17,81.8L138.4,81.97L139.63,91L140.86,96.63L142.09,89.56L143.32,68.25L144.55,73.74L145.78,70.8L147.01,61.06L148.24,69.86L149.47,60.6L150.7,63.14L151.93,62L153.16,71.69L154.39,66.15L155.61,65.09L156.84,71.37L158.07,63.08L159.3,60.09L160.53,65.12L161.76,58.45L162.99,60.67L164.22,61.69L165.45,62.98L166.68,60.74L167.91,73.62L169.14,58.4L170.37,64.06L171.6,65.24L172.83,73.36L174.06,65.69L175.29,65.11L176.52,76.93L177.75,58.59L178.98,65.08L180.2,65.81L181.43,67.06L182.66,57.2L183.89,66.17L185.12,58.1L186.35,74.23L187.58,57.68L188.81,76.03L190.04,63.63L191.27,69.59L192.5,62.93L193.73,66.01L194.96,59.47L196.19,70.67L197.42,62.88L198.65,63.79L199.88,67.37L201.11,72.44L202.34,69.85L203.56,71.65L204.79,63.71L206.02,71.67L207.25,68.2L208.48,61.39L209.71,65.76L210.94,66.05L212.17,74.03L213.4,66.37L214.63,64.59L215.86,74.71L217.09,74.26L218.32,67.92L219.55,70.36L220.78,66.37L222.01,67.59L223.24,66.61L224.47,64.55L225.7,68.42L226.92,65.71L228.15,64.68L229.38,71.2L230.61,73.9L231.84,65.42L233.07,64.94L234.3,65.67L235.53,70.29L236.76,67.62L237.99,71L239.22,61.79L240.45,68.04L241.68,68.2L242.91,70.38L244.14,65.61L245.37,62.15L246.6,66.25L247.83,65.61L249.06,71.4L250.28,66.77L251.51,73.31L252.74,64.55L253.97,74.48L255.2,72.97L256.43,64.55L257.66,64.63L258.89,65.78L260.12,73.31L261.35,64.55L262.58,64.55L263.81,66.38L265.04,69L266.27,68.02L267.5,67.37L268.73,66.3L269.96,68.85L271.19,65.39" style="fill:none;fill-rule:nonzero;stroke:rgb(253,180,98);stroke-width:1.12px;"/>
            </g>
        </g>
        <g id="g288">
            <g id="g290">
                <clipPath id="_clip5">
                    <rect x="0" y="0" width="294.12" height="161.28"/>
                </clipPath>
                <g clip-path="url(#_clip5)">
                    <g id="text298">
                    </g>
                </g>
            </g>
        </g>
        <g id="g300">
            <path id="path302" d="M25.29,16.73L271.19,16.73" style="fill:none;fill-rule:nonzero;stroke:black;stroke-width:0.75px;"/>
            <path id="path304" d="M25.29,16.73L25.29,11.95" style="fill:none;fill-rule:nonzero;stroke:black;stroke-width:0.75px;"/>
            <path id="path306" d="M86.76,16.73L86.76,11.95" style="fill:none;fill-rule:nonzero;stroke:black;stroke-width:0.75px;"/>
            <path id="path308" d="M148.24,16.73L148.24,11.95" style="fill:none;fill-rule:nonzero;stroke:black;stroke-width:0.75px;"/>
            <path id="path310" d="M209.71,16.73L209.71,11.95" style="fill:none;fill-rule:nonzero;stroke:black;stroke-width:0.75px;"/>
            <path id="path312" d="M271.19,16.73L271.19,11.95" style="fill:none;fill-rule:nonzero;stroke:black;stroke-width:0.75px;"/>
            <g id="text316" transform="matrix(1,0,0,-1,22.51,1.79)">
                <text x="0px" y="0px" style="font-family:'Helvetica';font-size:10px;">0</text>
            </g>
            <g id="text320" transform="matrix(1,0,0,-1,81.2,1.79)">
                <text x="0px" y="0px" style="font-family:'Helvetica';font-size:10px;">50</text>
            </g>
            <g id="text324" transform="matrix(1,0,0,-1,139.9,1.79)">
                <text x="0px" y="0px" style="font-family:'Helvetica';font-size:10px;">100</text>
            </g>
            <g id="text328" transform="matrix(1,0,0,-1,201.37,1.79)">
                <text x="0px" y="0px" style="font-family:'Helvetica';font-size:10px;">150</text>
            </g>
            <g id="text332" transform="matrix(1,0,0,-1,262.85,1.79)">
                <text x="0px" y="0px" style="font-family:'Helvetica';font-size:10px;">200</text>
            </g>
            <path id="path334" d="M16.73,37.92L16.73,147.34" style="fill:none;fill-rule:nonzero;stroke:black;stroke-width:0.75px;"/>
            <path id="path336" d="M16.73,37.92L11.95,37.92" style="fill:none;fill-rule:nonzero;stroke:black;stroke-width:0.75px;"/>
            <path id="path338" d="M16.73,65.27L11.95,65.27" style="fill:none;fill-rule:nonzero;stroke:black;stroke-width:0.75px;"/>
            <path id="path340" d="M16.73,92.63L11.95,92.63" style="fill:none;fill-rule:nonzero;stroke:black;stroke-width:0.75px;"/>
            <path id="path342" d="M16.73,119.98L11.95,119.98" style="fill:none;fill-rule:nonzero;stroke:black;stroke-width:0.75px;"/>
            <path id="path344" d="M16.73,147.34L11.95,147.34" style="fill:none;fill-rule:nonzero;stroke:black;stroke-width:0.75px;"/>
            <g id="text348" transform="matrix(0,1,1,0,8.96,30.97)">
                <text x="0px" y="0px" style="font-family:'Helvetica';font-size:10px;">0.4</text>
            </g>
            <g id="text352" transform="matrix(0,1,1,0,8.96,58.32)">
                <text x="0px" y="0px" style="font-family:'Helvetica';font-size:10px;">0.6</text>
            </g>
            <g id="text356" transform="matrix(0,1,1,0,8.96,85.68)">
                <text x="0px" y="0px" style="font-family:'Helvetica';font-size:10px;">0.8</text>
            </g>
            <g id="text360" transform="matrix(0,1,1,0,8.96,113.03)">
                <text x="0px" y="0px" style="font-family:'Helvetica';font-size:10px;">1.0</text>
            </g>
            <g id="text364" transform="matrix(0,1,1,0,8.96,140.39)">
                <text x="0px" y="0px" style="font-family:'Helvetica';font-size:10px;">1.2</text>
            </g>
            <rect id="path366" x="16.73" y="16.73" width="264.24" height="131.4" style="fill:none;fill-rule:nonzero;stroke:black;stroke-width:0.75px;"/>
        </g>
        <g id="g368">
            <g id="g370">
                <clipPath id="_clip6">
                    <rect x="16.73" y="16.73" width="264.24" height="131.4"/>
                </clipPath>
                <g clip-path="url(#_clip6)">
                    <path id="path376" d="M16.73,72.25L280.97,72.25" style="fill:none;fill-rule:nonzero;stroke:rgb(127,201,127);stroke-width:0.75px;"/>
                    <path id="path378" d="M209.71,16.73L209.71,148.13" style="fill:none;fill-rule:nonzero;stroke:black;stroke-width:0.41px;stroke-dasharray:1.24,2.06;"/>
                    <rect id="path380" x="16.73" y="16.73" width="101.86" height="39.88" style="fill:white;fill-rule:nonzero;stroke:black;stroke-width:0.75px;"/>
                    <path id="path382" d="M23.97,48.63L38.44,48.63" style="fill:none;fill-rule:nonzero;stroke:rgb(56,108,176);stroke-width:0.75px;"/>
                    <path id="path384" d="M23.97,40.66L38.44,40.66" style="fill:none;fill-rule:nonzero;stroke:rgb(253,180,98);stroke-width:0.75px;"/>
                    <path id="path386" d="M23.97,32.68L38.44,32.68" style="fill:none;fill-rule:nonzero;stroke:rgb(127,201,127);stroke-width:0.75px;"/>
                    <path id="path388" d="M23.97,24.71L38.44,24.71" style="fill:none;fill-rule:nonzero;stroke:black;stroke-width:0.75px;stroke-dasharray:2.25,3.75;"/>
                    <g id="text392" transform="matrix(1,0,0,-1,45.68,46.48)">
                        <text x="0px" y="0px" style="font-family:'Helvetica';font-size:6px;">Posterior Mean</text>
                    </g>
                    <g id="text396" transform="matrix(1,0,0,-1,45.68,38.51)">
                        <text x="0px" y="0px" style="font-family:'Helvetica';font-size:6px;">16 &amp; 84% quantiles</text>
                    </g>
                    <g id="text400" transform="matrix(1,0,0,-1,45.68,30.53)">
                        <text x="0px" y="0px" style="font-family:'Helvetica';font-size:6px;">OLS</text>
                    </g>
                    <g id="text404" transform="matrix(1,0,0,-1,45.68,22.55)">
                        <text x="0px" y="0px" style="font-family:'Helvetica';font-size:6px;">OOS start</text>
                    </g>
                </g>
            </g>
        </g>
        <g id="g406">
            <g id="g408">
                <path id="path414" d="M320.64,111.86L321.87,112.36L323.1,112.63L324.33,101.16L325.56,112.12L326.79,105.56L328.02,109.67L329.25,110.23L330.48,108.21L331.7,112.11L332.93,107.3L334.16,116.66L335.39,108.25L336.62,111.23L337.85,106.8L339.08,101.98L340.31,112.33L341.54,109.43L342.77,117.84L344,106.96L345.23,98.62L346.46,105.62L347.69,105.27L348.92,115.5L350.15,101.49L351.38,105.26L352.61,117.1L353.84,108.85L355.06,117.13L356.29,123.57L357.52,113.67L358.75,119.73L359.98,123.95L361.21,112.8L362.44,109.69L363.67,107.16L364.9,104.13L366.13,104.98L367.36,117.57L368.59,110.27L369.82,114.5L371.05,119.73L372.28,116L373.51,118.4L374.74,117.59L375.97,113.36L377.2,106L378.43,120.47L379.65,113.36L380.88,117.79L382.11,105.15L383.34,108.26L384.57,104.87L385.8,106.15L387.03,107.63L388.26,108.58L389.49,95.46L390.72,109.95L391.95,104.19L393.18,104.56L394.41,104.44L395.64,89.93L396.87,101.08L398.1,87.23L399.33,86.67L400.56,89.59L401.79,93.23L403.01,89.92L404.24,81.59L405.47,76.36L406.7,88.37L407.93,75.43L409.16,74.25L410.39,68.99L411.62,65.05L412.85,55.99L414.08,65.83L415.31,52.15L416.54,48.68L417.77,62.55L419,58.53L420.23,64.17L421.46,56.06L422.69,47.86L423.92,56.13L425.15,45.03L426.37,44.05L427.6,54.08L428.83,47.77L430.06,55.44L431.29,57.09L432.52,46.35L433.75,44.51L434.98,52.14L436.21,65.51L437.44,45.98L438.67,50.03L439.9,40.63L441.13,36.7L442.36,37.39L443.59,42.84L444.82,42.43L446.05,57.82L447.28,55.41L448.51,53.73L449.73,40.09L450.96,46.7L452.19,50.99L453.42,41.35L454.65,49.28L455.88,48.13L457.11,52.08L458.34,47.81L459.57,52.32L460.8,52.16L462.03,59.65L463.26,30.44L464.49,48.23L465.72,36.11L466.95,55.84L468.18,50.99L469.41,53.05L470.64,42.1L471.87,47.09L473.1,42.63L474.32,52.24L475.55,49.78L476.78,48.38L478.01,44.6L479.24,50.26L480.47,46.3L481.7,40.64L482.93,50.4L484.16,45.56L485.39,39.97L486.62,53.16L487.85,53.26L489.08,40.87L490.31,38.59L491.54,40.83L492.77,41.49L494,47.57L495.23,44.59L496.46,44.3L497.68,49.23L498.91,51.21L500.14,43.34L501.37,49.88L502.6,51.2L503.83,54.01L505.06,45.9L506.29,43.26L507.52,51.91L508.75,51.24L509.98,49.75L511.21,49.25L512.44,56.95L513.67,41.65L514.9,46.03L516.13,51.03L517.36,46.17L518.59,49.53L519.82,49.05L521.04,49.68L522.27,46.98L523.5,51.34L524.73,43.59L525.96,55.5L527.19,46.68L528.42,49.35L529.65,46.04L530.88,46.4L532.11,50L533.34,50.31L534.57,42.15L535.8,40.19L537.03,44.77L538.26,48.23L539.49,54.82L540.72,43.57L541.95,41.22L543.18,42.38L544.4,46.93L545.63,56.3L546.86,48.37L548.09,45.64L549.32,52.82L550.55,50.59L551.78,48.29L553.01,54.09L554.24,54.6L555.47,48.43L556.7,43.2L557.93,45.1L559.16,45.57L560.39,49.4L561.62,49.51L562.85,45L564.08,42.01L565.31,50.65" style="fill:none;fill-rule:nonzero;stroke:rgb(56,108,176);stroke-width:1.65px;"/>
                <path id="path416" d="M320.64,96.87L321.87,96.99L323.1,97.93L324.33,87.35L325.56,97.35L326.79,85.63L328.02,96.83L329.25,96.69L330.48,96.15L331.7,101.36L332.93,97.02L334.16,102.08L335.39,94.91L336.62,97.56L337.85,94.93L339.08,89.72L340.31,97.3L341.54,91.31L342.77,103.52L344,89.06L345.23,70.59L346.46,85.11L347.69,72.77L348.92,85.4L350.15,81.51L351.38,73.47L352.61,96.88L353.84,83.05L355.06,104.59L356.29,106.49L357.52,94.18L358.75,106.18L359.98,112.34L361.21,87.49L362.44,91.7L363.67,87.29L364.9,83.46L366.13,86.55L367.36,102.61L368.59,96.09L369.82,95.61L371.05,109.64L372.28,101.45L373.51,102.53L374.74,106.13L375.97,95.73L377.2,92.31L378.43,105.91L379.65,101.66L380.88,105.76L382.11,82.81L383.34,95.67L384.57,87.2L385.8,75.19L387.03,87.23L388.26,93.25L389.49,62.98L390.72,74.72L391.95,82.43L393.18,63.26L394.41,62.59L395.64,45.49L396.87,65.71L398.1,39.52L399.33,50.69L400.56,37.34L401.79,63.01L403.01,37.94L404.24,34.61L405.47,38.98L406.7,45.73L407.93,39.89L409.16,39L410.39,35.32L411.62,22.23L412.85,27.88L414.08,33.32L415.31,23.88L416.54,23.64L417.77,37.32L419,28.47L420.23,37.52L421.46,30.47L422.69,26.65L423.92,31.52L425.15,31.76L426.37,29.42L427.6,32L428.83,27.86L430.06,33.01L431.29,32.78L432.52,31.47L433.75,30.05L434.98,34.33L436.21,39.23L437.44,22.15L438.67,33.12L439.9,22.19L441.13,23.25L442.36,21.6L443.59,25.57L444.82,26.83L446.05,44.56L447.28,30.32L448.51,39.04L449.73,26.27L450.96,33.16L452.19,37.33L453.42,25.16L454.65,32.08L455.88,31.62L457.11,34.22L458.34,30.42L459.57,40.87L460.8,32.72L462.03,36.63L463.26,23.53L464.49,30.65L465.72,23.03L466.95,44.83L468.18,36.4L469.41,37.52L470.64,27.86L471.87,34.39L473.1,30.02L474.32,37.12L475.55,36.33L476.78,34.44L478.01,31.11L479.24,32.55L480.47,32.24L481.7,25.21L482.93,33.7L484.16,31.41L485.39,24.94L486.62,33.9L487.85,35.56L489.08,31.97L490.31,25.66L491.54,30.74L492.77,26.99L494,29.96L495.23,29.3L496.46,33.87L497.68,38.31L498.91,35.59L500.14,30.21L501.37,36.84L502.6,37.95L503.83,38.54L505.06,29.49L506.29,25.81L507.52,32.68L508.75,32.2L509.98,29.88L511.21,30.01L512.44,36.19L513.67,26.56L514.9,30.01L516.13,32.54L517.36,29.15L518.59,31.51L519.82,32.07L521.04,32.63L522.27,29.96L523.5,36.58L524.73,26.61L525.96,38.52L527.19,29.83L528.42,34.35L529.65,29.24L530.88,27.46L532.11,32.07L533.34,35.08L534.57,25.81L535.8,24.87L537.03,27.22L538.26,31.91L539.49,38.96L540.72,26.48L541.95,23.17L543.18,25.65L544.4,32.24L545.63,36.16L546.86,32.81L548.09,25.68L549.32,31.13L550.55,35.11L551.78,29.86L553.01,34.27L554.24,36.16L555.47,27.71L556.7,27.5L557.93,24.18L559.16,29.74L560.39,32.85L561.62,30.2L562.85,25.3L564.08,25.81L565.31,32.62" style="fill:none;fill-rule:nonzero;stroke:rgb(253,180,98);stroke-width:1.12px;"/>
                <path id="path418" d="M320.64,127.59L321.87,133.21L323.1,132.46L324.33,118.89L325.56,133.33L326.79,124.08L328.02,122.12L329.25,125.37L330.48,121.68L331.7,125.52L332.93,118.84L334.16,131.93L335.39,129.6L336.62,125.8L337.85,125.5L339.08,118.81L340.31,128.26L341.54,130.62L342.77,138.25L344,125.81L345.23,117.45L346.46,128.56L347.69,125.23L348.92,143.27L350.15,124.07L351.38,128.14L352.61,132.54L353.84,140.45L355.06,139.95L356.29,142.96L357.52,140.59L358.75,142.13L359.98,143.19L361.21,129.46L362.44,122.56L363.67,120.3L364.9,127.69L366.13,128.51L367.36,133.04L368.59,126.84L369.82,136.73L371.05,129.07L372.28,130.78L373.51,136.39L374.74,138.31L375.97,129.67L377.2,129.25L378.43,135.19L379.65,130.5L380.88,136.34L382.11,127.32L383.34,122.93L384.57,124.37L385.8,136.5L387.03,124.42L388.26,133.48L389.49,129.18L390.72,132.38L391.95,132.36L393.18,132.31L394.41,138.99L395.64,122.97L396.87,125.77L398.1,121.94L399.33,121.15L400.56,123.48L401.79,120.07L403.01,128.34L404.24,109.95L405.47,109.32L406.7,124.69L407.93,100.49L409.16,115.62L410.39,113.71L411.62,126.78L412.85,87.47L414.08,100.99L415.31,87.22L416.54,76.5L417.77,99.1L419,96.11L420.23,100.57L421.46,82.9L422.69,87.07L423.92,81.42L425.15,55.42L426.37,53.29L427.6,83.49L428.83,58.3L430.06,87.83L431.29,86.55L432.52,57.08L433.75,63.45L434.98,77.93L436.21,91.37L437.44,69.66L438.67,63.05L439.9,55.54L441.13,56.31L442.36,55.72L443.59,55.74L444.82,56.04L446.05,75.75L447.28,71.82L448.51,69.04L449.73,49.69L450.96,61.55L452.19,68L453.42,55.84L454.65,69.54L455.88,63.03L457.11,64.11L458.34,59.13L459.57,63.49L460.8,65.59L462.03,83.8L463.26,39.59L464.49,62.9L465.72,49.81L466.95,68.77L468.18,61.66L469.41,65.47L470.64,56.11L471.87,60.68L473.1,54.04L474.32,65.36L475.55,63.26L476.78,62.89L478.01,59.41L479.24,65.16L480.47,56.97L481.7,51.71L482.93,64.58L484.16,60.65L485.39,58.93L486.62,71.53L487.85,68.45L489.08,51L490.31,55.38L491.54,58.39L492.77,61.12L494,63.19L495.23,61.84L496.46,56.27L497.68,59.22L498.91,68.01L500.14,59.58L501.37,63.75L502.6,65.93L503.83,66.25L505.06,59.42L506.29,62.82L507.52,69.73L508.75,69.86L509.98,69.02L511.21,69.69L512.44,76.44L513.67,57.16L514.9,65.28L516.13,70.38L517.36,63.14L518.59,65.24L519.82,62.82L521.04,65.17L522.27,63.34L523.5,64.06L524.73,61.61L525.96,73.86L527.19,62.31L528.42,63.94L529.65,62.69L530.88,62.82L532.11,65.11L533.34,63.96L534.57,58.64L535.8,59.43L537.03,62.82L538.26,64.27L539.49,69.29L540.72,59.59L541.95,58.55L543.18,59.39L544.4,62.82L545.63,73.94L546.86,65.94L548.09,63.34L549.32,75.76L550.55,65.63L551.78,62.82L553.01,69.1L554.24,73.16L555.47,65.91L556.7,59.42L557.93,63.34L559.16,64.27L560.39,65.14L561.62,69.1L562.85,62.82L564.08,57.16L565.31,69.33" style="fill:none;fill-rule:nonzero;stroke:rgb(253,180,98);stroke-width:1.12px;"/>
            </g>
        </g>
        <g id="g420">
            <g id="g422">
                <clipPath id="_clip7">
                    <rect x="294.12" y="0" width="294.12" height="161.28"/>
                </clipPath>
                <g clip-path="url(#_clip7)">
                    <g id="text430">
                    </g>
                </g>
            </g>
        </g>
        <g id="g432">
            <path id="path434" d="M319.41,16.73L565.31,16.73" style="fill:none;fill-rule:nonzero;stroke:black;stroke-width:0.75px;"/>
            <path id="path436" d="M319.41,16.73L319.41,11.95" style="fill:none;fill-rule:nonzero;stroke:black;stroke-width:0.75px;"/>
            <path id="path438" d="M380.88,16.73L380.88,11.95" style="fill:none;fill-rule:nonzero;stroke:black;stroke-width:0.75px;"/>
            <path id="path440" d="M442.36,16.73L442.36,11.95" style="fill:none;fill-rule:nonzero;stroke:black;stroke-width:0.75px;"/>
            <path id="path442" d="M503.83,16.73L503.83,11.95" style="fill:none;fill-rule:nonzero;stroke:black;stroke-width:0.75px;"/>
            <path id="path444" d="M565.31,16.73L565.31,11.95" style="fill:none;fill-rule:nonzero;stroke:black;stroke-width:0.75px;"/>
            <g id="text448" transform="matrix(1,0,0,-1,316.63,1.79)">
                <text x="0px" y="0px" style="font-family:'Helvetica';font-size:10px;">0</text>
            </g>
            <g id="text452" transform="matrix(1,0,0,-1,375.32,1.79)">
                <text x="0px" y="0px" style="font-family:'Helvetica';font-size:10px;">50</text>
            </g>
            <g id="text456" transform="matrix(1,0,0,-1,434.02,1.79)">
                <text x="0px" y="0px" style="font-family:'Helvetica';font-size:10px;">100</text>
            </g>
            <g id="text460" transform="matrix(1,0,0,-1,495.49,1.79)">
                <text x="0px" y="0px" style="font-family:'Helvetica';font-size:10px;">150</text>
            </g>
            <g id="text464" transform="matrix(1,0,0,-1,556.97,1.79)">
                <text x="0px" y="0px" style="font-family:'Helvetica';font-size:10px;">200</text>
            </g>
            <path id="path466" d="M310.85,32.09L310.85,134.72" style="fill:none;fill-rule:nonzero;stroke:black;stroke-width:0.75px;"/>
            <path id="path468" d="M310.85,32.09L306.07,32.09" style="fill:none;fill-rule:nonzero;stroke:black;stroke-width:0.75px;"/>
            <path id="path470" d="M310.85,49.2L306.07,49.2" style="fill:none;fill-rule:nonzero;stroke:black;stroke-width:0.75px;"/>
            <path id="path472" d="M310.85,66.3L306.07,66.3" style="fill:none;fill-rule:nonzero;stroke:black;stroke-width:0.75px;"/>
            <path id="path474" d="M310.85,83.41L306.07,83.41" style="fill:none;fill-rule:nonzero;stroke:black;stroke-width:0.75px;"/>
            <path id="path476" d="M310.85,100.51L306.07,100.51" style="fill:none;fill-rule:nonzero;stroke:black;stroke-width:0.75px;"/>
            <path id="path478" d="M310.85,117.62L306.07,117.62" style="fill:none;fill-rule:nonzero;stroke:black;stroke-width:0.75px;"/>
            <path id="path480" d="M310.85,134.72L306.07,134.72" style="fill:none;fill-rule:nonzero;stroke:black;stroke-width:0.75px;"/>
            <g id="text484" transform="matrix(0,1,1,0,303.08,25.14)">
                <text x="0px" y="0px" style="font-family:'Helvetica';font-size:10px;">0.4</text>
            </g>
            <g id="text488" transform="matrix(0,1,1,0,303.08,59.35)">
                <text x="0px" y="0px" style="font-family:'Helvetica';font-size:10px;">0.6</text>
            </g>
            <g id="text492" transform="matrix(0,1,1,0,303.08,93.56)">
                <text x="0px" y="0px" style="font-family:'Helvetica';font-size:10px;">0.8</text>
            </g>
            <g id="text496" transform="matrix(0,1,1,0,303.08,127.77)">
                <text x="0px" y="0px" style="font-family:'Helvetica';font-size:10px;">1.0</text>
            </g>
            <rect id="path498" x="310.85" y="16.73" width="264.24" height="131.4" style="fill:none;fill-rule:nonzero;stroke:black;stroke-width:0.75px;"/>
        </g>
        <g id="g500">
            <g id="g502">
                <clipPath id="_clip8">
                    <rect x="310.85" y="16.73" width="264.24" height="131.4"/>
                </clipPath>
                <g clip-path="url(#_clip8)">
                    <path id="path508" d="M310.85,61.76L575.09,61.76" style="fill:none;fill-rule:nonzero;stroke:rgb(127,201,127);stroke-width:0.75px;"/>
                    <path id="path510" d="M503.83,16.73L503.83,148.13" style="fill:none;fill-rule:nonzero;stroke:black;stroke-width:0.41px;stroke-dasharray:1.24,2.06;"/>
                    <rect id="path512" x="310.85" y="16.73" width="101.86" height="39.88" style="fill:white;fill-rule:nonzero;stroke:black;stroke-width:0.75px;"/>
                    <path id="path514" d="M318.09,48.63L332.56,48.63" style="fill:none;fill-rule:nonzero;stroke:rgb(56,108,176);stroke-width:0.75px;"/>
                    <path id="path516" d="M318.09,40.66L332.56,40.66" style="fill:none;fill-rule:nonzero;stroke:rgb(253,180,98);stroke-width:0.75px;"/>
                    <path id="path518" d="M318.09,32.68L332.56,32.68" style="fill:none;fill-rule:nonzero;stroke:rgb(127,201,127);stroke-width:0.75px;"/>
                    <path id="path520" d="M318.09,24.71L332.56,24.71" style="fill:none;fill-rule:nonzero;stroke:black;stroke-width:0.75px;stroke-dasharray:2.25,3.75;"/>
                    <g id="text524" transform="matrix(1,0,0,-1,339.8,46.48)">
                        <text x="0px" y="0px" style="font-family:'Helvetica';font-size:6px;">Posterior Mean</text>
                    </g>
                    <g id="text528" transform="matrix(1,0,0,-1,339.8,38.51)">
                        <text x="0px" y="0px" style="font-family:'Helvetica';font-size:6px;">16 &amp; 84% quantiles</text>
                    </g>
                    <g id="text532" transform="matrix(1,0,0,-1,339.8,30.53)">
                        <text x="0px" y="0px" style="font-family:'Helvetica';font-size:6px;">OLS</text>
                    </g>
                    <g id="text536" transform="matrix(1,0,0,-1,339.8,22.55)">
                        <text x="0px" y="0px" style="font-family:'Helvetica';font-size:6px;">OOS start</text>
                    </g>
                </g>
            </g>
        </g>
    </g>
</svg>
