<?xml version="1.0" encoding="UTF-8" standalone="no"?>
<!DOCTYPE svg PUBLIC "-//W3C//DTD SVG 1.1//EN" "http://www.w3.org/Graphics/SVG/1.1/DTD/svg11.dtd">
<svg xmlns="http://www.w3.org/2000/svg" xmlns:xlink="http://www.w3.org/1999/xlink" version="1.1" width="264pt" height="337pt" viewBox="0 0 264 337">
<g enable-background="new">
<path transform="matrix(1,0,0,-1,0,337)" d="M 0 0 L 264.75 0 L 264.75 337.5 L 0 337.5 Z " fill="#ffffff"/>
<path transform="matrix(1,0,0,-1,0,337)" stroke-width="1.07" stroke-linecap="round" stroke-linejoin="round" fill="none" stroke="#ffffff" d="M 0 0 L 264.75 0 L 264.75 337.5 L 0 337.5 Z "/>
<clipPath id="cp0">
<path transform="matrix(1,0,0,-1,0,337)" d="M 45.88 31.68 L 259.27 31.68 L 259.27 332.02 L 45.88 332.02 Z "/>
</clipPath>
<g clip-path="url(#cp0)">
<path transform="matrix(1,0,0,-1,0,337)" d="M 45.88 31.68 L 259.27 31.68 L 259.27 332.02 L 45.88 332.02 Z " fill="#ffffff"/>
<path transform="matrix(1,0,0,-1,0,337)" stroke-width=".53" stroke-linecap="butt" stroke-linejoin="round" fill="none" stroke="#ebebeb" d="M 45.88 84.47 L 259.27 84.47 "/>
<path transform="matrix(1,0,0,-1,0,337)" stroke-width=".53" stroke-linecap="butt" stroke-linejoin="round" fill="none" stroke="#ebebeb" d="M 45.88 162.74 L 259.27 162.74 "/>
<path transform="matrix(1,0,0,-1,0,337)" stroke-width=".53" stroke-linecap="butt" stroke-linejoin="round" fill="none" stroke="#ebebeb" d="M 45.88 241.02 L 259.27 241.02 "/>
<path transform="matrix(1,0,0,-1,0,337)" stroke-width=".53" stroke-linecap="butt" stroke-linejoin="round" fill="none" stroke="#ebebeb" d="M 45.88 319.29 L 259.27 319.29 "/>
<path transform="matrix(1,0,0,-1,0,337)" stroke-width=".53" stroke-linecap="butt" stroke-linejoin="round" fill="none" stroke="#ebebeb" d="M 79.83 31.68 L 79.83 332.02 "/>
<path transform="matrix(1,0,0,-1,0,337)" stroke-width=".53" stroke-linecap="butt" stroke-linejoin="round" fill="none" stroke="#ebebeb" d="M 128.33 31.68 L 128.33 332.02 "/>
<path transform="matrix(1,0,0,-1,0,337)" stroke-width=".53" stroke-linecap="butt" stroke-linejoin="round" fill="none" stroke="#ebebeb" d="M 176.82 31.68 L 176.82 332.02 "/>
<path transform="matrix(1,0,0,-1,0,337)" stroke-width=".53" stroke-linecap="butt" stroke-linejoin="round" fill="none" stroke="#ebebeb" d="M 225.32 31.68 L 225.32 332.02 "/>
<path transform="matrix(1,0,0,-1,0,337)" stroke-width="1.07" stroke-linecap="butt" stroke-linejoin="round" fill="none" stroke="#ebebeb" d="M 45.88 45.33 L 259.27 45.33 "/>
<path transform="matrix(1,0,0,-1,0,337)" stroke-width="1.07" stroke-linecap="butt" stroke-linejoin="round" fill="none" stroke="#ebebeb" d="M 45.88 123.6 L 259.27 123.6 "/>
<path transform="matrix(1,0,0,-1,0,337)" stroke-width="1.07" stroke-linecap="butt" stroke-linejoin="round" fill="none" stroke="#ebebeb" d="M 45.88 201.88 L 259.27 201.88 "/>
<path transform="matrix(1,0,0,-1,0,337)" stroke-width="1.07" stroke-linecap="butt" stroke-linejoin="round" fill="none" stroke="#ebebeb" d="M 45.88 280.15 L 259.27 280.15 "/>
<path transform="matrix(1,0,0,-1,0,337)" stroke-width="1.07" stroke-linecap="butt" stroke-linejoin="round" fill="none" stroke="#ebebeb" d="M 55.58 31.68 L 55.58 332.02 "/>
<path transform="matrix(1,0,0,-1,0,337)" stroke-width="1.07" stroke-linecap="butt" stroke-linejoin="round" fill="none" stroke="#ebebeb" d="M 104.08 31.68 L 104.08 332.02 "/>
<path transform="matrix(1,0,0,-1,0,337)" stroke-width="1.07" stroke-linecap="butt" stroke-linejoin="round" fill="none" stroke="#ebebeb" d="M 152.58 31.68 L 152.58 332.02 "/>
<path transform="matrix(1,0,0,-1,0,337)" stroke-width="1.07" stroke-linecap="butt" stroke-linejoin="round" fill="none" stroke="#ebebeb" d="M 201.07 31.68 L 201.07 332.02 "/>
<path transform="matrix(1,0,0,-1,0,337)" stroke-width="1.07" stroke-linecap="butt" stroke-linejoin="round" fill="none" stroke="#ebebeb" d="M 249.57 31.68 L 249.57 332.02 "/>
<path transform="matrix(1,0,0,-1,0,337)" d="M 55.58 48.6 L 55.96 48.67 L 56.34 48.73 L 56.72 48.8 L 57.1 48.87 L 57.48 48.94 L 57.86 49.01 L 58.24 49.08 L 58.62 49.15 L 59 49.22 L 59.38 49.29 L 59.76 49.36 L 60.14 49.43 L 60.52 49.5 L 60.9 49.57 L 61.28 49.64 L 61.66 49.72 L 62.03 49.79 L 62.41 49.86 L 62.79 49.94 L 63.17 50.02 L 63.55 50.09 L 63.93 50.17 L 64.31 50.25 L 64.69 50.33 L 65.07 50.41 L 65.45 50.5 L 65.83 50.58 L 66.21 50.67 L 66.59 50.76 L 66.97 50.85 L 67.35 50.94 L 67.73 51.04 L 68.11 51.13 L 68.49 51.23 L 68.87 51.34 L 69.25 51.44 L 69.63 51.55 L 70.01 51.66 L 70.39 51.77 L 70.77 51.88 L 71.15 52 L 71.53 52.12 L 71.91 52.25 L 72.28 52.38 L 72.66 52.51 L 73.04 52.64 L 73.42 52.78 L 73.8 52.92 L 74.18 53.06 L 74.56 53.21 L 74.94 53.36 L 75.32 53.51 L 75.7 53.67 L 76.08 53.83 L 76.46 54 L 76.84 54.17 L 77.22 54.34 L 77.6 54.51 L 77.98 54.69 L 78.36 54.87 L 78.74 55.05 L 79.12 55.24 L 79.5 55.43 L 79.88 55.62 L 80.26 55.82 L 80.64 56.02 L 81.02 56.22 L 81.4 56.42 L 81.78 56.63 L 82.16 56.84 L 82.53 57.05 L 82.91 57.26 L 83.29 57.47 L 83.67 57.69 L 84.05 57.9 L 84.43 58.12 L 84.81 58.34 L 85.19 58.56 L 85.57 58.78 L 85.95 59 L 86.33 59.22 L 86.71 59.45 L 87.09 59.67 L 87.47 59.89 L 87.85 60.11 L 88.23 60.34 L 88.61 60.56 L 88.99 60.78 L 89.37 61 L 89.75 61.22 L 90.13 61.43 L 90.51 61.65 L 90.89 61.86 L 91.27 62.08 L 91.65 62.29 L 92.03 62.5 L 92.4 62.7 L 92.78 62.91 L 93.16 63.11 L 93.54 63.31 L 93.92 63.51 L 94.3 63.7 L 94.68 63.9 L 95.06 64.09 L 95.44 64.27 L 95.82 64.46 L 96.2 64.64 L 96.58 64.82 L 96.96 64.99 L 97.34 65.17 L 97.72 65.34 L 98.1 65.5 L 98.48 65.67 L 98.86 65.83 L 99.24 65.99 L 99.62 66.15 L 100 66.3 L 100.38 66.45 L 100.76 66.6 L 101.14 66.75 L 101.52 66.9 L 101.9 67.05 L 102.28 67.2 L 102.65 67.34 L 103.03 67.49 L 103.41 67.63 L 103.79 67.78 L 104.17 67.93 L 104.55 68.08 L 104.93 68.23 L 105.31 68.39 L 105.69 68.55 L 106.07 68.71 L 106.45 68.88 L 106.83 69.05 L 107.21 69.23 L 107.59 69.41 L 107.97 69.6 L 108.35 69.81 L 108.73 70.02 L 109.11 70.24 L 109.49 70.48 L 109.87 70.72 L 110.25 70.98 L 110.63 71.25 L 111.01 71.54 L 111.39 71.84 L 111.77 72.17 L 112.15 72.5 L 112.53 72.86 L 112.9 73.25 L 113.28 73.65 L 113.66 74.08 L 114.04 74.53 L 114.42 75 L 114.8 75.51 L 115.18 76.04 L 115.56 76.6 L 115.94 77.2 L 116.32 77.82 L 116.7 78.47 L 117.08 79.17 L 117.46 79.9 L 117.84 80.66 L 118.22 81.47 L 118.6 82.31 L 118.98 83.19 L 119.36 84.12 L 119.74 85.09 L 120.12 86.1 L 120.5 87.16 L 120.88 88.25 L 121.26 89.4 L 121.64 90.6 L 122.02 91.83 L 122.4 93.12 L 122.78 94.46 L 123.15 95.84 L 123.53 97.29 L 123.91 98.77 L 124.29 100.3 L 124.67 101.9 L 125.05 103.53 L 125.43 105.21 L 125.81 106.96 L 126.19 108.74 L 126.57 110.57 L 126.95 112.47 L 127.33 114.4 L 127.71 116.38 L 128.09 118.41 L 128.47 120.48 L 128.85 122.6 L 129.23 124.77 L 129.61 126.97 L 129.99 129.22 L 130.37 131.51 L 130.75 133.82 L 131.13 136.19 L 131.51 138.59 L 131.89 141.01 L 132.27 143.48 L 132.65 145.97 L 133.03 148.48 L 133.4 151.03 L 133.78 153.6 L 134.16 156.18 L 134.54 158.79 L 134.92 161.41 L 135.3 164.04 L 135.68 166.68 L 136.06 169.34 L 136.44 172 L 136.82 174.66 L 137.2 177.32 L 137.58 179.99 L 137.96 182.64 L 138.34 185.3 L 138.72 187.94 L 139.1 190.57 L 139.48 193.19 L 139.86 195.79 L 140.24 198.38 L 140.62 200.95 L 141 203.49 L 141.38 206.01 L 141.76 208.51 L 142.14 210.97 L 142.52 213.41 L 142.9 215.82 L 143.28 218.19 L 143.65 220.54 L 144.03 222.85 L 144.41 225.12 L 144.79 227.36 L 145.17 229.56 L 145.55 231.72 L 145.93 233.86 L 146.31 235.95 L 146.69 238 L 147.07 240.03 L 147.45 242 L 147.83 243.94 L 148.21 245.86 L 148.59 247.72 L 148.97 249.56 L 149.35 251.37 L 149.73 253.14 L 150.11 254.88 L 150.49 256.59 L 150.87 258.27 L 151.25 259.92 L 151.63 261.55 L 152.01 263.15 L 152.39 264.73 L 152.77 266.29 L 153.15 267.82 L 153.53 269.34 L 153.9 270.84 L 154.28 272.32 L 154.66 273.79 L 155.04 275.24 L 155.42 276.68 L 155.8 278.11 L 156.18 279.53 L 156.56 280.94 L 156.94 282.34 L 157.32 283.73 L 157.7 285.12 L 158.08 286.5 L 158.46 287.87 L 158.84 289.24 L 159.22 290.59 L 159.6 291.94 L 159.98 293.28 L 160.36 294.62 L 160.74 295.93 L 161.12 297.25 L 161.5 298.54 L 161.88 299.82 L 162.26 301.09 L 162.64 302.33 L 163.02 303.55 L 163.4 304.75 L 163.77 305.92 L 164.15 307.06 L 164.53 308.18 L 164.91 309.24 L 165.29 310.28 L 165.67 311.28 L 166.05 312.21 L 166.43 313.1 L 166.81 313.95 L 167.19 314.71 L 167.57 315.43 L 167.95 316.08 L 168.33 316.65 L 168.71 317.16 L 169.09 317.58 L 169.47 317.9 L 169.85 318.17 L 170.23 318.32 L 170.61 318.37 L 170.99 318.35 L 171.37 318.2 L 171.75 317.94 L 172.13 317.61 L 172.51 317.12 L 172.89 316.53 L 173.27 315.86 L 173.65 315 L 174.02 314.06 L 174.4 313.01 L 174.78 311.78 L 175.16 310.47 L 175.54 309.02 L 175.92 307.42 L 176.3 305.72 L 176.68 303.88 L 177.06 301.9 L 177.44 299.82 L 177.82 297.59 L 178.2 295.23 L 178.58 292.77 L 178.96 290.16 L 179.34 287.44 L 179.72 284.64 L 180.1 281.67 L 180.48 278.61 L 180.86 275.47 L 181.24 272.18 L 181.62 268.82 L 182 265.38 L 182.38 261.81 L 182.76 258.18 L 183.14 254.48 L 183.52 250.67 L 183.9 246.82 L 184.27 242.9 L 184.65 238.92 L 185.03 234.89 L 185.41 230.81 L 185.79 226.69 L 186.17 222.54 L 186.55 218.35 L 186.93 214.14 L 187.31 209.92 L 187.69 205.69 L 188.07 201.45 L 188.45 197.21 L 188.83 192.98 L 189.21 188.75 L 189.59 184.54 L 189.97 180.37 L 190.35 176.21 L 190.73 172.08 L 191.11 168.01 L 191.49 163.96 L 191.87 159.96 L 192.25 156.02 L 192.63 152.12 L 193.01 148.28 L 193.39 144.52 L 193.77 140.8 L 194.15 137.16 L 194.52 133.6 L 194.9 130.09 L 195.28 126.67 L 195.66 123.33 L 196.04 120.05 L 196.42 116.88 L 196.8 113.78 L 197.18 110.73 L 197.56 107.82 L 197.94 104.97 L 198.32 102.18 L 198.7 99.52 L 199.08 96.92 L 199.46 94.4 L 199.84 91.99 L 200.22 89.64 L 200.6 87.38 L 200.98 85.22 L 201.36 83.12 L 201.74 81.11 L 202.12 79.19 L 202.5 77.32 L 202.88 75.56 L 203.26 73.86 L 203.64 72.22 L 204.02 70.68 L 204.4 69.2 L 204.77 67.77 L 205.15 66.44 L 205.53 65.15 L 205.91 63.92 L 206.29 62.78 L 206.67 61.67 L 207.05 60.62 L 207.43 59.65 L 207.81 58.71 L 208.19 57.82 L 208.57 56.99 L 208.95 56.2 L 209.33 55.46 L 209.71 54.76 L 210.09 54.1 L 210.47 53.48 L 210.85 52.9 L 211.23 52.35 L 211.61 51.84 L 211.99 51.36 L 212.37 50.91 L 212.75 50.49 L 213.13 50.1 L 213.51 49.73 L 213.89 49.39 L 214.27 49.08 L 214.65 48.78 L 215.02 48.51 L 215.4 48.25 L 215.78 48.01 L 216.16 47.79 L 216.54 47.59 L 216.92 47.4 L 217.3 47.23 L 217.68 47.06 L 218.06 46.92 L 218.44 46.78 L 218.82 46.65 L 219.2 46.54 L 219.58 46.43 L 219.96 46.33 L 220.34 46.24 L 220.72 46.16 L 221.1 46.08 L 221.48 46.01 L 221.86 45.95 L 222.24 45.89 L 222.62 45.84 L 223 45.79 L 223.38 45.74 L 223.76 45.7 L 224.14 45.67 L 224.52 45.63 L 224.9 45.6 L 225.27 45.58 L 225.65 45.55 L 226.03 45.53 L 226.41 45.51 L 226.79 45.49 L 227.17 45.47 L 227.55 45.46 L 227.93 45.45 L 228.31 45.43 L 228.69 45.42 L 229.07 45.41 L 229.45 45.4 L 229.83 45.39 L 230.21 45.39 L 230.59 45.38 L 230.97 45.38 L 231.35 45.37 L 231.73 45.37 L 232.11 45.36 L 232.49 45.36 L 232.87 45.35 L 233.25 45.35 L 233.63 45.35 L 234.01 45.35 L 234.39 45.34 L 234.77 45.34 L 235.14 45.34 L 235.52 45.34 L 235.9 45.34 L 236.28 45.34 L 236.66 45.34 L 237.04 45.34 L 237.42 45.34 L 237.8 45.33 L 238.18 45.33 L 238.56 45.33 L 238.94 45.33 L 239.32 45.33 L 239.7 45.33 L 240.08 45.33 L 240.46 45.33 L 240.84 45.33 L 241.22 45.33 L 241.6 45.33 L 241.98 45.33 L 242.36 45.33 L 242.74 45.33 L 243.12 45.33 L 243.5 45.33 L 243.88 45.33 L 244.26 45.33 L 244.64 45.33 L 245.02 45.33 L 245.39 45.33 L 245.77 45.33 L 246.15 45.33 L 246.53 45.33 L 246.91 45.33 L 247.29 45.33 L 247.67 45.33 L 248.05 45.33 L 248.43 45.33 L 248.81 45.33 L 249.19 45.33 L 249.57 45.33 L 249.19 45.33 L 248.81 45.33 L 248.43 45.33 L 248.05 45.33 L 247.67 45.33 L 247.29 45.33 L 246.91 45.33 L 246.53 45.33 L 246.15 45.33 L 245.77 45.33 L 245.39 45.33 L 245.02 45.33 L 244.64 45.33 L 244.26 45.33 L 243.88 45.33 L 243.5 45.33 L 243.12 45.33 L 242.74 45.33 L 242.36 45.33 L 241.98 45.33 L 241.6 45.33 L 241.22 45.33 L 240.84 45.33 L 240.46 45.33 L 240.08 45.33 L 239.7 45.33 L 239.32 45.33 L 238.94 45.33 L 238.56 45.33 L 238.18 45.33 L 237.8 45.33 L 237.42 45.33 L 237.04 45.33 L 236.66 45.33 L 236.28 45.33 L 235.9 45.33 L 235.52 45.33 L 235.14 45.33 L 234.77 45.33 L 234.39 45.33 L 234.01 45.33 L 233.63 45.33 L 233.25 45.33 L 232.87 45.33 L 232.49 45.33 L 232.11 45.33 L 231.73 45.33 L 231.35 45.33 L 230.97 45.33 L 230.59 45.33 L 230.21 45.33 L 229.83 45.33 L 229.45 45.33 L 229.07 45.33 L 228.69 45.33 L 228.31 45.33 L 227.93 45.33 L 227.55 45.33 L 227.17 45.33 L 226.79 45.33 L 226.41 45.33 L 226.03 45.33 L 225.65 45.33 L 225.27 45.33 L 224.9 45.33 L 224.52 45.33 L 224.14 45.33 L 223.76 45.33 L 223.38 45.33 L 223 45.33 L 222.62 45.33 L 222.24 45.33 L 221.86 45.33 L 221.48 45.33 L 221.1 45.33 L 220.72 45.33 L 220.34 45.33 L 219.96 45.33 L 219.58 45.33 L 219.2 45.33 L 218.82 45.33 L 218.44 45.33 L 218.06 45.33 L 217.68 45.33 L 217.3 45.33 L 216.92 45.33 L 216.54 45.33 L 216.16 45.33 L 215.78 45.33 L 215.4 45.33 L 215.02 45.33 L 214.65 45.33 L 214.27 45.33 L 213.89 45.33 L 213.51 45.33 L 213.13 45.33 L 212.75 45.33 L 212.37 45.33 L 211.99 45.33 L 211.61 45.33 L 211.23 45.33 L 210.85 45.33 L 210.47 45.33 L 210.09 45.33 L 209.71 45.33 L 209.33 45.33 L 208.95 45.33 L 208.57 45.33 L 208.19 45.33 L 207.81 45.33 L 207.43 45.33 L 207.05 45.33 L 206.67 45.33 L 206.29 45.33 L 205.91 45.33 L 205.53 45.33 L 205.15 45.33 L 204.77 45.33 L 204.4 45.33 L 204.02 45.33 L 203.64 45.33 L 203.26 45.33 L 202.88 45.33 L 202.5 45.33 L 202.12 45.33 L 201.74 45.33 L 201.36 45.33 L 200.98 45.33 L 200.6 45.33 L 200.22 45.33 L 199.84 45.33 L 199.46 45.33 L 199.08 45.33 L 198.7 45.33 L 198.32 45.33 L 197.94 45.33 L 197.56 45.33 L 197.18 45.33 L 196.8 45.33 L 196.42 45.33 L 196.04 45.33 L 195.66 45.33 L 195.28 45.33 L 194.9 45.33 L 194.52 45.33 L 194.15 45.33 L 193.77 45.33 L 193.39 45.33 L 193.01 45.33 L 192.63 45.33 L 192.25 45.33 L 191.87 45.33 L 191.49 45.33 L 191.11 45.33 L 190.73 45.33 L 190.35 45.33 L 189.97 45.33 L 189.59 45.33 L 189.21 45.33 L 188.83 45.33 L 188.45 45.33 L 188.07 45.33 L 187.69 45.33 L 187.31 45.33 L 186.93 45.33 L 186.55 45.33 L 186.17 45.33 L 185.79 45.33 L 185.41 45.33 L 185.03 45.33 L 184.65 45.33 L 184.27 45.33 L 183.9 45.33 L 183.52 45.33 L 183.14 45.33 L 182.76 45.33 L 182.38 45.33 L 182 45.33 L 181.62 45.33 L 181.24 45.33 L 180.86 45.33 L 180.48 45.33 L 180.1 45.33 L 179.72 45.33 L 179.34 45.33 L 178.96 45.33 L 178.58 45.33 L 178.2 45.33 L 177.82 45.33 L 177.44 45.33 L 177.06 45.33 L 176.68 45.33 L 176.3 45.33 L 175.92 45.33 L 175.54 45.33 L 175.16 45.33 L 174.78 45.33 L 174.4 45.33 L 174.02 45.33 L 173.65 45.33 L 173.27 45.33 L 172.89 45.33 L 172.51 45.33 L 172.13 45.33 L 171.75 45.33 L 171.37 45.33 L 170.99 45.33 L 170.61 45.33 L 170.23 45.33 L 169.85 45.33 L 169.47 45.33 L 169.09 45.33 L 168.71 45.33 L 168.33 45.33 L 167.95 45.33 L 167.57 45.33 L 167.19 45.33 L 166.81 45.33 L 166.43 45.33 L 166.05 45.33 L 165.67 45.33 L 165.29 45.33 L 164.91 45.33 L 164.53 45.33 L 164.15 45.33 L 163.77 45.33 L 163.4 45.33 L 163.02 45.33 L 162.64 45.33 L 162.26 45.33 L 161.88 45.33 L 161.5 45.33 L 161.12 45.33 L 160.74 45.33 L 160.36 45.33 L 159.98 45.33 L 159.6 45.33 L 159.22 45.33 L 158.84 45.33 L 158.46 45.33 L 158.08 45.33 L 157.7 45.33 L 157.32 45.33 L 156.94 45.33 L 156.56 45.33 L 156.18 45.33 L 155.8 45.33 L 155.42 45.33 L 155.04 45.33 L 154.66 45.33 L 154.28 45.33 L 153.9 45.33 L 153.53 45.33 L 153.15 45.33 L 152.77 45.33 L 152.39 45.33 L 152.01 45.33 L 151.63 45.33 L 151.25 45.33 L 150.87 45.33 L 150.49 45.33 L 150.11 45.33 L 149.73 45.33 L 149.35 45.33 L 148.97 45.33 L 148.59 45.33 L 148.21 45.33 L 147.83 45.33 L 147.45 45.33 L 147.07 45.33 L 146.69 45.33 L 146.31 45.33 L 145.93 45.33 L 145.55 45.33 L 145.17 45.33 L 144.79 45.33 L 144.41 45.33 L 144.03 45.33 L 143.65 45.33 L 143.28 45.33 L 142.9 45.33 L 142.52 45.33 L 142.14 45.33 L 141.76 45.33 L 141.38 45.33 L 141 45.33 L 140.62 45.33 L 140.24 45.33 L 139.86 45.33 L 139.48 45.33 L 139.1 45.33 L 138.72 45.33 L 138.34 45.33 L 137.96 45.33 L 137.58 45.33 L 137.2 45.33 L 136.82 45.33 L 136.44 45.33 L 136.06 45.33 L 135.68 45.33 L 135.3 45.33 L 134.92 45.33 L 134.54 45.33 L 134.16 45.33 L 133.78 45.33 L 133.4 45.33 L 133.03 45.33 L 132.65 45.33 L 132.27 45.33 L 131.89 45.33 L 131.51 45.33 L 131.13 45.33 L 130.75 45.33 L 130.37 45.33 L 129.99 45.33 L 129.61 45.33 L 129.23 45.33 L 128.85 45.33 L 128.47 45.33 L 128.09 45.33 L 127.71 45.33 L 127.33 45.33 L 126.95 45.33 L 126.57 45.33 L 126.19 45.33 L 125.81 45.33 L 125.43 45.33 L 125.05 45.33 L 124.67 45.33 L 124.29 45.33 L 123.91 45.33 L 123.53 45.33 L 123.15 45.33 L 122.78 45.33 L 122.4 45.33 L 122.02 45.33 L 121.64 45.33 L 121.26 45.33 L 120.88 45.33 L 120.5 45.33 L 120.12 45.33 L 119.74 45.33 L 119.36 45.33 L 118.98 45.33 L 118.6 45.33 L 118.22 45.33 L 117.84 45.33 L 117.46 45.33 L 117.08 45.33 L 116.7 45.33 L 116.32 45.33 L 115.94 45.33 L 115.56 45.33 L 115.18 45.33 L 114.8 45.33 L 114.42 45.33 L 114.04 45.33 L 113.66 45.33 L 113.28 45.33 L 112.9 45.33 L 112.53 45.33 L 112.15 45.33 L 111.77 45.33 L 111.39 45.33 L 111.01 45.33 L 110.63 45.33 L 110.25 45.33 L 109.87 45.33 L 109.49 45.33 L 109.11 45.33 L 108.73 45.33 L 108.35 45.33 L 107.97 45.33 L 107.59 45.33 L 107.21 45.33 L 106.83 45.33 L 106.45 45.33 L 106.07 45.33 L 105.69 45.33 L 105.31 45.33 L 104.93 45.33 L 104.55 45.33 L 104.17 45.33 L 103.79 45.33 L 103.41 45.33 L 103.03 45.33 L 102.65 45.33 L 102.28 45.33 L 101.9 45.33 L 101.52 45.33 L 101.14 45.33 L 100.76 45.33 L 100.38 45.33 L 100 45.33 L 99.62 45.33 L 99.24 45.33 L 98.86 45.33 L 98.48 45.33 L 98.1 45.33 L 97.72 45.33 L 97.34 45.33 L 96.96 45.33 L 96.58 45.33 L 96.2 45.33 L 95.82 45.33 L 95.44 45.33 L 95.06 45.33 L 94.68 45.33 L 94.3 45.33 L 93.92 45.33 L 93.54 45.33 L 93.16 45.33 L 92.78 45.33 L 92.4 45.33 L 92.03 45.33 L 91.65 45.33 L 91.27 45.33 L 90.89 45.33 L 90.51 45.33 L 90.13 45.33 L 89.75 45.33 L 89.37 45.33 L 88.99 45.33 L 88.61 45.33 L 88.23 45.33 L 87.85 45.33 L 87.47 45.33 L 87.09 45.33 L 86.71 45.33 L 86.33 45.33 L 85.95 45.33 L 85.57 45.33 L 85.19 45.33 L 84.81 45.33 L 84.43 45.33 L 84.05 45.33 L 83.67 45.33 L 83.29 45.33 L 82.91 45.33 L 82.53 45.33 L 82.16 45.33 L 81.78 45.33 L 81.4 45.33 L 81.02 45.33 L 80.64 45.33 L 80.26 45.33 L 79.88 45.33 L 79.5 45.33 L 79.12 45.33 L 78.74 45.33 L 78.36 45.33 L 77.98 45.33 L 77.6 45.33 L 77.22 45.33 L 76.84 45.33 L 76.46 45.33 L 76.08 45.33 L 75.7 45.33 L 75.32 45.33 L 74.94 45.33 L 74.56 45.33 L 74.18 45.33 L 73.8 45.33 L 73.42 45.33 L 73.04 45.33 L 72.66 45.33 L 72.28 45.33 L 71.91 45.33 L 71.53 45.33 L 71.15 45.33 L 70.77 45.33 L 70.39 45.33 L 70.01 45.33 L 69.63 45.33 L 69.25 45.33 L 68.87 45.33 L 68.49 45.33 L 68.11 45.33 L 67.73 45.33 L 67.35 45.33 L 66.97 45.33 L 66.59 45.33 L 66.21 45.33 L 65.83 45.33 L 65.45 45.33 L 65.07 45.33 L 64.69 45.33 L 64.31 45.33 L 63.93 45.33 L 63.55 45.33 L 63.17 45.33 L 62.79 45.33 L 62.41 45.33 L 62.03 45.33 L 61.66 45.33 L 61.28 45.33 L 60.9 45.33 L 60.52 45.33 L 60.14 45.33 L 59.76 45.33 L 59.38 45.33 L 59 45.33 L 58.62 45.33 L 58.24 45.33 L 57.86 45.33 L 57.48 45.33 L 57.1 45.33 L 56.72 45.33 L 56.34 45.33 L 55.96 45.33 L 55.58 45.33 Z " fill="#bebebe"/>
<path transform="matrix(1,0,0,-1,0,337)" stroke-width="1.07" stroke-linecap="round" stroke-linejoin="round" fill="none" stroke="#000000" d="M 55.58 48.6 L 55.96 48.67 L 56.34 48.73 L 56.72 48.8 L 57.1 48.87 L 57.48 48.94 L 57.86 49.01 L 58.24 49.08 L 58.62 49.15 L 59 49.22 L 59.38 49.29 L 59.76 49.36 L 60.14 49.43 L 60.52 49.5 L 60.9 49.57 L 61.28 49.64 L 61.66 49.72 L 62.03 49.79 L 62.41 49.86 L 62.79 49.94 L 63.17 50.02 L 63.55 50.09 L 63.93 50.17 L 64.31 50.25 L 64.69 50.33 L 65.07 50.41 L 65.45 50.5 L 65.83 50.58 L 66.21 50.67 L 66.59 50.76 L 66.97 50.85 L 67.35 50.94 L 67.73 51.04 L 68.11 51.13 L 68.49 51.23 L 68.87 51.34 L 69.25 51.44 L 69.63 51.55 L 70.01 51.66 L 70.39 51.77 L 70.77 51.88 L 71.15 52 L 71.53 52.12 L 71.91 52.25 L 72.28 52.38 L 72.66 52.51 L 73.04 52.64 L 73.42 52.78 L 73.8 52.92 L 74.18 53.06 L 74.56 53.21 L 74.94 53.36 L 75.32 53.51 L 75.7 53.67 L 76.08 53.83 L 76.46 54 L 76.84 54.17 L 77.22 54.34 L 77.6 54.51 L 77.98 54.69 L 78.36 54.87 L 78.74 55.05 L 79.12 55.24 L 79.5 55.43 L 79.88 55.62 L 80.26 55.82 L 80.64 56.02 L 81.02 56.22 L 81.4 56.42 L 81.78 56.63 L 82.16 56.84 L 82.53 57.05 L 82.91 57.26 L 83.29 57.47 L 83.67 57.69 L 84.05 57.9 L 84.43 58.12 L 84.81 58.34 L 85.19 58.56 L 85.57 58.78 L 85.95 59 L 86.33 59.22 L 86.71 59.45 L 87.09 59.67 L 87.47 59.89 L 87.85 60.11 L 88.23 60.34 L 88.61 60.56 L 88.99 60.78 L 89.37 61 L 89.75 61.22 L 90.13 61.43 L 90.51 61.65 L 90.89 61.86 L 91.27 62.08 L 91.65 62.29 L 92.03 62.5 L 92.4 62.7 L 92.78 62.91 L 93.16 63.11 L 93.54 63.31 L 93.92 63.51 L 94.3 63.7 L 94.68 63.9 L 95.06 64.09 L 95.44 64.27 L 95.82 64.46 L 96.2 64.64 L 96.58 64.82 L 96.96 64.99 L 97.34 65.17 L 97.72 65.34 L 98.1 65.5 L 98.48 65.67 L 98.86 65.83 L 99.24 65.99 L 99.62 66.15 L 100 66.3 L 100.38 66.45 L 100.76 66.6 L 101.14 66.75 L 101.52 66.9 L 101.9 67.05 L 102.28 67.2 L 102.65 67.34 L 103.03 67.49 L 103.41 67.63 L 103.79 67.78 L 104.17 67.93 L 104.55 68.08 L 104.93 68.23 L 105.31 68.39 L 105.69 68.55 L 106.07 68.71 L 106.45 68.88 L 106.83 69.05 L 107.21 69.23 L 107.59 69.41 L 107.97 69.6 L 108.35 69.81 L 108.73 70.02 L 109.11 70.24 L 109.49 70.48 L 109.87 70.72 L 110.25 70.98 L 110.63 71.25 L 111.01 71.54 L 111.39 71.84 L 111.77 72.17 L 112.15 72.5 L 112.53 72.86 L 112.9 73.25 L 113.28 73.65 L 113.66 74.08 L 114.04 74.53 L 114.42 75 L 114.8 75.51 L 115.18 76.04 L 115.56 76.6 L 115.94 77.2 L 116.32 77.82 L 116.7 78.47 L 117.08 79.17 L 117.46 79.9 L 117.84 80.66 L 118.22 81.47 L 118.6 82.31 L 118.98 83.19 L 119.36 84.12 L 119.74 85.09 L 120.12 86.1 L 120.5 87.16 L 120.88 88.25 L 121.26 89.4 L 121.64 90.6 L 122.02 91.83 L 122.4 93.12 L 122.78 94.46 L 123.15 95.84 L 123.53 97.29 L 123.91 98.77 L 124.29 100.3 L 124.67 101.9 L 125.05 103.53 L 125.43 105.21 L 125.81 106.96 L 126.19 108.74 L 126.57 110.57 L 126.95 112.47 L 127.33 114.4 L 127.71 116.38 L 128.09 118.41 L 128.47 120.48 L 128.85 122.6 L 129.23 124.77 L 129.61 126.97 L 129.99 129.22 L 130.37 131.51 L 130.75 133.82 L 131.13 136.19 L 131.51 138.59 L 131.89 141.01 L 132.27 143.48 L 132.65 145.97 L 133.03 148.48 L 133.4 151.03 L 133.78 153.6 L 134.16 156.18 L 134.54 158.79 L 134.92 161.41 L 135.3 164.04 L 135.68 166.68 L 136.06 169.34 L 136.44 172 L 136.82 174.66 L 137.2 177.32 L 137.58 179.99 L 137.96 182.64 L 138.34 185.3 L 138.72 187.94 L 139.1 190.57 L 139.48 193.19 L 139.86 195.79 L 140.24 198.38 L 140.62 200.95 L 141 203.49 L 141.38 206.01 L 141.76 208.51 L 142.14 210.97 L 142.52 213.41 L 142.9 215.82 L 143.28 218.19 L 143.65 220.54 L 144.03 222.85 L 144.41 225.12 L 144.79 227.36 L 145.17 229.56 L 145.55 231.72 L 145.93 233.86 L 146.31 235.95 L 146.69 238 L 147.07 240.03 L 147.45 242 L 147.83 243.94 L 148.21 245.86 L 148.59 247.72 L 148.97 249.56 L 149.35 251.37 L 149.73 253.14 L 150.11 254.88 L 150.49 256.59 L 150.87 258.27 L 151.25 259.92 L 151.63 261.55 L 152.01 263.15 L 152.39 264.73 L 152.77 266.29 L 153.15 267.82 L 153.53 269.34 L 153.9 270.84 L 154.28 272.32 L 154.66 273.79 L 155.04 275.24 L 155.42 276.68 L 155.8 278.11 L 156.18 279.53 L 156.56 280.94 L 156.94 282.34 L 157.32 283.73 L 157.7 285.12 L 158.08 286.5 L 158.46 287.87 L 158.84 289.24 L 159.22 290.59 L 159.6 291.94 L 159.98 293.28 L 160.36 294.62 L 160.74 295.93 L 161.12 297.25 L 161.5 298.54 L 161.88 299.82 L 162.26 301.09 L 162.64 302.33 L 163.02 303.55 L 163.4 304.75 L 163.77 305.92 L 164.15 307.06 L 164.53 308.18 L 164.91 309.24 L 165.29 310.28 L 165.67 311.28 L 166.05 312.21 L 166.43 313.1 L 166.81 313.95 L 167.19 314.71 L 167.57 315.43 L 167.95 316.08 L 168.33 316.65 L 168.71 317.16 L 169.09 317.58 L 169.47 317.9 L 169.85 318.17 L 170.23 318.32 L 170.61 318.37 L 170.99 318.35 L 171.37 318.2 L 171.75 317.94 L 172.13 317.61 L 172.51 317.12 L 172.89 316.53 L 173.27 315.86 L 173.65 315 L 174.02 314.06 L 174.4 313.01 L 174.78 311.78 L 175.16 310.47 L 175.54 309.02 L 175.92 307.42 L 176.3 305.72 L 176.68 303.88 L 177.06 301.9 L 177.44 299.82 L 177.82 297.59 L 178.2 295.23 L 178.58 292.77 L 178.96 290.16 L 179.34 287.44 L 179.72 284.64 L 180.1 281.67 L 180.48 278.61 L 180.86 275.47 L 181.24 272.18 L 181.62 268.82 L 182 265.38 L 182.38 261.81 L 182.76 258.18 L 183.14 254.48 L 183.52 250.67 L 183.9 246.82 L 184.27 242.9 L 184.65 238.92 L 185.03 234.89 L 185.41 230.81 L 185.79 226.69 L 186.17 222.54 L 186.55 218.35 L 186.93 214.14 L 187.31 209.92 L 187.69 205.69 L 188.07 201.45 L 188.45 197.21 L 188.83 192.98 L 189.21 188.75 L 189.59 184.54 L 189.97 180.37 L 190.35 176.21 L 190.73 172.08 L 191.11 168.01 L 191.49 163.96 L 191.87 159.96 L 192.25 156.02 L 192.63 152.12 L 193.01 148.28 L 193.39 144.52 L 193.77 140.8 L 194.15 137.16 L 194.52 133.6 L 194.9 130.09 L 195.28 126.67 L 195.66 123.33 L 196.04 120.05 L 196.42 116.88 L 196.8 113.78 L 197.18 110.73 L 197.56 107.82 L 197.94 104.97 L 198.32 102.18 L 198.7 99.52 L 199.08 96.92 L 199.46 94.4 L 199.84 91.99 L 200.22 89.64 L 200.6 87.38 L 200.98 85.22 L 201.36 83.12 L 201.74 81.11 L 202.12 79.19 L 202.5 77.32 L 202.88 75.56 L 203.26 73.86 L 203.64 72.22 L 204.02 70.68 L 204.4 69.2 L 204.77 67.77 L 205.15 66.44 L 205.53 65.15 L 205.91 63.92 L 206.29 62.78 L 206.67 61.67 L 207.05 60.62 L 207.43 59.65 L 207.81 58.71 L 208.19 57.82 L 208.57 56.99 L 208.95 56.2 L 209.33 55.46 L 209.71 54.76 L 210.09 54.1 L 210.47 53.48 L 210.85 52.9 L 211.23 52.35 L 211.61 51.84 L 211.99 51.36 L 212.37 50.91 L 212.75 50.49 L 213.13 50.1 L 213.51 49.73 L 213.89 49.39 L 214.27 49.08 L 214.65 48.78 L 215.02 48.51 L 215.4 48.25 L 215.78 48.01 L 216.16 47.79 L 216.54 47.59 L 216.92 47.4 L 217.3 47.23 L 217.68 47.06 L 218.06 46.92 L 218.44 46.78 L 218.82 46.65 L 219.2 46.54 L 219.58 46.43 L 219.96 46.33 L 220.34 46.24 L 220.72 46.16 L 221.1 46.08 L 221.48 46.01 L 221.86 45.95 L 222.24 45.89 L 222.62 45.84 L 223 45.79 L 223.38 45.74 L 223.76 45.7 L 224.14 45.67 L 224.52 45.63 L 224.9 45.6 L 225.27 45.58 L 225.65 45.55 L 226.03 45.53 L 226.41 45.51 L 226.79 45.49 L 227.17 45.47 L 227.55 45.46 L 227.93 45.45 L 228.31 45.43 L 228.69 45.42 L 229.07 45.41 L 229.45 45.4 L 229.83 45.39 L 230.21 45.39 L 230.59 45.38 L 230.97 45.38 L 231.35 45.37 L 231.73 45.37 L 232.11 45.36 L 232.49 45.36 L 232.87 45.35 L 233.25 45.35 L 233.63 45.35 L 234.01 45.35 L 234.39 45.34 L 234.77 45.34 L 235.14 45.34 L 235.52 45.34 L 235.9 45.34 L 236.28 45.34 L 236.66 45.34 L 237.04 45.34 L 237.42 45.34 L 237.8 45.33 L 238.18 45.33 L 238.56 45.33 L 238.94 45.33 L 239.32 45.33 L 239.7 45.33 L 240.08 45.33 L 240.46 45.33 L 240.84 45.33 L 241.22 45.33 L 241.6 45.33 L 241.98 45.33 L 242.36 45.33 L 242.74 45.33 L 243.12 45.33 L 243.5 45.33 L 243.88 45.33 L 244.26 45.33 L 244.64 45.33 L 245.02 45.33 L 245.39 45.33 L 245.77 45.33 L 246.15 45.33 L 246.53 45.33 L 246.91 45.33 L 247.29 45.33 L 247.67 45.33 L 248.05 45.33 L 248.43 45.33 L 248.81 45.33 L 249.19 45.33 L 249.57 45.33 "/>
<path transform="matrix(1,0,0,-1,0,337)" stroke-width="1.07" stroke-linecap="butt" stroke-linejoin="round" fill="none" stroke="#000000" d="M 166.1 31.68 L 166.1 332.02 "/>
<path transform="matrix(1,0,0,-1,0,337)" stroke-width="1.07" stroke-linecap="round" stroke-linejoin="round" fill="none" stroke="#333333" d="M 45.88 31.68 L 259.27 31.68 L 259.27 332.02 L 45.88 332.02 Z "/>
</g>
<text fill="#4d4d4d" xml:space="preserve" transform="matrix(1 0 -0 1 0 337)" font-size="9" font-family="Helvetica"><tspan y="-42.1" x="18.43 23.434002 25.936003 30.940003 35.944005">0.000</tspan></text>
<text fill="#4d4d4d" xml:space="preserve" transform="matrix(1 0 -0 1 0 337)" font-size="9" font-family="Helvetica"><tspan y="-120.37" x="18.43 23.434002 25.936003 30.940003 35.944005">0.001</tspan></text>
<text fill="#4d4d4d" xml:space="preserve" transform="matrix(1 0 -0 1 0 337)" font-size="9" font-family="Helvetica"><tspan y="-198.65" x="18.43 23.434002 25.936003 30.940003 35.944005">0.002</tspan></text>
<text fill="#4d4d4d" xml:space="preserve" transform="matrix(1 0 -0 1 0 337)" font-size="9" font-family="Helvetica"><tspan y="-276.92" x="18.43 23.434002 25.936003 30.940003 35.944005">0.003</tspan></text>
<path transform="matrix(1,0,0,-1,0,337)" stroke-width="1.07" stroke-linecap="butt" stroke-linejoin="round" fill="none" stroke="#333333" d="M 43.14 45.33 L 45.88 45.33 "/>
<path transform="matrix(1,0,0,-1,0,337)" stroke-width="1.07" stroke-linecap="butt" stroke-linejoin="round" fill="none" stroke="#333333" d="M 43.14 123.6 L 45.88 123.6 "/>
<path transform="matrix(1,0,0,-1,0,337)" stroke-width="1.07" stroke-linecap="butt" stroke-linejoin="round" fill="none" stroke="#333333" d="M 43.14 201.88 L 45.88 201.88 "/>
<path transform="matrix(1,0,0,-1,0,337)" stroke-width="1.07" stroke-linecap="butt" stroke-linejoin="round" fill="none" stroke="#333333" d="M 43.14 280.15 L 45.88 280.15 "/>
<path transform="matrix(1,0,0,-1,0,337)" stroke-width="1.07" stroke-linecap="butt" stroke-linejoin="round" fill="none" stroke="#333333" d="M 55.58 28.94 L 55.58 31.68 "/>
<path transform="matrix(1,0,0,-1,0,337)" stroke-width="1.07" stroke-linecap="butt" stroke-linejoin="round" fill="none" stroke="#333333" d="M 104.08 28.94 L 104.08 31.68 "/>
<path transform="matrix(1,0,0,-1,0,337)" stroke-width="1.07" stroke-linecap="butt" stroke-linejoin="round" fill="none" stroke="#333333" d="M 152.58 28.94 L 152.58 31.68 "/>
<path transform="matrix(1,0,0,-1,0,337)" stroke-width="1.07" stroke-linecap="butt" stroke-linejoin="round" fill="none" stroke="#333333" d="M 201.07 28.94 L 201.07 31.68 "/>
<path transform="matrix(1,0,0,-1,0,337)" stroke-width="1.07" stroke-linecap="butt" stroke-linejoin="round" fill="none" stroke="#333333" d="M 249.57 28.94 L 249.57 31.68 "/>
<text fill="#4d4d4d" xml:space="preserve" transform="matrix(1 0 -0 1 0 337)" font-size="9" font-family="Helvetica"><tspan y="-20.28" x="53.08">0</tspan></text>
<text fill="#4d4d4d" xml:space="preserve" transform="matrix(1 0 -0 1 0 337)" font-size="9" font-family="Helvetica"><tspan y="-20.28" x="96.57 101.574 106.577999">250</tspan></text>
<text fill="#4d4d4d" xml:space="preserve" transform="matrix(1 0 -0 1 0 337)" font-size="9" font-family="Helvetica"><tspan y="-20.28" x="145.07 150.074 155.078">500</tspan></text>
<text fill="#4d4d4d" xml:space="preserve" transform="matrix(1 0 -0 1 0 337)" font-size="9" font-family="Helvetica"><tspan y="-20.28" x="193.57 198.574 203.578">750</tspan></text>
<text fill="#4d4d4d" xml:space="preserve" transform="matrix(1 0 -0 1 0 337)" font-size="9" font-family="Helvetica"><tspan y="-20.28" x="239.56 244.564 249.568 254.57199">1000</tspan></text>
<text xml:space="preserve" transform="matrix(1 0 -0 1 0 337)" font-size="11" font-family="Helvetica"><tspan y="-7.79" x="149.52">d</tspan></text>
<text xml:space="preserve" transform="matrix(0 -1 1 0 0 337)" font-size="11" font-family="Helvetica"><tspan y="13.38" x="164.43 170.54599 176.66199 182.77799 188.27799 190.71999 193.77799">density</tspan></text>
</g>
</svg>
