<?xml version="1.0" encoding="UTF-8" standalone="no"?>
<svg
   xmlns:dc="http://purl.org/dc/elements/1.1/"
   xmlns:cc="http://creativecommons.org/ns#"
   xmlns:rdf="http://www.w3.org/1999/02/22-rdf-syntax-ns#"
   xmlns:svg="http://www.w3.org/2000/svg"
   xmlns="http://www.w3.org/2000/svg"
   viewBox="0 0 352 449.33334"
   height="449.33334"
   width="352"
   xml:space="preserve"
   id="svg2"
   version="1.1"><metadata
     id="metadata8"><rdf:RDF><cc:Work
         rdf:about=""><dc:format>image/svg+xml</dc:format><dc:type
           rdf:resource="http://purl.org/dc/dcmitype/StillImage" /></cc:Work></rdf:RDF></metadata><defs
     id="defs6"><clipPath
       id="clipPath42"
       clipPathUnits="userSpaceOnUse"><path
         id="path40"
         d="M 45.88,31.68 H 259.27 V 332.02 H 45.88 Z" /></clipPath></defs><g
     transform="matrix(1.3333333,0,0,-1.3333333,0,449.33333)"
     id="g10"><g
       id="g12" /><g
       id="g14" /><g
       id="g16" /><g
       id="g18" /><g
       id="g20" /><g
       id="g22" /><g
       id="g24" /><g
       id="g26" /><g
       id="g28" /><g
       id="g30"><path
         id="path32"
         style="fill:#ffffff;fill-opacity:1;fill-rule:nonzero;stroke:#ffffff;stroke-width:1.07000005;stroke-linecap:round;stroke-linejoin:round;stroke-miterlimit:10;stroke-dasharray:none;stroke-opacity:1"
         d="M 0,0 H 264.75 V 337.5 H 0 Z" /></g><g
       id="g34" /><g
       id="g36"><g
         clip-path="url(#clipPath42)"
         id="g38"><path
           id="path44"
           style="fill:#ffffff;fill-opacity:1;fill-rule:nonzero;stroke:none"
           d="M 45.88,31.68 H 259.27 V 332.02 H 45.88 Z" /><path
           id="path46"
           style="fill:none;stroke:#ebebeb;stroke-width:0.52999997;stroke-linecap:butt;stroke-linejoin:round;stroke-miterlimit:10;stroke-dasharray:none;stroke-opacity:1"
           d="M 45.88,84.47 H 259.27" /><path
           id="path48"
           style="fill:none;stroke:#ebebeb;stroke-width:0.52999997;stroke-linecap:butt;stroke-linejoin:round;stroke-miterlimit:10;stroke-dasharray:none;stroke-opacity:1"
           d="M 45.88,162.74 H 259.27" /><path
           id="path50"
           style="fill:none;stroke:#ebebeb;stroke-width:0.52999997;stroke-linecap:butt;stroke-linejoin:round;stroke-miterlimit:10;stroke-dasharray:none;stroke-opacity:1"
           d="M 45.88,241.02 H 259.27" /><path
           id="path52"
           style="fill:none;stroke:#ebebeb;stroke-width:0.52999997;stroke-linecap:butt;stroke-linejoin:round;stroke-miterlimit:10;stroke-dasharray:none;stroke-opacity:1"
           d="M 45.88,319.29 H 259.27" /><path
           id="path54"
           style="fill:none;stroke:#ebebeb;stroke-width:0.52999997;stroke-linecap:butt;stroke-linejoin:round;stroke-miterlimit:10;stroke-dasharray:none;stroke-opacity:1"
           d="M 79.83,31.68 V 332.02" /><path
           id="path56"
           style="fill:none;stroke:#ebebeb;stroke-width:0.52999997;stroke-linecap:butt;stroke-linejoin:round;stroke-miterlimit:10;stroke-dasharray:none;stroke-opacity:1"
           d="M 128.33,31.68 V 332.02" /><path
           id="path58"
           style="fill:none;stroke:#ebebeb;stroke-width:0.52999997;stroke-linecap:butt;stroke-linejoin:round;stroke-miterlimit:10;stroke-dasharray:none;stroke-opacity:1"
           d="M 176.82,31.68 V 332.02" /><path
           id="path60"
           style="fill:none;stroke:#ebebeb;stroke-width:0.52999997;stroke-linecap:butt;stroke-linejoin:round;stroke-miterlimit:10;stroke-dasharray:none;stroke-opacity:1"
           d="M 225.32,31.68 V 332.02" /><path
           id="path62"
           style="fill:none;stroke:#ebebeb;stroke-width:1.07000005;stroke-linecap:butt;stroke-linejoin:round;stroke-miterlimit:10;stroke-dasharray:none;stroke-opacity:1"
           d="M 45.88,45.33 H 259.27" /><path
           id="path64"
           style="fill:none;stroke:#ebebeb;stroke-width:1.07000005;stroke-linecap:butt;stroke-linejoin:round;stroke-miterlimit:10;stroke-dasharray:none;stroke-opacity:1"
           d="M 45.88,123.6 H 259.27" /><path
           id="path66"
           style="fill:none;stroke:#ebebeb;stroke-width:1.07000005;stroke-linecap:butt;stroke-linejoin:round;stroke-miterlimit:10;stroke-dasharray:none;stroke-opacity:1"
           d="M 45.88,201.88 H 259.27" /><path
           id="path68"
           style="fill:none;stroke:#ebebeb;stroke-width:1.07000005;stroke-linecap:butt;stroke-linejoin:round;stroke-miterlimit:10;stroke-dasharray:none;stroke-opacity:1"
           d="M 45.88,280.15 H 259.27" /><path
           id="path70"
           style="fill:none;stroke:#ebebeb;stroke-width:1.07000005;stroke-linecap:butt;stroke-linejoin:round;stroke-miterlimit:10;stroke-dasharray:none;stroke-opacity:1"
           d="M 55.58,31.68 V 332.02" /><path
           id="path72"
           style="fill:none;stroke:#ebebeb;stroke-width:1.07000005;stroke-linecap:butt;stroke-linejoin:round;stroke-miterlimit:10;stroke-dasharray:none;stroke-opacity:1"
           d="M 104.08,31.68 V 332.02" /><path
           id="path74"
           style="fill:none;stroke:#ebebeb;stroke-width:1.07000005;stroke-linecap:butt;stroke-linejoin:round;stroke-miterlimit:10;stroke-dasharray:none;stroke-opacity:1"
           d="M 152.58,31.68 V 332.02" /><path
           id="path76"
           style="fill:none;stroke:#ebebeb;stroke-width:1.07000005;stroke-linecap:butt;stroke-linejoin:round;stroke-miterlimit:10;stroke-dasharray:none;stroke-opacity:1"
           d="M 201.07,31.68 V 332.02" /><path
           id="path78"
           style="fill:none;stroke:#ebebeb;stroke-width:1.07000005;stroke-linecap:butt;stroke-linejoin:round;stroke-miterlimit:10;stroke-dasharray:none;stroke-opacity:1"
           d="M 249.57,31.68 V 332.02" /><path
           id="path80"
           style="fill:#bebebe;fill-opacity:1;fill-rule:nonzero;stroke:none"
           d="m 55.58,48.6 0.38,0.07 0.38,0.06 0.38,0.07 0.38,0.07 0.38,0.07 0.38,0.07 0.38,0.07 0.38,0.07 0.38,0.07 0.38,0.07 0.38,0.07 0.38,0.07 0.38,0.07 0.38,0.07 0.38,0.07 0.38,0.08 0.37,0.07 0.38,0.07 0.38,0.08 0.38,0.08 0.38,0.07 0.38,0.08 0.38,0.08 0.38,0.08 0.38,0.08 0.38,0.09 0.38,0.08 0.38,0.09 0.38,0.09 0.38,0.09 0.38,0.09 0.38,0.1 0.38,0.09 0.38,0.1 0.38,0.11 0.38,0.1 0.38,0.11 0.38,0.11 0.38,0.11 0.38,0.11 0.38,0.12 0.38,0.12 0.38,0.13 0.37,0.13 0.38,0.13 0.38,0.13 0.38,0.14 0.38,0.14 0.38,0.14 0.38,0.15 0.38,0.15 0.38,0.15 0.38,0.16 0.38,0.16 0.38,0.17 0.38,0.17 0.38,0.17 0.38,0.17 0.38,0.18 0.38,0.18 0.38,0.18 0.38,0.19 0.38,0.19 0.38,0.19 0.38,0.2 0.38,0.2 0.38,0.2 0.38,0.2 0.38,0.21 0.38,0.21 0.37,0.21 0.38,0.21 0.38,0.21 0.38,0.22 0.38,0.21 0.38,0.22 0.38,0.22 0.38,0.22 0.38,0.22 0.38,0.22 0.38,0.22 0.38,0.23 0.38,0.22 0.38,0.22 0.38,0.22 0.38,0.23 0.38,0.22 0.38,0.22 0.38,0.22 0.38,0.22 0.38,0.21 0.38,0.22 0.38,0.21 0.38,0.22 0.38,0.21 0.38,0.21 0.37,0.2 0.38,0.21 0.38,0.2 0.38,0.2 0.38,0.2 0.38,0.19 0.38,0.2 0.38,0.19 0.38,0.18 0.38,0.19 0.38,0.18 0.38,0.18 0.38,0.17 0.38,0.18 0.38,0.17 0.38,0.16 0.38,0.17 0.38,0.16 0.38,0.16 0.38,0.16 0.38,0.15 0.38,0.15 0.38,0.15 0.38,0.15 0.38,0.15 0.38,0.15 0.38,0.15 0.37,0.14 0.38,0.15 0.38,0.14 0.38,0.15 0.38,0.15 0.38,0.15 0.38,0.15 0.38,0.16 0.38,0.16 0.38,0.16 0.38,0.17 0.38,0.17 0.38,0.18 0.38,0.18 0.38,0.19 0.38,0.21 0.38,0.21 0.38,0.22 0.38,0.24 0.38,0.24 0.38,0.26 0.38,0.27 0.38,0.29 0.38,0.3 0.38,0.33 0.38,0.33 0.38,0.36 0.37,0.39 0.38,0.4 0.38,0.43 0.38,0.45 0.38,0.47 0.38,0.51 0.38,0.53 0.38,0.56 0.38,0.6 0.38,0.62 0.38,0.65 0.38,0.7 0.38,0.73 0.38,0.76 0.38,0.81 0.38,0.84 0.38,0.88 0.38,0.93 0.38,0.97 0.38,1.01 0.38,1.06 0.38,1.09 0.38,1.15 0.38,1.2 0.38,1.23 0.38,1.29 0.38,1.34 0.37,1.38 0.38,1.45 0.38,1.48 0.38,1.53 0.38,1.6 0.38,1.63 0.38,1.68 0.38,1.75 0.38,1.78 0.38,1.83 0.38,1.9 0.38,1.93 0.38,1.98 0.38,2.03 0.38,2.07 0.38,2.12 0.38,2.17 0.38,2.2 0.38,2.25 0.38,2.29 0.38,2.31 0.38,2.37 0.38,2.4 0.38,2.42 0.38,2.47 0.38,2.49 0.38,2.51 0.37,2.55 0.38,2.57 0.38,2.58 0.38,2.61 0.38,2.62 0.38,2.63 0.38,2.64 0.38,2.66 0.38,2.66 0.38,2.66 0.38,2.66 0.38,2.67 0.38,2.65 0.38,2.66 0.38,2.64 0.38,2.63 0.38,2.62 0.38,2.6 0.38,2.59 0.38,2.57 0.38,2.54 0.38,2.52 0.38,2.5 0.38,2.46 0.38,2.44 0.38,2.41 0.38,2.37 0.37,2.35 0.38,2.31 0.38,2.27 0.38,2.24 0.38,2.2 0.38,2.16 0.38,2.14 0.38,2.09 0.38,2.05 0.38,2.03 0.38,1.97 0.38,1.94 0.38,1.92 0.38,1.86 0.38,1.84 0.38,1.81 0.38,1.77 0.38,1.74 0.38,1.71 0.38,1.68 0.38,1.65 0.38,1.63 0.38,1.6 0.38,1.58 0.38,1.56 0.38,1.53 0.38,1.52 0.37,1.5 0.38,1.48 0.38,1.47 0.38,1.45 0.38,1.44 0.38,1.43 0.38,1.42 0.38,1.41 0.38,1.4 0.38,1.39 0.38,1.39 0.38,1.38 0.38,1.37 0.38,1.37 0.38,1.35 0.38,1.35 0.38,1.34 0.38,1.34 0.38,1.31 0.38,1.32 0.38,1.29 0.38,1.28 0.38,1.27 0.38,1.24 0.38,1.22 0.38,1.2 0.37,1.17 0.38,1.14 0.38,1.12 0.38,1.06 0.38,1.04 0.38,1 0.38,0.93 0.38,0.89 0.38,0.85 0.38,0.76 0.38,0.72 0.38,0.65 0.38,0.57 0.38,0.51 0.38,0.42 0.38,0.32 0.38,0.27 0.38,0.15 0.38,0.05 0.38,-0.02 0.38,-0.15 0.38,-0.26 0.38,-0.33 0.38,-0.49 0.38,-0.59 0.38,-0.67 0.38,-0.86 0.37,-0.94 0.38,-1.05 0.38,-1.23 0.38,-1.31 0.38,-1.45 0.38,-1.6 0.38,-1.7 0.38,-1.84 0.38,-1.98 0.38,-2.08 0.38,-2.23 0.38,-2.36 0.38,-2.46 0.38,-2.61 0.38,-2.72 0.38,-2.8 0.38,-2.97 0.38,-3.06 0.38,-3.14 0.38,-3.29 0.38,-3.36 0.38,-3.44 0.38,-3.57 0.38,-3.63 0.38,-3.7 0.38,-3.81 0.38,-3.85 0.37,-3.92 0.38,-3.98 0.38,-4.03 0.38,-4.08 0.38,-4.12 0.38,-4.15 0.38,-4.19 0.38,-4.21 0.38,-4.22 0.38,-4.23 0.38,-4.24 0.38,-4.24 0.38,-4.23 0.38,-4.23 0.38,-4.21 0.38,-4.17 0.38,-4.16 0.38,-4.13 0.38,-4.07 0.38,-4.05 0.38,-4 0.38,-3.94 0.38,-3.9 0.38,-3.84 0.38,-3.76 0.38,-3.72 0.38,-3.64 0.37,-3.56 0.38,-3.51 0.38,-3.42 0.38,-3.34 0.38,-3.28 0.38,-3.17 0.38,-3.1 0.38,-3.05 0.38,-2.91 0.38,-2.85 0.38,-2.79 0.38,-2.66 0.38,-2.6 0.38,-2.52 0.38,-2.41 0.38,-2.35 0.38,-2.26 0.38,-2.16 0.38,-2.1 0.38,-2.01 0.38,-1.92 0.38,-1.87 0.38,-1.76 0.38,-1.7 0.38,-1.64 0.38,-1.54 0.38,-1.48 0.37,-1.43 0.38,-1.33 0.38,-1.29 0.38,-1.23 0.38,-1.14 0.38,-1.11 0.38,-1.05 0.38,-0.97 0.38,-0.94 0.38,-0.89 0.38,-0.83 0.38,-0.79 0.38,-0.74 0.38,-0.7 0.38,-0.66 0.38,-0.62 0.38,-0.58 0.38,-0.55 0.38,-0.51 0.38,-0.48 0.38,-0.45 0.38,-0.42 0.38,-0.39 0.38,-0.37 0.38,-0.34 0.38,-0.31 0.38,-0.3 0.37,-0.27 0.38,-0.26 0.38,-0.24 0.38,-0.22 0.38,-0.2 0.38,-0.19 0.38,-0.17 0.38,-0.17 0.38,-0.14 0.38,-0.14 0.38,-0.13 0.38,-0.11 0.38,-0.11 0.38,-0.1 0.38,-0.09 0.38,-0.08 0.38,-0.08 0.38,-0.07 0.38,-0.06 0.38,-0.06 0.38,-0.05 0.38,-0.05 0.38,-0.05 0.38,-0.04 0.38,-0.03 0.38,-0.04 0.38,-0.03 0.37,-0.02 0.38,-0.03 0.38,-0.02 0.38,-0.02 0.38,-0.02 0.38,-0.02 0.38,-0.01 0.38,-0.01 0.38,-0.02 0.38,-0.01 0.38,-0.01 0.38,-0.01 0.38,-0.01 h 0.38 l 0.38,-0.01 h 0.38 l 0.38,-0.01 h 0.38 l 0.38,-0.01 h 0.38 l 0.38,-0.01 h 0.38 0.38 0.38 l 0.38,-0.01 h 0.38 0.37 0.38 0.38 0.38 0.38 0.38 0.38 l 0.38,-0.01 h 0.38 0.38 0.38 0.38 0.38 0.38 0.38 0.38 0.38 0.38 0.38 0.38 0.38 0.38 0.38 0.38 0.38 0.38 0.38 0.37 0.38 0.38 0.38 0.38 0.38 0.38 0.38 0.38 0.38 0.38 0.38 v 0 h -0.38 -0.38 -0.38 -0.38 -0.38 -0.38 -0.38 -0.38 -0.38 -0.38 -0.38 -0.37 -0.38 -0.38 -0.38 -0.38 -0.38 -0.38 -0.38 -0.38 -0.38 -0.38 -0.38 -0.38 -0.38 -0.38 -0.38 -0.38 -0.38 -0.38 -0.38 -0.38 -0.38 -0.38 -0.38 -0.38 -0.38 -0.38 -0.37 -0.38 -0.38 -0.38 -0.38 -0.38 -0.38 -0.38 -0.38 -0.38 -0.38 -0.38 -0.38 -0.38 -0.38 -0.38 -0.38 -0.38 -0.38 -0.38 -0.38 -0.38 -0.38 -0.38 -0.38 -0.38 -0.37 -0.38 -0.38 -0.38 -0.38 -0.38 -0.38 -0.38 -0.38 -0.38 -0.38 -0.38 -0.38 -0.38 -0.38 -0.38 -0.38 -0.38 -0.38 -0.38 -0.38 -0.38 -0.38 -0.38 -0.38 -0.38 -0.38 -0.37 -0.38 -0.38 -0.38 -0.38 -0.38 -0.38 -0.38 -0.38 -0.38 -0.38 -0.38 -0.38 -0.38 -0.38 -0.38 -0.38 -0.38 -0.38 -0.38 -0.38 -0.38 -0.38 -0.38 -0.38 -0.38 -0.38 -0.37 -0.38 -0.38 -0.38 -0.38 -0.38 -0.38 -0.38 -0.38 -0.38 -0.38 -0.38 -0.38 -0.38 -0.38 -0.38 -0.38 -0.38 -0.38 -0.38 -0.38 -0.38 -0.38 -0.38 -0.38 -0.38 -0.38 -0.37 -0.38 -0.38 -0.38 -0.38 -0.38 -0.38 -0.38 -0.38 -0.38 -0.38 -0.38 -0.38 -0.38 -0.38 -0.38 -0.38 -0.38 -0.38 -0.38 -0.38 -0.38 -0.38 -0.38 -0.38 -0.38 -0.38 -0.37 -0.38 -0.38 -0.38 -0.38 -0.38 -0.38 -0.38 -0.38 -0.38 -0.38 -0.38 -0.38 -0.38 -0.38 -0.38 -0.38 -0.38 -0.38 -0.38 -0.38 -0.38 -0.38 -0.38 -0.38 -0.38 -0.38 -0.37 -0.38 -0.38 -0.38 -0.38 -0.38 -0.38 -0.38 -0.38 -0.38 -0.38 -0.38 -0.38 -0.38 -0.38 -0.38 -0.38 -0.38 -0.38 -0.38 -0.38 -0.38 -0.38 -0.38 -0.38 -0.38 -0.38 -0.37 -0.38 -0.38 -0.38 -0.38 -0.38 -0.38 -0.38 -0.38 -0.38 -0.38 -0.38 -0.38 -0.38 -0.38 -0.38 -0.38 -0.38 -0.38 -0.38 -0.38 -0.38 -0.38 -0.38 -0.38 -0.38 -0.37 -0.38 -0.38 -0.38 -0.38 -0.38 -0.38 -0.38 -0.38 -0.38 -0.38 -0.38 -0.38 -0.38 -0.38 -0.38 -0.38 -0.38 -0.38 -0.38 -0.38 -0.38 -0.38 -0.38 -0.38 -0.38 -0.38 -0.37 -0.38 -0.38 -0.38 -0.38 -0.38 -0.38 -0.38 -0.38 -0.38 -0.38 -0.38 -0.38 -0.38 -0.38 -0.38 -0.38 -0.38 -0.38 -0.38 -0.38 -0.38 -0.38 -0.38 -0.38 -0.38 -0.38 -0.37 -0.38 -0.38 -0.38 -0.38 -0.38 -0.38 -0.38 -0.38 -0.38 -0.38 -0.38 -0.38 -0.38 -0.38 -0.38 -0.38 -0.38 -0.38 -0.38 -0.38 -0.38 -0.38 -0.38 -0.38 -0.38 -0.38 -0.37 -0.38 -0.38 -0.38 -0.38 -0.38 -0.38 -0.38 -0.38 -0.38 -0.38 -0.38 -0.38 -0.38 -0.38 -0.38 -0.38 -0.38 -0.38 -0.38 -0.38 -0.38 -0.38 -0.38 -0.38 -0.38 -0.38 -0.37 -0.38 -0.38 -0.38 -0.38 -0.38 -0.38 -0.38 -0.38 -0.38 -0.38 -0.38 -0.38 -0.38 -0.38 -0.38 -0.38 -0.38 -0.38 -0.38 -0.38 -0.38 -0.38 -0.38 -0.38 -0.38 -0.38 -0.37 -0.38 -0.38 -0.38 -0.38 -0.38 H 100 99.62 99.24 98.86 98.48 98.1 97.72 97.34 96.96 96.58 96.2 95.82 95.44 95.06 94.68 94.3 93.92 93.54 93.16 92.78 92.4 92.03 91.65 91.27 90.89 90.51 90.13 89.75 89.37 88.99 88.61 88.23 87.85 87.47 87.09 86.71 86.33 85.95 85.57 85.19 84.81 84.43 84.05 83.67 83.29 82.91 82.53 82.16 81.78 81.4 81.02 80.64 80.26 79.88 79.5 79.12 78.74 78.36 77.98 77.6 77.22 76.84 76.46 76.08 75.7 75.32 74.94 74.56 74.18 73.8 73.42 73.04 72.66 72.28 71.91 71.53 71.15 70.77 70.39 70.01 69.63 69.25 68.87 68.49 68.11 67.73 67.35 66.97 66.59 66.21 65.83 65.45 65.07 64.69 64.31 63.93 63.55 63.17 62.79 62.41 62.03 61.66 61.28 60.9 60.52 60.14 59.76 59.38 59 58.62 58.24 57.86 57.48 57.1 56.72 56.34 55.96 55.58 Z" /><path
           id="path82"
           style="fill:none;stroke:#000000;stroke-width:1.07000005;stroke-linecap:round;stroke-linejoin:round;stroke-miterlimit:10;stroke-dasharray:none;stroke-opacity:1"
           d="m 55.58,48.6 0.38,0.07 0.38,0.06 0.38,0.07 0.38,0.07 0.38,0.07 0.38,0.07 0.38,0.07 0.38,0.07 0.38,0.07 0.38,0.07 0.38,0.07 0.38,0.07 0.38,0.07 0.38,0.07 0.38,0.07 0.38,0.08 0.37,0.07 0.38,0.07 0.38,0.08 0.38,0.08 0.38,0.07 0.38,0.08 0.38,0.08 0.38,0.08 0.38,0.08 0.38,0.09 0.38,0.08 0.38,0.09 0.38,0.09 0.38,0.09 0.38,0.09 0.38,0.1 0.38,0.09 0.38,0.1 0.38,0.11 0.38,0.1 0.38,0.11 0.38,0.11 0.38,0.11 0.38,0.11 0.38,0.12 0.38,0.12 0.38,0.13 0.37,0.13 0.38,0.13 0.38,0.13 0.38,0.14 0.38,0.14 0.38,0.14 0.38,0.15 0.38,0.15 0.38,0.15 0.38,0.16 0.38,0.16 0.38,0.17 0.38,0.17 0.38,0.17 0.38,0.17 0.38,0.18 0.38,0.18 0.38,0.18 0.38,0.19 0.38,0.19 0.38,0.19 0.38,0.2 0.38,0.2 0.38,0.2 0.38,0.2 0.38,0.21 0.38,0.21 0.37,0.21 0.38,0.21 0.38,0.21 0.38,0.22 0.38,0.21 0.38,0.22 0.38,0.22 0.38,0.22 0.38,0.22 0.38,0.22 0.38,0.22 0.38,0.23 0.38,0.22 0.38,0.22 0.38,0.22 0.38,0.23 0.38,0.22 0.38,0.22 0.38,0.22 0.38,0.22 0.38,0.21 0.38,0.22 0.38,0.21 0.38,0.22 0.38,0.21 0.38,0.21 0.37,0.2 0.38,0.21 0.38,0.2 0.38,0.2 0.38,0.2 0.38,0.19 0.38,0.2 0.38,0.19 0.38,0.18 0.38,0.19 0.38,0.18 0.38,0.18 0.38,0.17 0.38,0.18 0.38,0.17 0.38,0.16 0.38,0.17 0.38,0.16 0.38,0.16 0.38,0.16 0.38,0.15 0.38,0.15 0.38,0.15 0.38,0.15 0.38,0.15 0.38,0.15 0.38,0.15 0.37,0.14 0.38,0.15 0.38,0.14 0.38,0.15 0.38,0.15 0.38,0.15 0.38,0.15 0.38,0.16 0.38,0.16 0.38,0.16 0.38,0.17 0.38,0.17 0.38,0.18 0.38,0.18 0.38,0.19 0.38,0.21 0.38,0.21 0.38,0.22 0.38,0.24 0.38,0.24 0.38,0.26 0.38,0.27 0.38,0.29 0.38,0.3 0.38,0.33 0.38,0.33 0.38,0.36 0.37,0.39 0.38,0.4 0.38,0.43 0.38,0.45 0.38,0.47 0.38,0.51 0.38,0.53 0.38,0.56 0.38,0.6 0.38,0.62 0.38,0.65 0.38,0.7 0.38,0.73 0.38,0.76 0.38,0.81 0.38,0.84 0.38,0.88 0.38,0.93 0.38,0.97 0.38,1.01 0.38,1.06 0.38,1.09 0.38,1.15 0.38,1.2 0.38,1.23 0.38,1.29 0.38,1.34 0.37,1.38 0.38,1.45 0.38,1.48 0.38,1.53 0.38,1.6 0.38,1.63 0.38,1.68 0.38,1.75 0.38,1.78 0.38,1.83 0.38,1.9 0.38,1.93 0.38,1.98 0.38,2.03 0.38,2.07 0.38,2.12 0.38,2.17 0.38,2.2 0.38,2.25 0.38,2.29 0.38,2.31 0.38,2.37 0.38,2.4 0.38,2.42 0.38,2.47 0.38,2.49 0.38,2.51 0.37,2.55 0.38,2.57 0.38,2.58 0.38,2.61 0.38,2.62 0.38,2.63 0.38,2.64 0.38,2.66 0.38,2.66 0.38,2.66 0.38,2.66 0.38,2.67 0.38,2.65 0.38,2.66 0.38,2.64 0.38,2.63 0.38,2.62 0.38,2.6 0.38,2.59 0.38,2.57 0.38,2.54 0.38,2.52 0.38,2.5 0.38,2.46 0.38,2.44 0.38,2.41 0.38,2.37 0.37,2.35 0.38,2.31 0.38,2.27 0.38,2.24 0.38,2.2 0.38,2.16 0.38,2.14 0.38,2.09 0.38,2.05 0.38,2.03 0.38,1.97 0.38,1.94 0.38,1.92 0.38,1.86 0.38,1.84 0.38,1.81 0.38,1.77 0.38,1.74 0.38,1.71 0.38,1.68 0.38,1.65 0.38,1.63 0.38,1.6 0.38,1.58 0.38,1.56 0.38,1.53 0.38,1.52 0.37,1.5 0.38,1.48 0.38,1.47 0.38,1.45 0.38,1.44 0.38,1.43 0.38,1.42 0.38,1.41 0.38,1.4 0.38,1.39 0.38,1.39 0.38,1.38 0.38,1.37 0.38,1.37 0.38,1.35 0.38,1.35 0.38,1.34 0.38,1.34 0.38,1.31 0.38,1.32 0.38,1.29 0.38,1.28 0.38,1.27 0.38,1.24 0.38,1.22 0.38,1.2 0.37,1.17 0.38,1.14 0.38,1.12 0.38,1.06 0.38,1.04 0.38,1 0.38,0.93 0.38,0.89 0.38,0.85 0.38,0.76 0.38,0.72 0.38,0.65 0.38,0.57 0.38,0.51 0.38,0.42 0.38,0.32 0.38,0.27 0.38,0.15 0.38,0.05 0.38,-0.02 0.38,-0.15 0.38,-0.26 0.38,-0.33 0.38,-0.49 0.38,-0.59 0.38,-0.67 0.38,-0.86 0.37,-0.94 0.38,-1.05 0.38,-1.23 0.38,-1.31 0.38,-1.45 0.38,-1.6 0.38,-1.7 0.38,-1.84 0.38,-1.98 0.38,-2.08 0.38,-2.23 0.38,-2.36 0.38,-2.46 0.38,-2.61 0.38,-2.72 0.38,-2.8 0.38,-2.97 0.38,-3.06 0.38,-3.14 0.38,-3.29 0.38,-3.36 0.38,-3.44 0.38,-3.57 0.38,-3.63 0.38,-3.7 0.38,-3.81 0.38,-3.85 0.37,-3.92 0.38,-3.98 0.38,-4.03 0.38,-4.08 0.38,-4.12 0.38,-4.15 0.38,-4.19 0.38,-4.21 0.38,-4.22 0.38,-4.23 0.38,-4.24 0.38,-4.24 0.38,-4.23 0.38,-4.23 0.38,-4.21 0.38,-4.17 0.38,-4.16 0.38,-4.13 0.38,-4.07 0.38,-4.05 0.38,-4 0.38,-3.94 0.38,-3.9 0.38,-3.84 0.38,-3.76 0.38,-3.72 0.38,-3.64 0.37,-3.56 0.38,-3.51 0.38,-3.42 0.38,-3.34 0.38,-3.28 0.38,-3.17 0.38,-3.1 0.38,-3.05 0.38,-2.91 0.38,-2.85 0.38,-2.79 0.38,-2.66 0.38,-2.6 0.38,-2.52 0.38,-2.41 0.38,-2.35 0.38,-2.26 0.38,-2.16 0.38,-2.1 0.38,-2.01 0.38,-1.92 0.38,-1.87 0.38,-1.76 0.38,-1.7 0.38,-1.64 0.38,-1.54 0.38,-1.48 0.37,-1.43 0.38,-1.33 0.38,-1.29 0.38,-1.23 0.38,-1.14 0.38,-1.11 0.38,-1.05 0.38,-0.97 0.38,-0.94 0.38,-0.89 0.38,-0.83 0.38,-0.79 0.38,-0.74 0.38,-0.7 0.38,-0.66 0.38,-0.62 0.38,-0.58 0.38,-0.55 0.38,-0.51 0.38,-0.48 0.38,-0.45 0.38,-0.42 0.38,-0.39 0.38,-0.37 0.38,-0.34 0.38,-0.31 0.38,-0.3 0.37,-0.27 0.38,-0.26 0.38,-0.24 0.38,-0.22 0.38,-0.2 0.38,-0.19 0.38,-0.17 0.38,-0.17 0.38,-0.14 0.38,-0.14 0.38,-0.13 0.38,-0.11 0.38,-0.11 0.38,-0.1 0.38,-0.09 0.38,-0.08 0.38,-0.08 0.38,-0.07 0.38,-0.06 0.38,-0.06 0.38,-0.05 0.38,-0.05 0.38,-0.05 0.38,-0.04 0.38,-0.03 0.38,-0.04 0.38,-0.03 0.37,-0.02 0.38,-0.03 0.38,-0.02 0.38,-0.02 0.38,-0.02 0.38,-0.02 0.38,-0.01 0.38,-0.01 0.38,-0.02 0.38,-0.01 0.38,-0.01 0.38,-0.01 0.38,-0.01 h 0.38 l 0.38,-0.01 h 0.38 l 0.38,-0.01 h 0.38 l 0.38,-0.01 h 0.38 l 0.38,-0.01 h 0.38 0.38 0.38 l 0.38,-0.01 h 0.38 0.37 0.38 0.38 0.38 0.38 0.38 0.38 l 0.38,-0.01 h 0.38 0.38 0.38 0.38 0.38 0.38 0.38 0.38 0.38 0.38 0.38 0.38 0.38 0.38 0.38 0.38 0.38 0.38 0.38 0.37 0.38 0.38 0.38 0.38 0.38 0.38 0.38 0.38 0.38 0.38 0.38" /><path
           id="path84"
           style="fill:none;stroke:#000000;stroke-width:1.07000005;stroke-linecap:butt;stroke-linejoin:round;stroke-miterlimit:10;stroke-dasharray:none;stroke-opacity:1"
           d="M 166.1,31.68 V 332.02" /><path
           id="path86"
           style="fill:none;stroke:#333333;stroke-width:1.07000005;stroke-linecap:round;stroke-linejoin:round;stroke-miterlimit:10;stroke-dasharray:none;stroke-opacity:1"
           d="M 45.88,31.68 H 259.27 V 332.02 H 45.88 Z" /></g></g><g
       id="g88" /><g
       id="g90" /><g
       id="g92" /><g
       id="g94" /><g
       id="g96" /><g
       id="g98" /><g
       id="g100" /><g
       id="g102" /><g
       id="g104" /><g
       id="g106" /><g
       id="g108" /><g
       id="g110" /><g
       id="g112" /><g
       id="g114" /><g
       id="g116" /><g
       id="g118"><text
         id="text122"
         style="font-variant:normal;font-weight:normal;font-size:9px;font-family:Helvetica;-inkscape-font-specification:Helvetica;writing-mode:lr-tb;fill:#4d4d4d;fill-opacity:1;fill-rule:nonzero;stroke:none"
         transform="matrix(1,0,0,-1,18.43,42.1)"><tspan
           id="tspan120"
           y="0"
           x="0 5.0040002 7.506 12.51 17.514">0.000</tspan></text>
<text
         id="text126"
         style="font-variant:normal;font-weight:normal;font-size:9px;font-family:Helvetica;-inkscape-font-specification:Helvetica;writing-mode:lr-tb;fill:#4d4d4d;fill-opacity:1;fill-rule:nonzero;stroke:none"
         transform="matrix(1,0,0,-1,18.43,120.37)"><tspan
           id="tspan124"
           y="0"
           x="0 5.0040002 7.506 12.51 17.514">0.001</tspan></text>
<text
         id="text130"
         style="font-variant:normal;font-weight:normal;font-size:9px;font-family:Helvetica;-inkscape-font-specification:Helvetica;writing-mode:lr-tb;fill:#4d4d4d;fill-opacity:1;fill-rule:nonzero;stroke:none"
         transform="matrix(1,0,0,-1,18.43,198.65)"><tspan
           id="tspan128"
           y="0"
           x="0 5.0040002 7.506 12.51 17.514">0.002</tspan></text>
<text
         id="text134"
         style="font-variant:normal;font-weight:normal;font-size:9px;font-family:Helvetica;-inkscape-font-specification:Helvetica;writing-mode:lr-tb;fill:#4d4d4d;fill-opacity:1;fill-rule:nonzero;stroke:none"
         transform="matrix(1,0,0,-1,18.43,276.92)"><tspan
           id="tspan132"
           y="0"
           x="0 5.0040002 7.506 12.51 17.514">0.003</tspan></text>
</g><g
       id="g136" /><g
       id="g138"><path
         id="path140"
         style="fill:none;stroke:#333333;stroke-width:1.07000005;stroke-linecap:butt;stroke-linejoin:round;stroke-miterlimit:10;stroke-dasharray:none;stroke-opacity:1"
         d="m 43.14,45.33 h 2.74" /><path
         id="path142"
         style="fill:none;stroke:#333333;stroke-width:1.07000005;stroke-linecap:butt;stroke-linejoin:round;stroke-miterlimit:10;stroke-dasharray:none;stroke-opacity:1"
         d="m 43.14,123.6 h 2.74" /><path
         id="path144"
         style="fill:none;stroke:#333333;stroke-width:1.07000005;stroke-linecap:butt;stroke-linejoin:round;stroke-miterlimit:10;stroke-dasharray:none;stroke-opacity:1"
         d="m 43.14,201.88 h 2.74" /><path
         id="path146"
         style="fill:none;stroke:#333333;stroke-width:1.07000005;stroke-linecap:butt;stroke-linejoin:round;stroke-miterlimit:10;stroke-dasharray:none;stroke-opacity:1"
         d="m 43.14,280.15 h 2.74" /></g><g
       id="g148" /><g
       id="g150" /><g
       id="g152" /><g
       id="g154" /><g
       id="g156" /><g
       id="g158" /><g
       id="g160" /><g
       id="g162" /><g
       id="g164" /><g
       id="g166"><path
         id="path168"
         style="fill:none;stroke:#333333;stroke-width:1.07000005;stroke-linecap:butt;stroke-linejoin:round;stroke-miterlimit:10;stroke-dasharray:none;stroke-opacity:1"
         d="m 55.58,28.94 v 2.74" /><path
         id="path170"
         style="fill:none;stroke:#333333;stroke-width:1.07000005;stroke-linecap:butt;stroke-linejoin:round;stroke-miterlimit:10;stroke-dasharray:none;stroke-opacity:1"
         d="m 104.08,28.94 v 2.74" /><path
         id="path172"
         style="fill:none;stroke:#333333;stroke-width:1.07000005;stroke-linecap:butt;stroke-linejoin:round;stroke-miterlimit:10;stroke-dasharray:none;stroke-opacity:1"
         d="m 152.58,28.94 v 2.74" /><path
         id="path174"
         style="fill:none;stroke:#333333;stroke-width:1.07000005;stroke-linecap:butt;stroke-linejoin:round;stroke-miterlimit:10;stroke-dasharray:none;stroke-opacity:1"
         d="m 201.07,28.94 v 2.74" /><path
         id="path176"
         style="fill:none;stroke:#333333;stroke-width:1.07000005;stroke-linecap:butt;stroke-linejoin:round;stroke-miterlimit:10;stroke-dasharray:none;stroke-opacity:1"
         d="m 249.57,28.94 v 2.74" /></g><g
       id="g178" /><g
       id="g180"><text
         id="text184"
         style="font-variant:normal;font-weight:normal;font-size:9px;font-family:Helvetica;-inkscape-font-specification:Helvetica;writing-mode:lr-tb;fill:#4d4d4d;fill-opacity:1;fill-rule:nonzero;stroke:none"
         transform="matrix(1,0,0,-1,53.08,20.28)"><tspan
           id="tspan182"
           y="0"
           x="0">0</tspan></text>
<text
         id="text188"
         style="font-variant:normal;font-weight:normal;font-size:9px;font-family:Helvetica;-inkscape-font-specification:Helvetica;writing-mode:lr-tb;fill:#4d4d4d;fill-opacity:1;fill-rule:nonzero;stroke:none"
         transform="matrix(1,0,0,-1,96.57,20.28)"><tspan
           id="tspan186"
           y="0"
           x="0 5.0040002 10.008">250</tspan></text>
<text
         id="text192"
         style="font-variant:normal;font-weight:normal;font-size:9px;font-family:Helvetica;-inkscape-font-specification:Helvetica;writing-mode:lr-tb;fill:#4d4d4d;fill-opacity:1;fill-rule:nonzero;stroke:none"
         transform="matrix(1,0,0,-1,145.07,20.28)"><tspan
           id="tspan190"
           y="0"
           x="0 5.0040002 10.008">500</tspan></text>
<text
         id="text196"
         style="font-variant:normal;font-weight:normal;font-size:9px;font-family:Helvetica;-inkscape-font-specification:Helvetica;writing-mode:lr-tb;fill:#4d4d4d;fill-opacity:1;fill-rule:nonzero;stroke:none"
         transform="matrix(1,0,0,-1,193.57,20.28)"><tspan
           id="tspan194"
           y="0"
           x="0 5.0040002 10.008">750</tspan></text>
<text
         id="text200"
         style="font-variant:normal;font-weight:normal;font-size:9px;font-family:Helvetica;-inkscape-font-specification:Helvetica;writing-mode:lr-tb;fill:#4d4d4d;fill-opacity:1;fill-rule:nonzero;stroke:none"
         transform="matrix(1,0,0,-1,239.56,20.28)"><tspan
           id="tspan198"
           y="0"
           x="0 5.0040002 10.008 15.012">1000</tspan></text>
</g><g
       id="g202" /><g
       id="g204" /><g
       id="g206" /><g
       id="g208" /><g
       id="g210" /><g
       id="g212"><text
         id="text216"
         style="font-variant:normal;font-weight:normal;font-size:11px;font-family:Helvetica;-inkscape-font-specification:Helvetica;writing-mode:lr-tb;fill:#000000;fill-opacity:1;fill-rule:nonzero;stroke:none"
         transform="matrix(1,0,0,-1,149.52,7.79)"><tspan
           id="tspan214"
           y="0"
           x="0">d</tspan></text>
</g><g
       id="g218" /><g
       id="g220"><text
         id="text224"
         style="font-variant:normal;font-weight:normal;font-size:11px;font-family:Helvetica;-inkscape-font-specification:Helvetica;writing-mode:lr-tb;fill:#000000;fill-opacity:1;fill-rule:nonzero;stroke:none"
         transform="matrix(0,1,1,0,13.38,164.43)"><tspan
           id="tspan222"
           y="0"
           x="0 6.1160002 12.232 18.348 23.848 26.290001 29.348">density</tspan></text>
</g><g
       id="g226" /><g
       id="g228" /><g
       id="g230" /><g
       id="g232" /><g
       id="g234" /><g
       id="g236" /><g
       id="g238" /><g
       id="g240" /><g
       id="g242" /><g
       id="g244" /><g
       id="g246" /><g
       id="g248" /></g></svg>