<?xml version="1.0" encoding="UTF-8" standalone="no"?>
<!DOCTYPE svg PUBLIC "-//W3C//DTD SVG 1.1//EN" "http://www.w3.org/Graphics/SVG/1.1/DTD/svg11.dtd">
<svg width="100%" height="100%" viewBox="0 0 589 323" version="1.1" xmlns="http://www.w3.org/2000/svg" xmlns:xlink="http://www.w3.org/1999/xlink" xml:space="preserve" xmlns:serif="http://www.serif.com/" style="fill-rule:evenodd;clip-rule:evenodd;stroke-linecap:round;stroke-linejoin:round;stroke-miterlimit:10;">
    <g transform="matrix(1,0,0,1,0,-188.49)">
        <path d="M26.55,228.31L27.99,230.08L29.43,228.36L30.88,229.39L32.32,230.67L33.76,231.15L35.2,231.19L36.65,228.53L38.09,228.88L39.53,231.02L40.98,226.15L42.42,232.45L43.86,233.36L45.31,236.52L46.75,236.67L48.19,237.33L49.64,237.58L51.08,239.77L52.52,241.22L53.97,240.12L55.41,241.28L56.85,240.37L58.3,242.54L59.74,240.82L61.18,243.55L62.62,243.82L64.07,242.79L65.51,243.84L66.95,247.4L68.4,233.82L69.84,241.96L71.28,239.33L72.73,237.82L74.17,240.23L75.61,241.13L77.06,241.78L78.5,243.92L79.94,242.29L81.39,246.49L82.83,246.67L84.27,245.05L85.71,245.96L87.16,245.62L88.6,246.61L90.04,243.42L91.49,246.87L92.93,246.08L94.37,246.22L95.82,246.78L97.26,247.68L98.7,248.1L100.15,249.05L101.59,247.33L103.03,247.04L104.48,246.1L105.92,245.51L107.36,245.23L108.8,247.74L110.25,245.9L111.69,242.82L113.13,248.15L114.58,247.76L116.02,249.5L117.46,239.28L118.91,246.21L120.35,249.82L121.79,246.77L123.24,245.33L124.68,249.4L126.12,247.74L127.57,244.96L129.01,250.16L130.45,246.4L131.9,242.49L133.34,245.02L134.78,245.57L136.22,245.13L137.67,243.2L139.11,245.29L140.55,243.03L142,242.31L143.44,244.4L144.88,242.75L146.33,244.04L147.77,241.16L149.21,238.24L150.66,247.42L152.1,241.44L153.54,238.81L154.99,244.75L156.43,235.56L157.87,242.43L159.31,242.99L160.76,239.92L162.2,242.58L163.64,239.41L165.09,239.21L166.53,241.81L167.97,242.72L169.42,242.85L170.86,243.41L172.3,241.67L173.75,248.19L175.19,238.15L176.63,239.91L178.08,242.66L179.52,243.34L180.96,237.89L182.4,250.88L183.85,243.35L185.29,240.56L186.73,243.44L188.18,253.77L189.62,244.7L191.06,247.38L192.51,244.88L193.95,248.34L195.39,247.98L196.84,241.79L198.28,245.25L199.72,246.49L201.17,248.24L202.61,245.88L204.05,248.54L205.5,257.09L206.94,251.35L208.38,253.36L209.82,252.44L211.27,256.76L212.71,255.04L214.15,254.08L215.6,251.71L217.04,255.26L218.48,260.15L219.93,255.76L221.37,260.81L222.81,261.22L224.26,258.32L225.7,265.01L227.14,262.47L228.59,262.5L230.03,261.02L231.47,264.46L232.91,266.98L234.36,267.77L235.8,264.24L237.24,267.77L238.69,264.42L240.13,265.14L241.57,273.13L243.02,276.65L244.46,278.49L245.9,276.02L247.35,274.5L248.79,276.64L250.23,281.35L251.68,285.34L253.12,283.55L254.56,278.71L256,281.52L257.45,284L258.89,279.04L260.33,275.28L261.78,268.6L263.22,270.1L264.66,271.37L266.11,273.92L267.55,271.44L268.99,271.3L270.44,279.08L271.88,272.38" style="fill:none;fill-rule:nonzero;stroke:rgb(56,108,176);stroke-width:1.65px;"/>
    </g>
    <g transform="matrix(1,0,0,1,0,-128.71)">
        <path d="M26.55,183.25L27.99,183.25L29.43,184.08L30.88,183.78L32.32,184.95L33.76,185.51L35.2,185.52L36.65,184.85L38.09,189.98L39.53,187.14L40.98,188.56L42.42,190.55L43.86,192.58L45.31,194.35L46.75,193.07L48.19,192.99L49.64,192.82L51.08,192.99L52.52,195.38L53.97,195.71L55.41,195.52L56.85,194.48L58.3,196.82L59.74,194.81L61.18,198.08L62.62,198.82L64.07,199.23L65.51,198.5L66.95,204.9L68.4,191.2L69.84,204.08L71.28,196.61L72.73,194.65L74.17,195.49L75.61,198.67L77.06,195.67L78.5,196.85L79.94,196.09L81.39,198.26L82.83,198.26L84.27,196.39L85.71,193.38L87.16,194.58L88.6,194.6L90.04,192.02L91.49,193.86L92.93,193.29L94.37,193.47L95.82,195.75L97.26,197.55L98.7,195.68L100.15,195.15L101.59,196.98L103.03,197.24L104.48,194.87L105.92,193.69L107.36,193.08L108.8,196.82L110.25,196.91L111.69,195.32L113.13,196.87L114.58,195.31L116.02,196.7L117.46,193.87L118.91,195.44L120.35,197.33L121.79,196.93L123.24,193.87L124.68,198.74L126.12,197.52L127.57,197.32L129.01,198.8L130.45,197.32L131.9,194.61L133.34,197.61L134.78,197.47L136.22,198.13L137.67,196.18L139.11,196.53L140.55,195.5L142,192.01L143.44,196.15L144.88,192.61L146.33,196.07L147.77,194.39L149.21,190.56L150.66,198.1L152.1,190.24L153.54,189.35L154.99,197.24L156.43,186.96L157.87,193.25L159.31,191.95L160.76,189.32L162.2,191.05L163.64,186.59L165.09,190.45L166.53,189.35L167.97,190.41L169.42,193.15L170.86,193.59L172.3,191.09L173.75,197.7L175.19,196.55L176.63,190.23L178.08,195.02L179.52,194.04L180.96,190.54L182.4,195.91L183.85,191.74L185.29,192.69L186.73,193.23L188.18,202.28L189.62,201.69L191.06,196.53L192.51,193.12L193.95,197.42L195.39,197.46L196.84,197.15L198.28,193.21L199.72,197.02L201.17,196.79L202.61,198.67L204.05,205.05L205.5,226.21L206.94,213.04L208.38,206.62L209.82,207.57L211.27,219.76L212.71,216.61L214.15,219.02L215.6,221.8L217.04,223.9L218.48,244.33L219.93,242.54L221.37,242.54L222.81,246.74L224.26,248.24L225.7,261.93L227.14,247.31L228.59,246.53L230.03,243.83L231.47,258.77L232.91,250.48L234.36,255.52L235.8,254.94L237.24,266.29L238.69,265.53L240.13,260.9L241.57,260.03L243.02,268.01L244.46,268.46L245.9,267.2L247.35,265.53L248.79,261.72L250.23,268.04L251.68,268.46L253.12,268.46L254.56,268.04L256,268.46L258.89,268.46L260.33,265.3L261.78,259.99L263.22,259.56L264.66,259.99L266.11,259.99L267.55,262.37L268.99,262.37L270.44,266.96L271.88,256.27" style="fill:none;fill-rule:nonzero;stroke:rgb(253,180,98);stroke-width:1.12px;"/>
    </g>
    <g transform="matrix(1,0,0,1,0,-245.65)">
        <path d="M26.55,267.1L27.99,276.9L29.43,273.71L30.88,275.86L32.32,279.23L33.76,274.53L35.2,274.28L36.65,273.27L38.09,268.84L39.53,275.08L40.98,263.4L42.42,272.58L43.86,274.84L45.31,276.08L46.75,276.98L48.19,277.34L49.64,279.44L51.08,280.99L52.52,284.18L53.97,280.2L55.41,284.18L59.74,284.18L61.18,284.66L62.62,289.32L64.07,284.5L65.51,290.43L66.95,296.13L68.4,267.75L69.84,284.75L71.28,283.6L72.73,278.76L74.17,284.57L75.61,283.62L77.06,285.15L78.5,287.55L79.94,285.92L81.39,289.8L82.83,289.74L84.27,287.69L85.71,294.01L87.16,294.63L88.6,296.57L90.04,289.75L91.49,296.27L92.93,296.54L94.37,294.33L95.82,297.31L97.26,294.61L98.7,298.31L100.15,299.45L101.59,295.31L103.03,293.33L104.48,295.34L105.92,293.24L107.36,293.73L108.8,296.48L110.25,294.15L111.69,288.7L113.13,297.34L114.58,297.82L116.02,295.86L117.46,282.44L118.91,292.24L120.35,296.66L121.79,293.33L123.24,294.14L124.68,295.5L126.12,292.94L127.57,289.53L129.01,296.29L130.45,290.94L131.9,288.72L133.34,288.26L134.78,291.2L136.22,289.39L137.67,288.37L139.11,290.53L140.55,288.37L142,287.94L143.44,290.93L144.88,288.35L146.33,289.34L147.77,287.08L149.21,282.44L150.66,296.11L152.1,288.87L153.54,285.81L154.99,289.23L156.43,282.35L157.87,287.98L159.31,286.98L160.76,283.16L162.2,288.97L163.64,284.02L165.09,282.91L166.53,287.72L167.97,286.98L169.42,291.52L170.86,284.26L172.3,288.7L173.75,292.61L175.19,274.84L176.63,284.86L178.08,286.85L179.52,286.67L180.96,280.57L182.4,294L183.85,287.17L185.29,280.45L186.73,285.38L188.18,296.29L189.62,285.36L191.06,292.48L192.51,289.03L193.95,292.85L195.39,289.28L196.84,276.28L198.28,291.97L199.72,291.32L201.17,295.46L202.61,277.54L204.05,281.52L205.5,296.37L206.94,286.82L208.38,292.57L209.82,291.07L211.27,292.35L212.71,290.71L214.15,287.29L215.6,285.92L217.04,287.26L218.48,287.09L219.93,287.88L221.37,291.81L222.81,287.65L224.26,278.74L225.7,288.45L227.14,286.28L228.59,286.27L230.03,286.44L231.47,285.64L232.91,293.56L234.36,286.26L235.8,278.73L237.24,278.47L238.69,274.77L240.13,273.46L241.57,291.67L243.02,292.89L244.46,299.53L245.9,290.86L247.35,286.26L248.79,295.57L250.23,289.68L251.68,298.33L253.12,290.46L254.56,294.17L256,295.89L257.45,305.25L258.89,296.75L260.33,292.66L261.78,279.62L263.22,280.01L264.66,288.43L266.11,292.95L267.55,280.35L268.99,280.35L270.44,297.93L271.88,304.83" style="fill:none;fill-rule:nonzero;stroke:rgb(253,180,98);stroke-width:1.12px;"/>
    </g>
    <g transform="matrix(1,0,0,1,0,-33.74)">
        <path d="M25.1,178.37L241.57,178.37" style="fill:none;fill-rule:nonzero;stroke:black;stroke-width:0.75px;"/>
    </g>
    <g transform="matrix(0,1,1,0,-150.88,121.92)">
        <path d="M22.71,175.98L27.49,175.98" style="fill:none;fill-rule:nonzero;stroke:black;stroke-width:0.75px;"/>
    </g>
    <g transform="matrix(0,1,1,0,-78.72,49.76)">
        <path d="M94.87,175.98L99.65,175.98" style="fill:none;fill-rule:nonzero;stroke:black;stroke-width:0.75px;"/>
    </g>
    <g transform="matrix(0,1,1,0,-6.56,-22.4)">
        <path d="M167.03,175.98L171.81,175.98" style="fill:none;fill-rule:nonzero;stroke:black;stroke-width:0.75px;"/>
    </g>
    <g transform="matrix(0,1,1,0,65.59,-94.55)">
        <path d="M239.18,175.98L243.96,175.98" style="fill:none;fill-rule:nonzero;stroke:black;stroke-width:0.75px;"/>
    </g>
    <g transform="matrix(0,-1,-1,0,263.575,92.885)">
        <path d="M-24.855,246.845L58.315,246.845" style="fill:none;fill-rule:nonzero;stroke:black;stroke-width:0.75px;"/>
    </g>
    <g transform="matrix(-1,0,0,1,28.68,-87.52)">
        <path d="M11.95,205.26L16.73,205.26" style="fill:none;fill-rule:nonzero;stroke:black;stroke-width:0.75px;"/>
    </g>
    <g transform="matrix(-1,0,0,1,28.68,-142.98)">
        <path d="M11.95,232.99L16.73,232.99" style="fill:none;fill-rule:nonzero;stroke:black;stroke-width:0.75px;"/>
    </g>
    <g transform="matrix(-1,0,0,1,28.68,-198.42)">
        <path d="M11.95,260.71L16.73,260.71" style="fill:none;fill-rule:nonzero;stroke:black;stroke-width:0.75px;"/>
    </g>
    <g transform="matrix(-1,0,0,1,28.68,-253.86)">
        <path d="M11.95,288.43L16.73,288.43" style="fill:none;fill-rule:nonzero;stroke:black;stroke-width:0.75px;"/>
    </g>
    <g transform="matrix(1,0,0,1,0,-165.5)">
        <rect x="16.73" y="178.37" width="264.96" height="131.76" style="fill:none;stroke:black;stroke-width:0.75px;"/>
    </g>
    <g transform="matrix(1,0,0,1,0,-212.64)">
        <path d="M16.73,267.82L281.69,267.82" style="fill:none;fill-rule:nonzero;stroke:rgb(127,201,127);stroke-width:0.75px;"/>
    </g>
    <g transform="matrix(0,-1,-1,0,516.13,350.63)">
        <path d="M206,244.25L337.76,244.25" style="fill:none;fill-rule:nonzero;stroke:black;stroke-width:0.41px;stroke-dasharray:1.24,2.06;"/>
    </g>
    <g transform="matrix(1,0,0,1,0,-72.59)">
        <rect x="16.73" y="178.37" width="96.04" height="38.85" style="fill:white;stroke:black;stroke-width:0.75px;"/>
    </g>
    <g transform="matrix(1,0,0,1,0,-95.9)">
        <path d="M23.56,209.45L37.2,209.45" style="fill:none;fill-rule:nonzero;stroke:rgb(56,108,176);stroke-width:0.75px;"/>
    </g>
    <g transform="matrix(1,0,0,1,0,-80.36)">
        <path d="M23.56,201.68L37.2,201.68" style="fill:none;fill-rule:nonzero;stroke:rgb(253,180,98);stroke-width:0.75px;"/>
    </g>
    <g transform="matrix(1,0,0,1,0,-64.82)">
        <path d="M23.56,193.91L37.2,193.91" style="fill:none;fill-rule:nonzero;stroke:rgb(127,201,127);stroke-width:0.75px;"/>
    </g>
    <g transform="matrix(1,0,0,1,0,-49.28)">
        <path d="M23.56,186.14L37.2,186.14" style="fill:none;fill-rule:nonzero;stroke:black;stroke-width:0.75px;stroke-dasharray:2.25,3.75;"/>
    </g>
    <g transform="matrix(1,0,0,1,0,-147.07)">
        <path d="M321.39,223.94L322.83,237.04L324.27,241.89L325.72,239.4L327.16,248.42L328.6,248.08L330.04,249.96L331.49,248.02L332.93,240.83L334.37,249.92L335.82,237.14L337.26,254.84L338.7,256.92L340.15,261.84L341.59,266.37L343.03,264.19L344.48,265.72L345.92,264.96L347.36,263.49L348.81,259.57L350.25,258.05L351.69,259.69L353.14,259.36L354.58,250.77L356.02,256.57L357.46,248.12L358.91,250.67L360.35,243.33L361.79,241.98L363.24,220.11L364.68,243.69L366.12,238.23L367.57,231.71L369.01,233.39L370.45,226.84L371.9,228.46L373.34,232.36L374.78,230.83L376.23,222.87L377.67,220.45L379.11,211.23L380.55,221.45L382,218.68L383.44,223.37L384.88,219.85L386.33,218.66L387.77,217.9L389.21,218.91L390.66,217.8L392.1,211.88L393.54,218.9L394.99,217.77L396.43,217.59L397.87,216.23L399.32,218.02L400.76,216.15L402.2,218.99L403.64,215.84L405.09,213.15L406.53,215.75L407.97,214.98L409.42,219.49L410.86,216.91L412.3,207.95L413.75,211.38L415.19,217.27L416.63,216.97L418.08,215.61L419.52,216.5L420.96,214.03L422.41,212.4L423.85,217.49L425.29,217.9L426.74,212.99L428.18,216.1L429.62,215.79L431.06,212.82L432.51,215.92L433.95,213.02L435.39,216.62L436.84,213.11L438.28,217.44L439.72,215.36L441.17,218.27L442.61,216.96L444.05,213.03L445.5,214.53L446.94,214.4L448.38,214.41L449.83,213.58L451.27,218.25L452.71,218.69L454.15,217.8L455.6,216.97L457.04,215.15L458.48,215.54L459.93,216.41L461.37,216.02L462.81,214.21L464.26,215.42L465.7,216.07L467.14,212.23L468.59,216.93L470.03,206.06L471.47,213.71L472.92,214.08L474.36,214.83L475.8,212.08L477.24,218.33L478.69,213.51L480.13,212.98L481.57,219.06L483.02,215.72L484.46,219.32L485.9,211.67L487.35,214.47L488.79,211.81L490.23,212.9L491.68,217L493.12,215.53L494.56,216.25L496.01,215.93L497.45,205.26L498.89,211.87L500.34,216.51L501.78,210.3L503.22,214.72L504.66,214.84L506.11,210.4L507.55,212.97L508.99,215.12L510.44,211.51L511.88,213.33L513.32,210.38L514.77,212.09L516.21,212.76L517.65,210.56L519.1,206.45L520.54,209.95L521.98,204.76L523.43,209.27L524.87,205.95L526.31,204.92L527.75,208.67L529.2,205.36L530.64,206.92L532.08,215.44L533.53,217.72L534.97,219.53L536.41,211.66L537.86,208.39L539.3,206.79L540.74,205.31L542.19,206.31L543.63,207.95L545.07,210.93L546.52,213.57L547.96,208.76L549.4,207.6L550.84,209.19L552.29,217.73L553.73,208.34L555.17,206.6L556.62,209.5L558.06,208.74L559.5,209.33L560.95,206.06L562.39,209.91L563.83,208.12L565.28,203.7L566.72,210.72" style="fill:none;fill-rule:nonzero;stroke:rgb(56,108,176);stroke-width:1.65px;"/>
    </g>
    <g transform="matrix(1,0,0,1,0,-113.11)">
        <path d="M321.39,231.54L322.83,233.32L324.27,239.27L325.72,237.42L327.16,243.03L328.6,243.14L330.04,243.52L331.49,243.49L332.93,247.04L334.37,243.52L335.82,245.75L337.26,246.31L338.7,250.28L340.15,252.78L341.59,252.86L343.03,250.88L344.48,250.87L345.92,250.88L347.36,250.79L348.81,250.49L350.25,250.49L351.69,250.46L353.14,249.14L354.58,243.52L356.02,249.04L357.46,242.75L358.91,245.34L360.35,228.04L361.79,229.49L363.24,227.53L364.68,235.45L366.12,230.73L367.57,223.53L369.01,224.24L370.45,215.77L371.9,215.39L373.34,222.04L374.78,220.29L376.23,205.85L377.67,206.13L379.11,197.35L380.55,205.41L382,201.16L383.44,203.35L384.88,204.8L386.33,197.35L387.77,196L389.21,193.83L390.66,194.99L392.1,193.28L393.54,195.19L394.99,193.3L396.43,188.9L397.87,192.64L399.32,192.64L400.76,192.83L402.2,194.46L403.64,193.07L405.09,191.95L406.53,195.29L407.97,188.47L409.42,196.23L410.86,190.85L412.3,187.51L413.75,183.25L415.19,191.57L416.63,190.67L418.08,190.6L419.52,190.05L420.96,189.74L422.41,186.28L423.85,190.79L425.29,191.68L426.74,186.8L428.18,193.53L429.62,192.13L431.06,192.54L432.51,191.08L433.95,192.23L435.39,192.57L436.84,191.37L438.28,192.97L439.72,192.88L441.17,193.95L442.61,193.24L444.05,191.2L445.5,190.54L446.94,191.9L448.38,193.24L449.83,191.54L451.27,193.32L452.71,196.26L454.15,197.33L455.6,197.48L457.04,190.83L458.48,193.15L459.93,193.94L461.37,193.12L462.81,193.23L464.26,193.26L465.7,192.36L467.14,187.48L468.59,193.29L470.03,190.76L471.47,190.46L472.92,188.97L474.36,193.13L475.8,194.27L477.24,198.19L478.69,190.57L480.13,192.84L481.57,197.46L483.02,192.25L484.46,195.54L485.9,189.94L487.35,191.85L488.79,188.61L490.23,192.56L491.68,195.63L493.12,193.66L494.56,195.6L496.01,195.23L497.45,193.57L498.89,193.56L500.34,195.83L501.78,193.9L503.22,195.44L504.66,195.03L506.11,191.67L507.55,194.1L508.99,196.06L510.44,195.62L511.88,198.36L513.32,195.22L514.77,196.31L516.21,197.78L517.65,202.19L519.1,202.82L520.54,199.16L521.98,194.67L523.43,203.36L524.87,202.31L526.31,198.68L527.75,205.07L529.2,203.02L530.64,208.24L532.08,207.67L533.53,204.46L534.97,210.42L536.41,202.6L537.86,201.74L539.3,201.94L540.74,202.32L542.19,202.6L545.07,202.6L546.52,200.34L547.96,200.56L549.4,199.97L550.84,199.97L552.29,200.24L553.73,199.52L555.17,198.55L556.62,199.97L558.06,199.97L559.5,198.84L560.95,198.27L562.39,200.01L563.83,198.84L565.28,198.55L566.72,196.51" style="fill:none;fill-rule:nonzero;stroke:rgb(253,180,98);stroke-width:1.12px;"/>
    </g>
    <g transform="matrix(1,0,0,1,0,-208.4)">
        <path d="M321.39,241.05L322.83,268.02L324.27,280.86L325.72,277.09L327.16,285.45L331.49,285.45L332.93,266.33L334.37,283.55L335.82,246.73L337.26,292.34L338.7,292.88L340.15,299.92L341.59,305.03L343.03,302.32L344.48,305.25L345.92,305.01L347.36,301.2L348.81,296.47L350.25,295.5L351.69,295.66L353.14,299.56L354.58,290.08L356.02,295.85L357.46,288.7L358.91,288.15L360.35,281.47L361.79,281.64L363.24,239.25L364.68,280.97L366.12,276.95L367.57,272.66L369.01,274.86L370.45,270.24L371.9,272.52L373.34,274.4L374.78,272.71L376.23,272.22L377.67,270.17L379.11,265.3L380.55,272.07L382,270.11L383.44,274.05L384.88,270.1L386.33,271.36L387.77,270.17L389.21,271.4L390.66,269.62L392.1,264.27L393.54,272.66L394.99,271.36L396.43,269.53L397.87,268.14L399.32,269.6L400.76,269.73L402.2,273.74L403.64,268.41L405.09,264.95L406.53,263.61L407.97,267.57L409.42,273.63L410.86,271.46L412.3,256.75L413.75,265.8L415.19,272.18L416.63,271.5L418.08,268.27L419.52,270.38L420.96,266.57L422.41,266.85L423.85,271.5L425.29,271.82L426.74,266.65L428.18,267.13L429.62,267.17L431.06,267.15L432.51,267.7L433.95,266.84L435.39,267.15L436.84,263.01L438.28,270.44L439.72,267.26L441.17,268.76L442.61,266.66L444.05,258.66L445.5,268.46L446.94,265.24L448.38,263.02L449.83,264.67L451.27,265.52L452.71,265.78L454.15,267L455.6,259.85L457.04,266.62L458.48,266L459.93,265.15L461.37,264.24L462.81,264.9L464.26,268.26L465.7,267.18L467.14,263.3L468.59,267.78L470.03,230.71L471.47,265.11L472.92,264.41L474.36,265.99L475.8,251.73L477.24,267.39L478.69,263.42L480.13,253.08L481.57,266.57L483.02,266.96L484.46,267.32L485.9,263.19L487.35,263.69L488.79,263.41L490.23,263.23L491.68,257.85L493.12,264.93L494.56,256.62L496.01,265.02L497.45,235.86L498.89,253.29L500.34,264.36L501.78,256.69L503.22,257.86L504.66,258.04L506.11,254.51L507.55,256.06L508.99,256.21L510.44,256.11L511.88,255.99L513.32,253.3L514.77,255.93L516.21,255.93L517.65,251.39L519.1,245.94L520.54,253.59L521.98,247.06L523.43,253.14L524.87,246.27L526.31,247.36L527.75,248.31L529.2,251.45L530.64,229.96L532.08,254.01L533.53,247.41L534.97,246.45L536.41,247.29L537.86,243.5L539.3,241.63L540.74,227.61L542.19,226.15L543.63,237.63L545.07,242.45L546.52,248.31L547.96,232.81L549.4,232.01L550.84,241.4L552.29,258.61L553.73,243.49L555.17,243.1L556.62,238.52L558.06,242.41L559.5,243.42L560.95,243.17L562.39,242.45L563.83,240.36L565.28,238.52L566.72,246.44" style="fill:none;fill-rule:nonzero;stroke:rgb(253,180,98);stroke-width:1.12px;"/>
    </g>
    <g transform="matrix(1,0,0,1,0,-33.74)">
        <path d="M319.94,178.37L536.41,178.37" style="fill:none;fill-rule:nonzero;stroke:black;stroke-width:0.75px;"/>
    </g>
    <g transform="matrix(0,1,1,0,143.96,-172.92)">
        <path d="M317.55,175.98L322.33,175.98" style="fill:none;fill-rule:nonzero;stroke:black;stroke-width:0.75px;"/>
    </g>
    <g transform="matrix(0,1,1,0,216.12,-245.08)">
        <path d="M389.71,175.98L394.49,175.98" style="fill:none;fill-rule:nonzero;stroke:black;stroke-width:0.75px;"/>
    </g>
    <g transform="matrix(0,1,1,0,288.28,-317.24)">
        <path d="M461.87,175.98L466.65,175.98" style="fill:none;fill-rule:nonzero;stroke:black;stroke-width:0.75px;"/>
    </g>
    <g transform="matrix(0,1,1,0,360.43,-389.39)">
        <path d="M534.02,175.98L538.8,175.98" style="fill:none;fill-rule:nonzero;stroke:black;stroke-width:0.75px;"/>
    </g>
    <g transform="matrix(0,-1,-1,0,562.045,384.095)">
        <path d="M269.485,250.475L353.655,250.475" style="fill:none;fill-rule:nonzero;stroke:black;stroke-width:0.75px;"/>
    </g>
    <g transform="matrix(-1,0,0,1,618.36,-93.78)">
        <path d="M306.79,208.39L311.57,208.39" style="fill:none;fill-rule:nonzero;stroke:black;stroke-width:0.75px;"/>
    </g>
    <g transform="matrix(-1,0,0,1,618.36,-177.96)">
        <path d="M306.79,250.48L311.57,250.48" style="fill:none;fill-rule:nonzero;stroke:black;stroke-width:0.75px;"/>
    </g>
    <g transform="matrix(-1,0,0,1,618.36,-262.12)">
        <path d="M306.79,292.56L311.57,292.56" style="fill:none;fill-rule:nonzero;stroke:black;stroke-width:0.75px;"/>
    </g>
    <g transform="matrix(1,0,0,1,0,-165.5)">
        <rect x="311.57" y="178.37" width="264.96" height="131.76" style="fill:none;stroke:black;stroke-width:0.75px;"/>
    </g>
    <g transform="matrix(1,0,0,1,0,-174.4)">
        <path d="M311.57,248.7L576.53,248.7" style="fill:none;fill-rule:nonzero;stroke:rgb(127,201,127);stroke-width:0.75px;"/>
    </g>
    <g transform="matrix(0,-1,-1,0,810.97,645.47)">
        <path d="M500.84,244.25L632.6,244.25" style="fill:none;fill-rule:nonzero;stroke:black;stroke-width:0.41px;stroke-dasharray:1.24,2.06;"/>
    </g>
    <g transform="matrix(1,0,0,1,0,172.91)">
        <path d="M26.55,78.44L27.99,86.37L29.43,88.72L30.88,88.38L32.32,91.64L33.76,92.7L35.2,92.25L36.65,92.9L38.09,96.84L39.53,106.53L40.98,94.89L42.42,102.62L43.86,103.98L45.31,106.36L46.75,108.31L48.19,108.22L49.64,107.93L51.08,107.54L52.52,107.73L53.97,106.62L55.41,106.54L56.85,107.38L58.3,106.34L59.74,106.29L61.18,105.11L62.62,105.94L64.07,106.49L65.51,106.46L66.95,110.13L68.4,101.87L69.84,108.55L71.28,105.45L72.73,103.14L74.17,102.4L75.61,102.21L77.06,101.5L78.5,103.03L79.94,102.05L81.39,103.11L82.83,101.42L84.27,100.72L85.71,102.15L87.16,103.29L88.6,103.7L90.04,101.98L91.49,103.82L92.93,103.87L94.37,105.14L95.82,103.36L97.26,102.12L98.7,103.88L100.15,105.35L101.59,103.15L103.03,102.33L104.48,102.42L105.92,103.52L107.36,103.97L108.8,103.83L110.25,103.38L111.69,101.23L113.13,103.54L114.58,106.05L116.02,104.11L117.46,97.73L118.91,103.45L120.35,105.35L121.79,103.87L123.24,104.27L124.68,104L126.12,104.2L127.57,103.08L129.01,103.52L130.45,102.7L131.9,101.52L133.34,102.72L134.78,101.4L136.22,102.7L137.67,101.59L139.11,102.88L140.55,102.57L142,102.92L143.44,104.2L144.88,104.33L146.33,103.55L147.77,101.2L149.21,98.27L150.66,105.36L152.1,103.27L153.54,101.55L154.99,103.75L156.43,100.1L157.87,102.56L159.31,103.27L160.76,103.32L162.2,105.52L163.64,104.35L165.09,101.37L166.53,105.05L167.97,101.52L169.42,106.11L170.86,105.53L172.3,105.17L173.75,105.41L175.19,96.48L176.63,106L178.08,106.77L179.52,106.59L180.96,98.45L182.4,102.67L183.85,105.4L185.29,99.42L186.73,103.31L188.18,100.2L189.62,102.71L191.06,105.41L192.51,104.92L193.95,103.8L195.39,102.85L196.84,94.02L198.28,103.1L199.72,101.39L201.17,100.95L202.61,90.25L204.05,94.66L205.5,96.05L206.94,99.74L208.38,101.85L209.82,98.61L211.27,99.82L212.71,99.03L214.15,98.89L215.6,96.23L217.04,97.94L218.48,95.33L219.93,94.37L221.37,95.25L222.81,90.78L224.26,86.71L225.7,86.08L227.14,87.55L228.59,82.58L230.03,86.29L231.47,87.1L232.91,72.52L234.36,74.2L235.8,56.72L237.24,39.96L238.69,69.63L240.13,78.62L241.57,73.34L243.02,71.8L244.46,71.71L245.9,62.88L247.35,60.51L248.79,59.49L250.23,49.22L251.68,48.29L253.12,45.48L254.56,55.86L256,54.06L257.45,49.17L258.89,54.46L260.33,56.97L261.78,58.86L263.22,55.78L264.66,60.27L266.11,62.97L267.55,57.28L268.99,55.93L270.44,58.75L271.88,68.9" style="fill:none;fill-rule:nonzero;stroke:rgb(56,108,176);stroke-width:1.65px;"/>
    </g>
    <g transform="matrix(1,0,0,1,0,227.02)">
        <path d="M26.55,57.04L27.99,62.47L29.43,65.96L30.88,63.73L32.32,65.84L33.76,64.66L35.2,64.87L36.65,66.08L38.09,66.78L39.53,68.25L40.98,66.45L42.42,68.18L43.86,70.65L45.31,68.01L46.75,69L48.19,70.48L49.64,67.77L51.08,67.39L52.52,67.39L53.97,70.78L55.41,66.4L56.85,67.43L58.3,66.54L59.74,64.25L61.18,66.32L62.62,64.25L64.07,71.79L65.51,65.37L66.95,73.15L68.4,74.37L69.84,68.61L71.28,66.76L72.73,64.21L74.17,62.14L75.61,64.82L77.06,60.9L78.5,62.14L79.94,62.26L81.39,61.02L82.83,60.94L84.27,56.46L85.71,56.46L87.16,56.08L88.6,56.61L90.04,59.56L91.49,56.65L92.93,55.16L94.37,57.44L95.82,54.69L97.26,54.86L98.7,54.58L100.15,56.49L101.59,55.13L103.03,55.8L104.48,54.69L105.92,55.79L107.36,55.43L108.8,56.37L110.25,55.5L111.69,54.21L113.13,55.47L114.58,59.13L116.02,54.98L117.46,54.91L118.91,55.03L120.35,56.93L121.79,55.57L123.24,56.93L124.68,56.85L126.12,56.08L127.57,56.05L129.01,55.9L130.45,55.2L131.9,54.86L133.34,55.66L134.78,54.66L136.22,55.6L137.67,55.54L139.11,55.4L140.55,57.39L142,57.62L143.44,59.02L144.88,59.41L146.33,59.78L147.77,59.22L149.21,56.53L150.66,60.48L152.1,56.52L153.54,59.19L154.99,60.88L156.43,58.63L157.87,58.24L159.31,61.09L160.76,58.39L162.2,59.95L163.64,59.11L165.09,59.16L166.53,60.59L167.97,57.78L169.42,60.42L170.86,62.28L172.3,63.81L173.75,66.14L175.19,62.34L176.63,61.33L178.08,63.48L179.52,62.8L180.96,60.46L182.4,60.31L183.85,63.44L185.29,63.72L186.73,62.94L188.18,62.53L189.62,65.8L191.06,63.14L192.51,62.9L193.95,61.71L195.39,58.73L196.84,61.3L198.28,60.85L199.72,61.34L201.17,56.58L202.61,61.18L204.05,61.76L205.5,60.75L206.94,61.8L208.38,63.48L209.82,61.08L211.27,61.7L212.71,60.71L214.15,60.85L215.6,61.27L217.04,62.41L218.48,60.74L219.93,56.47L221.37,61.04L222.81,61.26L224.26,63.74L225.7,62.12L227.14,60.35L228.59,66.12L230.03,61.57L231.47,67.17L232.91,59.11L234.36,60.05L235.8,41.48L237.24,21.61L238.69,64.22L240.13,64.45L241.57,63.58L243.02,65.93L244.46,66.23L245.9,61.76L247.35,62.75L248.79,57.89L250.23,33.11L251.68,31.28L253.12,31.28L254.56,53.74L256,39.88L257.45,30.29L258.89,46.01L260.33,49.05L261.78,46.07L263.22,33.4L264.66,49.54L266.11,51.33L267.55,41.84L268.99,35.77L270.44,49.64L271.88,52.7" style="fill:none;fill-rule:nonzero;stroke:rgb(253,180,98);stroke-width:1.12px;"/>
    </g>
    <g transform="matrix(1,0,0,1,0,129.56)">
        <path d="M26.55,58.42L27.99,67.3L29.43,67.3L30.88,70.37L32.32,81.73L33.76,73.45L35.2,94.74L36.65,111.13L38.09,107.03L39.53,135.09L40.98,105.8L42.42,126L43.86,126.82L45.31,136.27L46.75,136.92L48.19,136.93L49.64,136.72L51.08,136.58L52.52,135.74L53.97,132.88L55.41,135.55L56.85,133.09L58.3,133.03L59.74,133.86L61.18,129.44L62.62,132.91L64.07,133.55L65.51,133.39L66.95,141.03L68.4,127.56L69.84,133.53L71.28,132.05L72.73,130.7L74.17,130.56L75.61,129.93L77.06,130.75L78.5,131.77L79.94,130.49L81.39,132.76L82.83,130.18L84.27,131.71L85.71,134.59L87.16,138.36L88.6,139.94L90.04,135.9L91.49,139.79L92.93,141.61L94.37,140.08L95.82,140.64L97.26,139.94L98.7,141.8L100.15,143.61L101.59,140.54L103.03,138.99L104.48,139.52L105.92,139.77L107.36,141.78L108.8,141.02L110.25,140.69L111.69,138.87L113.13,141.53L114.58,142.52L116.02,140.74L117.46,132.63L118.91,138.87L120.35,141.85L121.79,140.62L123.24,139.7L124.68,140.68L126.12,140.33L127.57,138.83L129.01,139.98L130.45,139.7L131.9,135.98L133.34,135.85L134.78,137.95L136.22,138.83L137.67,138.03L139.11,139.53L140.55,138.29L142,139.09L143.44,139.84L144.88,140.16L146.33,139.22L147.77,137.06L149.21,134.23L150.66,141.28L152.1,137.85L153.54,135.64L154.99,138.53L156.43,134.98L157.87,139.19L159.31,136.07L160.76,135.85L162.2,139.89L163.64,138.89L165.09,132.67L166.53,137.21L167.97,133.56L169.42,141.78L170.86,136.73L172.3,138.16L173.75,134.58L175.19,122.09L176.63,140.38L178.08,139.28L179.52,139.78L180.96,124.84L182.4,136.29L183.85,138.02L185.29,127.76L186.73,135.18L188.18,130.91L189.62,134.36L191.06,138.48L192.51,139.14L193.95,136.26L195.39,135.67L196.84,111.63L198.28,139.21L199.72,133.08L201.17,135.84L202.61,106.59L204.05,114.05L205.5,119.18L206.94,128.05L208.38,131.91L209.82,122.33L211.27,128.24L212.71,122.07L214.15,121.78L215.6,114.15L217.04,121.78L218.48,119.26L219.93,118.7L221.37,118.15L222.81,105.69L224.26,96.67L225.7,95.79L227.14,99.35L228.59,82.46L230.03,93.93L231.47,95.43L232.91,75.11L234.36,75.67L235.8,62.97L237.24,53.12L238.69,65.32L240.13,65.89L241.57,65.81L243.02,65.18L244.46,64.95L245.9,61.11L247.35,59.72L248.79,61.68L250.23,59.5L251.68,53.67L253.12,49.83L254.56,50.09L256,51.03L257.45,49.83L258.89,59.5L260.33,59.5L261.78,53.7L263.22,53.73L264.66,59.5L266.11,67.87L267.55,53.41L268.99,53.41L270.44,60.23L271.88,65.74" style="fill:none;fill-rule:nonzero;stroke:rgb(253,180,98);stroke-width:1.12px;"/>
    </g>
    <g transform="matrix(1,0,0,1,0,289.54)">
        <path d="M25.1,16.73L241.57,16.73" style="fill:none;fill-rule:nonzero;stroke:black;stroke-width:0.75px;"/>
    </g>
    <g transform="matrix(0,1,1,0,10.76,283.56)">
        <path d="M22.71,14.34L27.49,14.34" style="fill:none;fill-rule:nonzero;stroke:black;stroke-width:0.75px;"/>
    </g>
    <g transform="matrix(0,1,1,0,82.92,211.4)">
        <path d="M94.87,14.34L99.65,14.34" style="fill:none;fill-rule:nonzero;stroke:black;stroke-width:0.75px;"/>
    </g>
    <g transform="matrix(0,1,1,0,155.08,139.24)">
        <path d="M167.03,14.34L171.81,14.34" style="fill:none;fill-rule:nonzero;stroke:black;stroke-width:0.75px;"/>
    </g>
    <g transform="matrix(0,1,1,0,227.23,67.09)">
        <path d="M239.18,14.34L243.96,14.34" style="fill:none;fill-rule:nonzero;stroke:black;stroke-width:0.75px;"/>
    </g>
    <g transform="matrix(0,-1,-1,0,93.025,263.435)">
        <path d="M-39.435,76.295L72.895,76.295" style="fill:none;fill-rule:nonzero;stroke:black;stroke-width:0.75px;"/>
    </g>
    <g transform="matrix(-1,0,0,1,28.68,282.74)">
        <path d="M11.95,20.13L16.73,20.13" style="fill:none;fill-rule:nonzero;stroke:black;stroke-width:0.75px;"/>
    </g>
    <g transform="matrix(-1,0,0,1,28.68,237.82)">
        <path d="M11.95,42.59L16.73,42.59" style="fill:none;fill-rule:nonzero;stroke:black;stroke-width:0.75px;"/>
    </g>
    <g transform="matrix(-1,0,0,1,28.68,192.88)">
        <path d="M11.95,65.06L16.73,65.06" style="fill:none;fill-rule:nonzero;stroke:black;stroke-width:0.75px;"/>
    </g>
    <g transform="matrix(-1,0,0,1,28.68,147.94)">
        <path d="M11.95,87.53L16.73,87.53" style="fill:none;fill-rule:nonzero;stroke:black;stroke-width:0.75px;"/>
    </g>
    <g transform="matrix(-1,0,0,1,28.68,103.02)">
        <path d="M11.95,109.99L16.73,109.99" style="fill:none;fill-rule:nonzero;stroke:black;stroke-width:0.75px;"/>
    </g>
    <g transform="matrix(-1,0,0,1,28.68,58.08)">
        <path d="M11.95,132.46L16.73,132.46" style="fill:none;fill-rule:nonzero;stroke:black;stroke-width:0.75px;"/>
    </g>
    <g transform="matrix(1,0,0,1,0,157.78)">
        <rect x="16.73" y="16.73" width="264.96" height="131.76" style="fill:none;stroke:black;stroke-width:0.75px;"/>
    </g>
    <g transform="matrix(1,0,0,1,0,220.2)">
        <path d="M16.73,51.4L281.69,51.4" style="fill:none;fill-rule:nonzero;stroke:rgb(127,201,127);stroke-width:0.75px;"/>
    </g>
    <g transform="matrix(0,-1,-1,0,354.49,512.27)">
        <path d="M206,82.61L337.76,82.61" style="fill:none;fill-rule:nonzero;stroke:black;stroke-width:0.41px;stroke-dasharray:1.24,2.06;"/>
    </g>
    <g transform="matrix(1,0,0,1,0,153.13)">
        <path d="M321.39,78.22L322.83,91.28L324.27,91.42L325.72,91.15L327.16,94.5L328.6,95.07L330.04,95.69L331.49,92.8L332.93,91.24L334.37,103.74L335.82,91.25L337.26,105.63L338.7,107.07L340.15,108.42L341.59,110.2L343.03,109.16L344.48,108.89L345.92,108.02L347.36,107.31L348.81,106.55L350.25,106.81L351.69,107.09L353.14,104.28L354.58,102.01L356.02,102.37L357.46,101.66L358.91,104.78L360.35,97.27L361.79,96.65L363.24,103.43L364.68,102.82L366.12,107.25L367.57,105.31L369.01,106.27L370.45,103.36L371.9,105.25L373.34,102.73L374.78,106.53L376.23,104.26L377.67,104.6L379.11,104.44L380.55,113.36L382,113.99L383.44,110.2L384.88,110.56L386.33,114.09L387.77,115.99L389.21,112.32L390.66,111.47L392.1,100.43L393.54,107.91L394.99,115.35L396.43,109.32L397.87,106.95L399.32,109.06L400.76,110.42L402.2,114.16L403.64,107.07L405.09,108.02L406.53,111.53L407.97,109.67L409.42,113.67L410.86,107.49L412.3,102.51L413.75,108.16L415.19,108.74L416.63,108.86L418.08,111.35L419.52,109.1L420.96,107.01L422.41,108.59L423.85,108.52L425.29,110.82L426.74,112.92L428.18,113.55L429.62,108.18L431.06,108.08L432.51,112.05L433.95,106.59L435.39,109.99L436.84,109.73L438.28,110.67L439.72,109.58L441.17,109.62L442.61,109L444.05,108.4L445.5,111.82L446.94,114.67L448.38,116.17L449.83,111.43L451.27,116.97L452.71,111.58L454.15,112.92L455.6,114.84L457.04,114.59L458.48,121.63L459.93,117.19L461.37,114.55L462.81,113.61L464.26,120.17L465.7,113.96L467.14,116.87L468.59,105.7L470.03,96.12L471.47,117.55L472.92,115.18L474.36,112.07L475.8,102.92L477.24,110.04L478.69,115.63L480.13,101L481.57,108.87L483.02,108.18L484.46,110.52L485.9,114.7L487.35,115.78L488.79,114.03L490.23,113.74L491.68,98.31L493.12,114.72L494.56,110L496.01,115.26L497.45,86.03L498.89,92.61L500.34,99.8L501.78,104.44L503.22,98.78L504.66,104.7L506.11,98.72L507.55,103.47L508.99,104.18L510.44,93.07L511.88,100.45L513.32,99.37L514.77,107.27L516.21,98.26L517.65,94.92L519.1,81.16L520.54,87.96L521.98,93.15L523.43,85.4L524.87,95.08L526.31,86.03L527.75,80.23L529.2,83.52L530.64,78.37L532.08,76.44L533.53,60.64L534.97,58.54L536.41,60.94L537.86,55.65L539.3,51.7L540.74,50.73L542.19,50.32L543.63,52.92L545.07,57.55L546.52,63.77L547.96,48.24L549.4,51.43L550.84,50.11L552.29,58.6L553.73,58.61L555.17,59.35L556.62,53.24L558.06,55.18L559.5,57.11L560.95,59.28L562.39,51.15L563.83,51.81L565.28,57.71L566.72,65.13" style="fill:none;fill-rule:nonzero;stroke:rgb(56,108,176);stroke-width:1.65px;"/>
    </g>
    <g transform="matrix(1,0,0,1,0,196.75)">
        <path d="M321.39,79.09L322.83,80.02L327.16,80.02L328.6,85.39L330.04,83.68L331.49,80.02L332.93,79.86L334.37,80.02L337.26,80.02L338.7,80.44L340.15,86.5L341.59,87.78L343.03,86.85L344.48,86.74L345.92,85.48L347.36,82.34L348.81,82.92L350.25,82.92L351.69,83.71L353.14,80.02L354.58,80.02L356.02,78.06L357.46,80L358.91,81.96L360.35,78.08L361.79,79.08L363.24,86.68L364.68,81.4L366.12,83.27L367.57,82.54L369.01,83.7L370.45,82.98L371.9,82.28L373.34,80.05L374.78,81.88L376.23,80.94L377.67,80.38L379.11,82.92L380.55,83.02L382,87.99L383.44,79.52L384.88,82.59L386.33,85.81L387.77,85.83L389.21,81.45L390.66,85.97L392.1,78.93L393.54,82.69L394.99,84.9L396.43,78.1L397.87,78.71L399.32,76.41L400.76,78.72L402.2,81.56L403.64,78.26L405.09,78.35L406.53,83.08L407.97,78.34L409.42,82.68L410.86,80.29L412.3,81.37L413.75,78.87L415.19,80.75L416.63,79.56L418.08,80.91L419.52,80.81L420.96,76.63L422.41,78.66L423.85,82.48L425.29,79.13L426.74,80.96L428.18,91.53L429.62,83.34L431.06,85.61L432.51,79.95L433.95,85.21L435.39,86.11L436.84,82.77L438.28,85.87L439.72,86.65L441.17,85.61L442.61,83.28L444.05,86.48L445.5,86.08L446.94,79.22L448.38,89.33L449.83,85.93L451.27,86.12L452.71,82.57L454.15,84.23L455.6,87.87L457.04,90.13L458.48,94.41L459.93,91.13L461.37,84.59L462.81,83.31L464.26,93.29L465.7,91.73L467.14,89.48L468.59,83.24L470.03,87.71L471.47,86.57L472.92,88.81L474.36,86.11L475.8,83.18L477.24,84.79L478.69,87.19L480.13,83.27L481.57,83.19L483.02,82.84L484.46,85.4L485.9,86.65L487.35,91.28L488.79,88.19L490.23,86.23L491.68,82.52L493.12,89.3L494.56,86.3L496.01,88.88L497.45,78.26L498.89,81.86L500.34,81.86L501.78,83.87L503.22,82.57L504.66,82.57L506.11,83.76L507.55,84.02L508.99,83.85L510.44,81.43L511.88,83.43L513.32,88.69L514.77,91.86L516.21,83.95L517.65,91.64L519.1,79.67L520.54,82.98L521.98,92.3L523.43,79.86L524.87,98.15L526.31,85.63L527.75,69.2L529.2,84.22L530.64,76.51L532.08,104.64L533.53,44.65L534.97,43.9L536.41,34.57L537.86,29.13L539.3,26.07L540.74,26.07L542.19,27.29L543.63,29.1L545.07,40.82L546.52,47.7L547.96,21.61L549.4,37.79L550.84,22.75L552.29,39.14L553.73,44.61L555.17,43.18L556.62,34.22L558.06,40.52L559.5,40.77L560.95,43.54L562.39,32.22L563.83,33.65L565.28,40.6L566.72,50.01" style="fill:none;fill-rule:nonzero;stroke:rgb(253,180,98);stroke-width:1.12px;"/>
    </g>
    <g transform="matrix(1,0,0,1,0,117.14)">
        <path d="M321.39,62.25L322.83,78.38L324.27,78.38L325.72,76.94L327.16,76.94L328.6,79.61L330.04,93.45L331.49,88.25L332.93,76.71L334.37,114.33L335.82,84.42L337.26,119.96L338.7,119.07L340.15,120.75L341.59,131.36L343.03,126.99L344.48,127.9L345.92,127.49L347.36,127.49L348.81,121.94L350.25,121.06L351.69,121.2L353.14,116.9L354.58,115.07L356.02,116.57L357.46,114.47L358.91,119.78L360.35,107.57L361.79,106.72L363.24,94.1L364.68,112.67L366.12,120.32L367.57,115.65L369.01,116.58L370.45,110.42L371.9,110.42L373.34,107.98L374.78,115.17L376.23,107.86L377.67,117.11L379.11,104.98L380.55,131.16L382,130.45L383.44,130.67L384.88,130.16L386.33,134.69L387.77,139.47L389.21,133.24L390.66,127.4L392.1,107.46L393.54,126.32L394.99,138.33L396.43,133.19L397.87,130.01L399.32,133.26L400.76,133.66L402.2,133.31L403.64,130.11L405.09,130.62L406.53,129.59L407.97,133.44L409.42,136.07L410.86,129.92L412.3,101.12L413.75,131.61L415.19,131.77L416.63,131.61L418.08,133.35L419.52,133.4L420.96,132.08L422.41,131.46L423.85,132.23L425.29,136.37L426.74,135.63L428.18,136.25L429.62,118.18L431.06,120.29L432.51,136.23L433.95,111.09L435.39,127.34L436.84,124.35L438.28,133.44L439.72,122.53L441.17,119.27L442.61,120.02L444.05,110.97L445.5,126.25L446.94,143.61L448.38,134.33L449.83,128.78L451.27,143.24L452.71,124.91L454.15,129.91L455.6,136.08L457.04,134.67L458.48,143.53L459.93,138.32L461.37,135.71L462.81,136.47L464.26,139.97L465.7,130.9L467.14,141.36L468.59,109.52L470.03,84.78L471.47,142.41L472.92,129.09L474.36,126.39L475.8,97.32L477.24,126.77L478.69,135.54L480.13,90.53L481.57,120.01L483.02,115.07L484.46,115.65L485.9,127.92L487.35,136.33L488.79,126.59L490.23,123.7L491.68,94.77L493.12,134.4L494.56,117.89L496.01,127.54L497.45,75.44L498.89,80.69L500.34,99.6L501.78,107.69L503.22,96.91L504.66,100.82L506.11,98.04L507.55,100.11L508.99,97.91L510.44,86.68L511.88,97.01L513.32,89.88L514.77,99.85L516.21,97.97L517.65,83.59L519.1,78.64L520.54,83.25L521.98,84.31L523.43,83.1L524.87,87.9L526.31,77.3L527.75,82.48L529.2,79.9L530.64,76.51L532.08,73.34L533.53,71.21L534.97,69.47L536.41,73L537.86,72.95L539.3,72.04L540.74,71.5L542.19,71.5L543.63,71.54L545.07,71.51L546.52,71.5L547.96,69.97L549.4,69.16L550.84,69.89L552.29,71.45L553.73,71.5L555.17,71.5L556.62,69.16L558.06,69.16L559.5,71.5L560.95,72L562.39,69.16L563.83,69.16L565.28,71.5L566.72,73" style="fill:none;fill-rule:nonzero;stroke:rgb(253,180,98);stroke-width:1.12px;"/>
    </g>
    <g transform="matrix(1,0,0,1,0,289.54)">
        <path d="M319.94,16.73L536.41,16.73" style="fill:none;fill-rule:nonzero;stroke:black;stroke-width:0.75px;"/>
    </g>
    <g transform="matrix(0,1,1,0,305.6,-11.28)">
        <path d="M317.55,14.34L322.33,14.34" style="fill:none;fill-rule:nonzero;stroke:black;stroke-width:0.75px;"/>
    </g>
    <g transform="matrix(0,1,1,0,377.76,-83.44)">
        <path d="M389.71,14.34L394.49,14.34" style="fill:none;fill-rule:nonzero;stroke:black;stroke-width:0.75px;"/>
    </g>
    <g transform="matrix(0,1,1,0,449.92,-155.6)">
        <path d="M461.87,14.34L466.65,14.34" style="fill:none;fill-rule:nonzero;stroke:black;stroke-width:0.75px;"/>
    </g>
    <g transform="matrix(0,1,1,0,522.07,-227.75)">
        <path d="M534.02,14.34L538.8,14.34" style="fill:none;fill-rule:nonzero;stroke:black;stroke-width:0.75px;"/>
    </g>
    <g transform="matrix(0,-1,-1,0,402.88,543.26)">
        <path d="M256.45,91.31L366.69,91.31" style="fill:none;fill-rule:nonzero;stroke:black;stroke-width:0.75px;"/>
    </g>
    <g transform="matrix(-1,0,0,1,618.36,250.62)">
        <path d="M306.79,36.19L311.57,36.19" style="fill:none;fill-rule:nonzero;stroke:black;stroke-width:0.75px;"/>
    </g>
    <g transform="matrix(-1,0,0,1,618.36,206.52)">
        <path d="M306.79,58.24L311.57,58.24" style="fill:none;fill-rule:nonzero;stroke:black;stroke-width:0.75px;"/>
    </g>
    <g transform="matrix(-1,0,0,1,618.36,162.44)">
        <path d="M306.79,80.28L311.57,80.28" style="fill:none;fill-rule:nonzero;stroke:black;stroke-width:0.75px;"/>
    </g>
    <g transform="matrix(-1,0,0,1,618.36,118.34)">
        <path d="M306.79,102.33L311.57,102.33" style="fill:none;fill-rule:nonzero;stroke:black;stroke-width:0.75px;"/>
    </g>
    <g transform="matrix(-1,0,0,1,618.36,74.24)">
        <path d="M306.79,124.38L311.57,124.38" style="fill:none;fill-rule:nonzero;stroke:black;stroke-width:0.75px;"/>
    </g>
    <g transform="matrix(-1,0,0,1,618.36,30.14)">
        <path d="M306.79,146.43L311.57,146.43" style="fill:none;fill-rule:nonzero;stroke:black;stroke-width:0.75px;"/>
    </g>
    <g transform="matrix(1,0,0,1,0,157.78)">
        <rect x="311.57" y="16.73" width="264.96" height="131.76" style="fill:none;stroke:black;stroke-width:0.75px;"/>
    </g>
    <g transform="matrix(1,0,0,1,0,123.24)">
        <path d="M311.57,99.88L576.53,99.88" style="fill:none;fill-rule:nonzero;stroke:rgb(127,201,127);stroke-width:0.75px;"/>
    </g>
    <g transform="matrix(0,-1,-1,0,649.33,807.11)">
        <path d="M500.84,82.61L632.6,82.61" style="fill:none;fill-rule:nonzero;stroke:black;stroke-width:0.41px;stroke-dasharray:1.24,2.06;"/>
    </g>
    <text x="22.32px" y="159.57px" style="font-family:'Helvetica';font-size:10px;">0</text>
    <text x="91.7px" y="159.57px" style="font-family:'Helvetica';font-size:10px;">50</text>
    <text x="161.08px" y="159.57px" style="font-family:'Helvetica';font-size:10px;">100</text>
    <text x="233.23px" y="159.57px" style="font-family:'Helvetica';font-size:10px;">150</text>
    <g transform="matrix(0,-1,1,0,0,0)">
        <text x="-134.7px" y="8.96px" style="font-family:'Helvetica';font-size:10px;">−</text>
        <text x="-131.37px" y="8.96px" style="font-family:'Helvetica';font-size:10px;">1e</text>
        <text x="-120.25px" y="8.96px" style="font-family:'Helvetica';font-size:10px;">−</text>
        <text x="-116.92px" y="8.96px" style="font-family:'Helvetica';font-size:10px;">04</text>
    </g>
    <g transform="matrix(0,-1,1,0,0,0)">
        <text x="-76.33px" y="8.96px" style="font-family:'Helvetica';font-size:10px;">0e+00</text>
    </g>
    <g>
        <text x="44.03px" y="115.7px" style="font-family:'Helvetica';font-size:6px;">P</text>
        <text x="47.732px" y="115.7px" style="font-family:'Helvetica';font-size:6px;">oste</text>
        <text x="59.072px" y="115.7px" style="font-family:'Helvetica';font-size:6px;">r</text>
        <text x="61.16px" y="115.7px" style="font-family:'Helvetica';font-size:6px;">ior Mean</text>
    </g>
    <text x="44.03px" y="123.47px" style="font-family:'Helvetica';font-size:6px;">16 &amp; 84% quantiles</text>
    <text x="44.03px" y="131.24px" style="font-family:'Helvetica';font-size:6px;">OLS</text>
    <g>
        <text x="44.03px" y="139.01px" style="font-family:'Helvetica';font-size:6px;">OOS sta</text>
        <text x="67.04px" y="139.01px" style="font-family:'Helvetica';font-size:6px;">r<tspan x="69.278px " y="139.01px ">t</tspan></text>
    </g>
    <text x="317.16px" y="159.57px" style="font-family:'Helvetica';font-size:10px;">0</text>
    <text x="386.54px" y="159.57px" style="font-family:'Helvetica';font-size:10px;">50</text>
    <text x="455.92px" y="159.57px" style="font-family:'Helvetica';font-size:10px;">100</text>
    <text x="528.07px" y="159.57px" style="font-family:'Helvetica';font-size:10px;">150</text>
    <g transform="matrix(0,-1,1,0,0,0)">
        <text x="-131.57px" y="303.8px" style="font-family:'Helvetica';font-size:10px;">−</text>
        <text x="-128.24px" y="303.8px" style="font-family:'Helvetica';font-size:10px;">5e</text>
        <text x="-117.12px" y="303.8px" style="font-family:'Helvetica';font-size:10px;">−</text>
        <text x="-113.79px" y="303.8px" style="font-family:'Helvetica';font-size:10px;">05 <tspan x="-86.56px " y="303.8px ">0</tspan>e+00 <tspan x="-44.48px " y="303.8px ">5</tspan>e</text>
        <text x="-33.36px" y="303.8px" style="font-family:'Helvetica';font-size:10px;">−</text>
        <text x="-30.03px" y="303.8px" style="font-family:'Helvetica';font-size:10px;">05</text>
    </g>
    <text x="22.32px" y="321.21px" style="font-family:'Helvetica';font-size:10px;">0</text>
    <text x="91.7px" y="321.21px" style="font-family:'Helvetica';font-size:10px;">50</text>
    <text x="161.08px" y="321.21px" style="font-family:'Helvetica';font-size:10px;">100</text>
    <text x="233.23px" y="321.21px" style="font-family:'Helvetica';font-size:10px;">150</text>
    <g transform="matrix(0,-1,1,0,0,0)">
        <text x="-323.86px" y="8.96px" style="font-family:'Helvetica';font-size:10px;">−</text>
        <text x="-320.53px" y="8.96px" style="font-family:'Helvetica';font-size:10px;">0.00005</text>
    </g>
    <g transform="matrix(0,-1,1,0,0,0)">
        <text x="-253.54px" y="8.96px" style="font-family:'Helvetica';font-size:10px;">0.00010 <tspan x="-208.61px " y="8.96px ">0</tspan>.00020</text>
    </g>
    <text x="317.16px" y="321.21px" style="font-family:'Helvetica';font-size:10px;">0</text>
    <text x="386.54px" y="321.21px" style="font-family:'Helvetica';font-size:10px;">50</text>
    <text x="455.92px" y="321.21px" style="font-family:'Helvetica';font-size:10px;">100</text>
    <text x="528.07px" y="321.21px" style="font-family:'Helvetica';font-size:10px;">150</text>
    <g transform="matrix(0,-1,1,0,0,0)">
        <text x="-296.68px" y="303.8px" style="font-family:'Helvetica';font-size:10px;">−</text>
        <text x="-293.35px" y="303.8px" style="font-family:'Helvetica';font-size:10px;">0.2</text>
    </g>
    <g transform="matrix(0,-1,1,0,0,0)">
        <text x="-249.67px" y="303.8px" style="font-family:'Helvetica';font-size:10px;">0.2</text>
    </g>
    <g transform="matrix(0,-1,1,0,0,0)">
        <text x="-205.57px" y="303.8px" style="font-family:'Helvetica';font-size:10px;">0.6</text>
    </g>
</svg>
