<?xml version="1.0" encoding="UTF-8" standalone="no"?>
<!DOCTYPE svg PUBLIC "-//W3C//DTD SVG 1.1//EN" "http://www.w3.org/Graphics/SVG/1.1/DTD/svg11.dtd">
<svg width="100%" height="100%" viewBox="0 0 578 392" version="1.1" xmlns="http://www.w3.org/2000/svg" xmlns:xlink="http://www.w3.org/1999/xlink" xml:space="preserve" xmlns:serif="http://www.serif.com/" style="fill-rule:evenodd;clip-rule:evenodd;stroke-linecap:round;stroke-linejoin:round;stroke-miterlimit:10;">
    <g transform="matrix(1,0,0,1,0,-0.4)">
        <rect x="0" y="0" width="578.16" height="392.4" style="fill:white;"/>
    </g>
    <g transform="matrix(1,0,0,1,0,-185.31)">
        <path d="M26.33,321.23L27.75,324.87L29.17,325.77L30.59,325.84L32.01,330.82L33.43,326.21L34.85,330.45L36.27,329.22L37.69,330.61L39.11,328.13L40.53,327.97L41.95,327.11L43.37,328.87L44.79,331.23L46.21,329.73L47.63,330.42L49.05,332.21L50.47,331.22L51.89,330.92L53.32,322.38L54.74,322.52L56.16,318.26L57.58,322.5L59,304.08L60.42,310.38L61.84,301L63.26,301.86L64.68,289.91L66.1,284.45L67.52,277.67L68.94,286.51L70.36,291.16L71.78,288.59L73.2,284.38L74.62,282.65L76.04,282.31L77.46,280.09L78.88,280.15L80.3,280.62L81.72,279.85L83.14,286.93L84.56,283.94L85.98,280.55L87.4,289.05L88.82,288.55L90.24,283.82L91.66,279.88L93.08,286.01L94.5,282.92L95.92,287.92L97.34,286.3L98.76,285.84L100.18,296.93L101.6,298.12L103.02,296.97L104.44,294.21L105.86,289.88L107.28,297.22L108.7,299.17L110.12,293.14L111.54,296.49L112.96,293.16L114.38,293.43L115.8,294.03L117.22,297.16L118.64,293.31L120.06,293.58L121.48,291.63L122.9,290.38L124.32,291.37L125.74,292.57L127.16,289.93L128.58,289.56L130,287.64L131.42,286.4L132.84,285.38L134.26,286.66L135.68,288.02L137.1,287.46L138.52,289.18L139.94,287.91L141.36,285.58L142.78,287.88L144.2,286.21L145.62,285.06L147.04,291.59L148.46,288.13L149.88,282.38L151.3,284.79L152.72,284.14L154.14,284.21L155.56,283.98L156.98,286.43L158.4,285.71L159.82,286.21L161.24,284.04L162.66,279.36L164.08,286.85L165.5,289.65L166.92,288.37L168.34,290.27L169.76,284.86L171.18,289.7L172.6,287.44L174.03,287.84L175.45,286.74L176.87,290.46L178.29,292.45L179.71,290.76L181.13,291.15L182.55,293.43L183.97,290.45L185.39,292.88L186.81,289.01L188.23,292.18L189.65,289.68L191.07,295.11L192.49,294.35L193.91,297.43L195.33,293.57L196.75,292.72L198.17,291.32L199.59,298.52L201.01,299.09L202.43,293.52L203.85,293.44L205.27,294.87L206.69,295.58L208.11,297.4L209.53,296.83L210.95,296.31L212.37,299.59L213.79,299.04L215.21,297.52L216.63,300.76L218.05,300.17L219.47,297.16L220.89,305.75L222.31,301.57L223.73,302.11L225.15,302.56L226.57,302.12L227.99,300.1L229.41,303.27L230.83,298.81L232.25,300.86L233.67,304.4L235.09,304.89L236.51,305.85L237.93,304.25L239.35,298.94L240.77,300.61L242.19,302.11L243.61,301.64L245.03,291.59L246.45,291.11L247.87,278.21L249.29,288.92L250.71,294.27L252.13,284.96L253.55,282.09L254.97,280.4L256.39,279.01L257.81,286.28L259.23,287.09L260.65,285.56L262.07,278.53L263.49,287.05L264.91,287.29L266.33,245.1" style="fill:none;fill-rule:nonzero;stroke:rgb(56,108,176);stroke-width:1.65px;"/>
    </g>
    <g transform="matrix(1,0,0,1,0,-112.15)">
        <path d="M26.33,274.63L27.75,276.63L29.17,276.79L30.59,276.85L32.01,279.47L33.43,278.78L34.85,280.99L36.27,280.01L37.69,285.06L39.11,281.64L40.53,282.71L41.95,283.56L43.37,282.16L44.79,282.16L46.21,281.74L47.63,280.88L49.05,282L50.47,282.02L51.89,281.97L53.32,277.49L54.74,275.74L56.16,270.09L57.58,269.94L59,262.89L60.42,258.97L61.84,254.81L63.26,256.36L64.68,252.12L66.1,246.22L67.52,240.69L68.94,246.23L70.36,250.02L71.78,248.29L73.2,241.86L74.62,241.95L76.04,239.4L77.46,239.9L78.88,239.4L80.3,235.48L81.72,234.52L83.14,234.66L84.56,232.31L85.98,229.51L87.4,233.06L88.82,235.51L90.24,228.82L91.66,225.89L93.08,232.53L94.5,229.31L95.92,232.53L97.34,229.34L98.76,227.81L100.18,237.69L101.6,244L103.02,236.13L104.44,234.72L105.86,232.81L107.28,237.76L108.7,241L110.12,238.95L111.54,236.39L112.96,233.42L114.38,234.45L115.8,238.53L117.22,238.29L118.64,233.47L120.06,233.79L121.48,230.81L122.9,231.57L124.32,233.88L125.74,233.43L127.16,231.63L128.58,228.44L130,226.68L131.42,228.99L132.84,228.36L134.26,227.23L135.68,230.88L137.1,227.16L138.52,230.81L139.94,227.45L141.36,225.29L142.78,231.51L144.2,228.78L145.62,228.21L147.04,237.08L148.46,229.83L149.88,221.43L151.3,229.51L152.72,225.66L154.14,224.76L155.56,232.7L156.98,230.73L158.4,228.51L159.82,229.07L161.24,221.6L162.66,219.09L164.08,228.26L165.5,232.33L166.92,229.38L168.34,232.19L169.76,221.66L171.18,231.31L172.6,228.89L174.03,224.43L175.45,225.71L176.87,227.33L178.29,227.32L179.71,229.71L181.13,228.3L182.55,231.09L183.97,227.88L185.39,232.53L186.81,226.1L188.23,229.79L189.65,227.07L191.07,233.31L192.49,230.96L193.91,246.22L195.33,235.03L196.75,234.29L198.17,229.83L199.59,245.17L201.01,243.82L202.43,236.57L203.85,236.58L205.27,237.77L206.69,236.7L208.11,241.39L209.53,238.53L210.95,239.55L212.37,245.89L213.79,242.25L215.21,245.95L216.63,247.25L218.05,244.57L219.47,247.15L220.89,255.44L222.31,251.37L223.73,250.43L225.15,255.64L226.57,251.58L227.99,250.68L229.41,259.16L230.83,250.17L232.25,259.85L233.67,265.56L235.09,264.25L236.51,275.31L237.93,263.48L239.35,261L240.77,261.55L242.19,259.5L243.61,259.67L245.03,250.69L246.45,251.86L247.87,235.43L249.29,253.04L250.71,256.21L252.13,249.97L253.55,245.5L254.97,243.42L256.39,242.87L257.81,247.95L259.23,248.33L260.65,248.48L262.07,245.89L263.49,248.55L264.91,249.02L266.33,232.21" style="fill:none;fill-rule:nonzero;stroke:rgb(253,180,98);stroke-width:1.12px;"/>
    </g>
    <g transform="matrix(1,0,0,1,0,-242.72)">
        <path d="M26.33,357.06L27.75,364.98L29.17,366.21L30.59,366.34L32.01,373.09L33.43,367.67L34.85,372.05L36.27,369.62L37.69,361.03L39.11,359.18L40.53,358.42L41.95,356.58L43.37,361.33L44.79,367.92L46.21,367.9L47.63,367.93L49.05,370.17L50.47,369.27L51.89,368.22L53.32,358.4L54.74,358.94L56.16,355.65L57.58,359.21L59,334.25L60.42,346.5L61.84,329.43L63.26,329.83L64.68,309.72L66.1,300.74L67.52,294.52L68.94,303.81L70.36,307L71.78,303.42L73.2,301.7L74.62,296.48L76.04,301.63L77.46,297.81L78.88,298.43L80.3,301.65L81.72,302.37L83.14,319.29L84.56,315.44L85.98,314.67L87.4,330.11L88.82,324.1L90.24,318.36L91.66,317.13L93.08,326.79L94.5,318.29L95.92,331.7L97.34,331.23L98.76,330.01L100.18,341.14L101.6,338.3L103.02,341.32L104.44,338.46L105.86,331.62L107.28,339.62L108.7,341.2L110.12,328.45L111.54,339.92L112.96,335.59L114.38,335.98L115.8,328.32L117.22,340.33L118.64,336.85L120.06,337.9L121.48,337.73L122.9,332.9L124.32,332.96L125.74,336.62L127.16,332.29L128.58,336.61L130,334.28L131.42,329.48L132.84,328.2L134.26,330.39L135.68,330.52L137.1,330.46L138.52,331.83L139.94,331.93L141.36,329.1L142.78,329.36L144.2,328.19L145.62,326.66L147.04,333.15L148.46,330.84L149.88,328.46L151.3,326.33L152.72,325.89L154.14,328.21L155.56,322.25L156.98,329.05L158.4,327.91L159.82,328.63L161.24,330.91L162.66,324.28L164.08,330.08L165.5,331.82L166.92,329.46L168.34,335.3L169.76,333.13L171.18,332.41L172.6,328.07L174.03,334.57L175.45,331.86L176.87,339.8L178.29,337.02L179.71,336.2L181.13,339.08L182.55,337.97L183.97,336.83L185.39,337.96L186.81,332.69L188.23,339.87L189.65,339.06L191.07,342.44L192.49,341.67L193.91,338.34L195.33,339.89L196.75,338.48L198.17,337.56L199.59,339.38L201.01,342.68L202.43,338.24L203.85,338.92L205.27,340.31L206.69,342.73L208.11,341.3L209.53,342.5L210.95,341.29L212.37,342.11L213.79,342.26L215.21,338.85L216.63,341.95L218.05,342.82L219.47,334.88L220.89,345.13L222.31,341.19L223.73,344.11L225.15,341.34L226.57,341.34L227.99,339.86L229.41,339.07L230.83,336.08L232.25,331.76L233.67,323.69L235.09,323.8L236.51,321.57L237.93,323.8L239.35,319.97L240.77,320.3L242.19,322.83L243.61,319.97L245.03,313.72L246.45,313.41L247.87,307.19L249.29,312.64L250.71,312.64L252.13,310.75L253.55,311.09L254.97,307.17L256.39,307.53L257.81,312.64L259.23,312.68L260.65,312.04L262.07,301.53L263.49,312.64L264.91,312.64L266.33,261.63" style="fill:none;fill-rule:nonzero;stroke:rgb(253,180,98);stroke-width:1.12px;"/>
    </g>
    <g transform="matrix(1,0,0,1,0,-33.86)">
        <path d="M24.91,212.93L237.93,212.93" style="fill:none;fill-rule:nonzero;stroke:black;stroke-width:0.75px;"/>
    </g>
    <g transform="matrix(0,1,1,0,-185.63,156.55)">
        <path d="M22.52,210.54L27.3,210.54" style="fill:none;fill-rule:nonzero;stroke:black;stroke-width:0.75px;"/>
    </g>
    <g transform="matrix(0,1,1,0,-114.62,85.54)">
        <path d="M93.53,210.54L98.31,210.54" style="fill:none;fill-rule:nonzero;stroke:black;stroke-width:0.75px;"/>
    </g>
    <g transform="matrix(0,1,1,0,-43.62,14.54)">
        <path d="M164.53,210.54L169.31,210.54" style="fill:none;fill-rule:nonzero;stroke:black;stroke-width:0.75px;"/>
    </g>
    <g transform="matrix(0,1,1,0,27.39,-56.47)">
        <path d="M235.54,210.54L240.32,210.54" style="fill:none;fill-rule:nonzero;stroke:black;stroke-width:0.75px;"/>
    </g>
    <g transform="matrix(0,-1,-1,0,319.195,106.265)">
        <path d="M-59.375,302.465L92.835,302.465" style="fill:none;fill-rule:nonzero;stroke:black;stroke-width:0.75px;"/>
    </g>
    <g transform="matrix(-1,0,0,1,28.68,-60.72)">
        <path d="M11.95,226.36L16.73,226.36" style="fill:none;fill-rule:nonzero;stroke:black;stroke-width:0.75px;"/>
    </g>
    <g transform="matrix(-1,0,0,1,28.68,-104.2)">
        <path d="M11.95,248.1L16.73,248.1" style="fill:none;fill-rule:nonzero;stroke:black;stroke-width:0.75px;"/>
    </g>
    <g transform="matrix(-1,0,0,1,28.68,-147.7)">
        <path d="M11.95,269.85L16.73,269.85" style="fill:none;fill-rule:nonzero;stroke:black;stroke-width:0.75px;"/>
    </g>
    <g transform="matrix(-1,0,0,1,28.68,-191.18)">
        <path d="M11.95,291.59L16.73,291.59" style="fill:none;fill-rule:nonzero;stroke:black;stroke-width:0.75px;"/>
    </g>
    <g transform="matrix(-1,0,0,1,28.68,-234.68)">
        <path d="M11.95,313.34L16.73,313.34" style="fill:none;fill-rule:nonzero;stroke:black;stroke-width:0.75px;"/>
    </g>
    <g transform="matrix(-1,0,0,1,28.68,-278.16)">
        <path d="M11.95,335.08L16.73,335.08" style="fill:none;fill-rule:nonzero;stroke:black;stroke-width:0.75px;"/>
    </g>
    <g transform="matrix(-1,0,0,1,28.68,-321.66)">
        <path d="M11.95,356.83L16.73,356.83" style="fill:none;fill-rule:nonzero;stroke:black;stroke-width:0.75px;"/>
    </g>
    <g transform="matrix(-1,0,0,1,28.68,-365.14)">
        <path d="M11.95,378.57L16.73,378.57" style="fill:none;fill-rule:nonzero;stroke:black;stroke-width:0.75px;"/>
    </g>
    <g transform="matrix(1,0,0,1,0,-200.18)">
        <rect x="16.73" y="212.93" width="259.2" height="166.32" style="fill:none;stroke:black;stroke-width:0.75px;"/>
    </g>
    <g transform="matrix(1,0,0,1,0,-123.06)">
        <path d="M16.73,257.53L275.93,257.53" style="fill:none;fill-rule:nonzero;stroke:rgb(127,201,127);stroke-width:0.75px;"/>
    </g>
    <g transform="matrix(0,-1,-1,0,562.42,362.24)">
        <path d="M183.17,296.09L349.49,296.09" style="fill:none;fill-rule:nonzero;stroke:black;stroke-width:0.41px;stroke-dasharray:1.24,2.06;"/>
    </g>
    <g transform="matrix(1,0,0,1,0,-200.22)">
        <path d="M315.41,302.12L316.83,314.3L318.25,313.67L319.67,312.72L321.09,311.36L322.51,313.58L323.93,309.51L325.35,312.89L326.77,322.69L328.19,322.5L329.61,320.73L331.03,324.55L332.45,321.14L333.87,321.42L335.29,324.09L336.71,325.6L338.13,322.86L339.55,323.65L340.97,324.45L342.4,326.4L343.82,328.2L345.24,327.05L346.66,325.79L348.08,339.72L349.5,329.64L350.92,336.91L352.34,327.75L353.76,338.83L355.18,339.5L356.6,343.38L358.02,339.3L359.44,334.35L360.86,335.81L362.28,334.22L363.7,332.66L365.12,333.23L366.54,333.9L367.96,333.72L369.38,327.31L370.8,324.24L372.22,316.4L373.64,315.26L375.06,320.96L376.48,309.86L377.9,308.04L379.32,311.69L380.74,314.24L382.16,305.66L383.58,310.74L385,301.32L386.42,299.14L387.84,297.07L389.26,292.95L390.68,296.99L392.1,290.76L393.52,285.61L394.94,287.25L396.36,282.94L397.78,286.65L399.2,297.21L400.62,281.3L402.04,285.37L403.46,282.4L404.88,296.85L406.3,284.08L407.72,281.36L409.14,283.61L410.56,284.18L411.98,286.19L413.4,287.84L414.82,282.78L416.24,283.6L417.66,283.6L419.08,288.62L420.5,288.01L421.92,290.09L423.34,289.89L424.76,282.43L426.18,290.9L427.6,283.91L429.02,278.61L430.44,286.62L431.86,287.93L433.28,288.45L434.7,283.34L436.12,276.76L437.54,297.09L438.96,283.56L440.38,280.02L441.8,292.1L443.22,276.92L444.64,286.38L446.06,278.5L447.48,276.36L448.9,289.27L450.32,278.99L451.74,283.12L453.16,282.12L454.58,282.85L456,287.79L457.42,286.41L458.84,278.32L460.26,291.28L461.68,288.64L463.11,281.9L464.53,287.21L465.95,279.68L467.37,280L468.79,288.84L470.21,282.32L471.63,278.83L473.05,282.36L474.47,290.92L475.89,281.8L477.31,287.27L478.73,282.63L480.15,289.07L481.57,288.45L482.99,289.12L484.41,288.77L485.83,286.23L487.25,290.78L488.67,292.23L490.09,288.32L491.51,295.17L492.93,292.43L494.35,290.33L495.77,293.92L497.19,293.48L498.61,295.26L500.03,291.39L501.45,290.47L502.87,290.1L504.29,293.95L505.71,292.26L507.13,296.02L508.55,294.08L509.97,285.95L511.39,290.55L512.81,290.84L514.23,286.07L515.65,284.65L517.07,283.54L518.49,290.79L519.91,278.45L521.33,280.14L522.75,280.19L524.17,270.49L525.59,248.84L527.01,301.12L528.43,309.8L529.85,301.6L531.27,286.02L532.69,277.15L534.11,283.64L535.53,281.4L536.95,289.89L538.37,287L539.79,271.04L541.21,287.59L542.63,281.52L544.05,288.81L545.47,285.73L546.89,289.13L548.31,280.41L549.73,281.88L551.15,289.27L552.57,288.02L553.99,281.52L555.41,275.42" style="fill:none;fill-rule:nonzero;stroke:rgb(56,108,176);stroke-width:1.65px;"/>
    </g>
    <g transform="matrix(1,0,0,1,0,-147.49)">
        <path d="M315.41,279.92L316.83,283.43L318.25,282.93L319.67,281.65L321.09,281.14L322.51,282.43L323.93,276.75L325.35,281.35L326.77,291.69L328.19,284.78L329.61,290.18L331.03,289.88L332.45,280.26L333.87,281.12L335.29,283.65L336.71,285.56L338.13,282.56L339.55,283.64L340.97,284.46L342.4,287.83L343.82,286.78L345.24,287.96L346.66,287.33L348.08,306.91L349.5,293.04L350.92,307.11L352.34,299.68L353.76,318.23L355.18,320.29L356.6,320.4L358.02,316.09L359.44,316.26L360.86,318.11L362.28,318.11L363.7,314.84L365.12,314.11L366.54,314.09L367.96,314.72L369.38,310.67L370.8,307.41L372.22,296.23L373.64,302.48L375.06,305.65L376.48,290.85L377.9,293.31L379.32,296.46L380.74,300.9L382.16,295.24L383.58,298.57L385,278.29L386.42,268.01L387.84,260.45L389.26,260.99L390.68,265.77L392.1,253.28L393.52,249.73L394.94,253.21L396.36,245L397.78,249.33L399.2,271.26L400.62,241.22L402.04,246.85L403.46,244.14L404.88,268.96L406.3,246.18L407.72,242.67L409.14,243.99L410.56,245.09L411.98,245.58L413.4,250.35L414.82,245.26L416.24,246.4L417.66,245.75L419.08,252.3L420.5,250.26L421.92,251.79L423.34,253.74L424.76,243.9L426.18,255.87L427.6,244.62L429.02,242.12L430.44,249.47L431.86,259.24L433.28,252.71L434.7,249.67L436.12,242.77L437.54,261.16L438.96,244.5L440.38,249.4L441.8,257.32L443.22,238.88L444.64,256.02L446.06,240.58L447.48,237.54L448.9,257.41L450.32,240.52L451.74,248.84L453.16,244.27L454.58,247.6L456,255.83L457.42,248.59L458.84,237.94L460.26,256.8L461.68,259.09L463.11,243.78L464.53,252.02L465.95,240.36L467.37,242.47L468.79,251.96L470.21,245.84L471.63,240.99L473.05,246.25L474.47,255.45L475.89,245.52L477.31,249.99L478.73,247.11L480.15,253.55L481.57,251L482.99,256.63L484.41,251.41L485.83,251.15L487.25,253.45L488.67,262.22L490.09,257.39L491.51,259.96L492.93,260.52L494.35,257.68L495.77,260.6L497.19,266.18L498.61,265.55L500.03,262.04L501.45,261.11L502.87,263.27L504.29,272.99L505.71,268.2L507.13,272.5L508.55,275.42L509.97,262.68L511.39,269.95L512.81,272.47L514.23,270.58L515.65,270.7L517.07,267.96L518.49,274.39L519.91,268.1L521.33,267.9L522.75,272.36L524.17,256.23L525.59,219.09L527.01,279.46L528.43,287.46L529.85,277.47L531.27,269.44L532.69,259.78L534.11,260.25L535.53,261.27L536.95,273.33L538.37,263.79L539.79,245.78L541.21,261.15L542.63,262.87L544.05,268.17L545.47,265.05L546.89,265.96L548.31,256.04L549.73,255.4L551.15,269.36L552.57,262.69L553.99,255.03L555.41,253.79" style="fill:none;fill-rule:nonzero;stroke:rgb(253,180,98);stroke-width:1.12px;"/>
    </g>
    <g transform="matrix(1,0,0,1,0,-258.36)">
        <path d="M315.41,336.92L316.83,345.53L325.35,345.53L326.77,361.51L328.19,368.62L329.61,364.91L331.03,369.66L332.45,368.17L333.87,369.55L335.29,371.25L336.71,371.5L338.13,371.14L339.55,371.5L340.97,371.42L342.4,371.11L343.82,370.85L345.24,370.85L346.66,370.28L348.08,371.72L349.5,369.65L350.92,369.66L352.34,355.1L353.76,363.12L355.18,365.66L356.6,373.09L358.02,365.71L359.44,362.34L360.86,363.1L362.28,358.16L363.7,356.53L365.12,358.56L366.54,355.53L367.96,356.35L369.38,351.58L370.8,349.2L372.22,349.46L373.64,341.55L375.06,350.51L376.48,338.21L377.9,336.35L379.32,339.82L380.74,341.36L382.16,331.76L383.58,338.21L385,330.49L386.42,332.22L387.84,334.37L389.26,330.69L390.68,332.11L392.1,331.48L393.52,326.87L394.94,328.32L396.36,323.94L397.78,328.8L399.2,331.17L400.62,323.29L402.04,326.17L403.46,325.01L404.88,331.41L406.3,326.32L407.72,325.7L409.14,328.14L410.56,328.48L411.98,331.39L413.4,331.62L414.82,328.38L416.24,326.02L417.66,325.86L419.08,331.44L420.5,331.28L421.92,334.77L423.34,330.58L424.76,326.2L426.18,332.46L427.6,328.56L429.02,320.87L430.44,329.54L431.86,324.86L433.28,330.81L434.7,321.74L436.12,316.32L437.54,338.16L438.96,327.53L440.38,317.83L441.8,331.13L443.22,320.77L444.64,323.12L446.06,322.42L447.48,320.98L448.9,328.65L450.32,324.08L451.74,324.94L453.16,324.81L454.58,324.78L456,328.24L457.42,327.51L458.84,322.05L460.26,330.47L461.68,324.22L463.11,326.43L464.53,329.61L465.95,324.37L467.37,322.47L468.79,331.4L470.21,324.27L471.63,321.19L473.05,323.66L474.47,333.71L475.89,323.15L477.31,330.5L478.73,324.81L480.15,330.97L481.57,331.79L482.99,327.83L484.41,331.47L485.83,326.26L487.25,332.62L488.67,327.44L490.09,325.88L491.51,336.13L492.93,326.32L494.35,328.24L495.77,332.82L497.19,328.21L498.61,334.01L500.03,328.42L501.45,326.99L502.87,324.74L504.29,325.73L505.71,325.03L507.13,328.1L508.55,322.85L509.97,314.47L511.39,318.21L512.81,317.28L514.23,306.88L515.65,308.04L517.07,306.07L518.49,315.15L519.91,301.47L521.33,300.09L522.75,291.77L524.17,282.86L525.59,277.27L527.01,323.55L528.43,327.25L529.85,326.01L531.27,320.14L532.69,302.13L534.11,317.71L535.53,314.82L536.95,319.58L538.37,321.96L539.79,306.64L541.21,325.41L542.63,317.2L544.05,322.59L545.47,320.85L546.89,321.78L548.31,318.82L549.73,319.26L551.15,322.62L552.57,320.78L553.99,318.72L555.41,313.29" style="fill:none;fill-rule:nonzero;stroke:rgb(253,180,98);stroke-width:1.12px;"/>
    </g>
    <g transform="matrix(1,0,0,1,0,-33.86)">
        <path d="M313.99,212.93L527.01,212.93" style="fill:none;fill-rule:nonzero;stroke:black;stroke-width:0.75px;"/>
    </g>
    <g transform="matrix(0,1,1,0,103.45,-132.53)">
        <path d="M311.6,210.54L316.38,210.54" style="fill:none;fill-rule:nonzero;stroke:black;stroke-width:0.75px;"/>
    </g>
    <g transform="matrix(0,1,1,0,174.46,-203.54)">
        <path d="M382.61,210.54L387.39,210.54" style="fill:none;fill-rule:nonzero;stroke:black;stroke-width:0.75px;"/>
    </g>
    <g transform="matrix(0,1,1,0,245.46,-274.54)">
        <path d="M453.61,210.54L458.39,210.54" style="fill:none;fill-rule:nonzero;stroke:black;stroke-width:0.75px;"/>
    </g>
    <g transform="matrix(0,1,1,0,316.47,-345.55)">
        <path d="M524.62,210.54L529.4,210.54" style="fill:none;fill-rule:nonzero;stroke:black;stroke-width:0.75px;"/>
    </g>
    <g transform="matrix(0,-1,-1,0,597.425,406.195)">
        <path d="M251.955,291.615L359.665,291.615" style="fill:none;fill-rule:nonzero;stroke:black;stroke-width:0.75px;"/>
    </g>
    <g transform="matrix(-1,0,0,1,606.84,-83.52)">
        <path d="M301.03,237.76L305.81,237.76" style="fill:none;fill-rule:nonzero;stroke:black;stroke-width:0.75px;"/>
    </g>
    <g transform="matrix(-1,0,0,1,606.84,-155.32)">
        <path d="M301.03,273.66L305.81,273.66" style="fill:none;fill-rule:nonzero;stroke:black;stroke-width:0.75px;"/>
    </g>
    <g transform="matrix(-1,0,0,1,606.84,-227.12)">
        <path d="M301.03,309.56L305.81,309.56" style="fill:none;fill-rule:nonzero;stroke:black;stroke-width:0.75px;"/>
    </g>
    <g transform="matrix(-1,0,0,1,606.84,-298.94)">
        <path d="M301.03,345.47L305.81,345.47" style="fill:none;fill-rule:nonzero;stroke:black;stroke-width:0.75px;"/>
    </g>
    <g transform="matrix(1,0,0,1,0,-200.18)">
        <rect x="305.81" y="212.93" width="259.2" height="166.32" style="fill:none;stroke:black;stroke-width:0.75px;"/>
    </g>
    <g transform="matrix(1,0,0,1,0,-174.56)">
        <path d="M305.81,283.28L565.01,283.28" style="fill:none;fill-rule:nonzero;stroke:rgb(127,201,127);stroke-width:0.75px;"/>
    </g>
    <g transform="matrix(0,-1,-1,0,851.5,651.32)">
        <path d="M472.25,296.09L638.57,296.09" style="fill:none;fill-rule:nonzero;stroke:black;stroke-width:0.41px;stroke-dasharray:1.24,2.06;"/>
    </g>
    <g transform="matrix(1,0,0,1,0,190.88)">
        <path d="M26.33,98.8L27.75,80.86L29.17,81.56L30.59,81.29L32.01,83.09L33.43,80.49L34.85,81.55L36.27,82.86L37.69,86.17L39.11,71.36L40.53,88.18L41.95,78.9L43.37,72.88L44.79,73.11L46.21,73.13L47.63,74.2L49.05,74.54L50.47,74.37L51.89,74.13L53.32,73.42L54.74,69.83L56.16,70.58L57.58,72.57L59,58.53L60.42,67.46L61.84,59.36L63.26,69L64.68,57.77L66.1,59.12L67.52,59.94L68.94,57.94L70.36,61.18L71.78,60.96L73.2,60.27L74.62,63.98L76.04,61.33L77.46,59.56L78.88,60.07L80.3,67.5L81.72,73.57L83.14,79.89L84.56,74.96L85.98,74.5L87.4,77.37L88.82,80.56L90.24,76.94L91.66,73.08L93.08,79.5L94.5,72.19L95.92,80.31L97.34,77.61L98.76,77.61L100.18,79.48L101.6,80L103.02,81.29L104.44,83.58L105.86,81.44L107.28,83.44L108.7,84.09L110.12,78.92L111.54,85.14L112.96,83.73L114.38,83.09L115.8,80.51L117.22,85.26L118.64,83.18L120.06,82.58L121.48,82.38L122.9,81.51L124.32,81.23L125.74,83.65L127.16,80.34L128.58,80.3L130,78.94L131.42,82.05L132.84,79.42L134.26,81.67L135.68,82.5L137.1,82.5L138.52,85.48L139.94,84.23L141.36,83.97L142.78,85.76L144.2,86.69L145.62,91.07L147.04,92.78L148.46,76.81L149.88,87.08L151.3,93.59L152.72,83.81L154.14,89.4L155.56,95.28L156.98,92.83L158.4,92.19L159.82,87.65L161.24,91.47L162.66,95.25L164.08,93.99L165.5,94.36L166.92,87.46L168.34,93.57L169.76,94.16L171.18,95.42L172.6,100.69L174.03,95.85L175.45,92.74L176.87,95.48L178.29,95.6L179.71,96.58L181.13,95.31L182.55,97.02L183.97,98.21L185.39,97.87L188.23,96.79L189.65,100L191.07,95.78L192.49,96.73L193.91,99.51L195.33,98.58L196.75,100.53L198.17,98.74L199.59,101.64L201.01,100.86L202.43,100.25L203.85,101.8L205.27,104.53L206.69,101.14L208.11,108.17L209.53,104.64L210.95,109.42L212.37,103.9L213.79,111.52L215.21,113.84L216.63,102.39L218.05,114.53L219.47,114.98L220.89,113.27L222.31,113.15L223.73,113.7L225.15,121.28L226.57,118.71L227.99,117.32L229.41,124.27L230.83,128.78L232.25,136.46L233.67,143.35L235.09,117.25L236.51,119.79L237.93,102.37L239.35,102.11L240.77,107.39L242.19,122.49L243.61,128.26L245.03,123.39L246.45,130.59L247.87,122.74L249.29,119.66L250.71,125.33L252.13,117.25L253.55,135L254.97,124.25L256.39,128.21L257.81,118.53L259.23,129.19L260.65,128.17L262.07,120.01L263.49,121.07L264.91,127.26L266.33,128.25" style="fill:none;fill-rule:nonzero;stroke:rgb(56,108,176);stroke-width:1.65px;"/>
    </g>
    <g transform="matrix(1,0,0,1,0,248.45)">
        <path d="M26.33,54.6L27.75,43.67L36.27,43.67L37.69,33.5L39.11,27.34L40.53,37.02L41.95,30.02L43.37,26.09L44.79,25.98L46.21,26.34L47.63,27.06L49.05,26.89L50.47,27.06L51.89,27.09L53.32,27.54L54.74,26.32L56.16,26.26L57.58,26.66L59,24.36L60.42,25.08L61.84,22.89L63.26,31.59L64.68,26.39L66.1,28.72L67.52,31.67L68.94,28.14L70.36,27.29L71.78,28.33L73.2,29.44L74.62,31.56L76.04,31.07L77.46,31.2L78.88,31.91L80.3,36.86L81.72,41.32L83.14,40.38L84.56,38.77L85.98,38.59L87.4,35.71L88.82,40.52L90.24,37.01L91.66,35.58L93.08,37.17L94.5,32.85L95.92,39.72L97.34,34.97L98.76,33.22L100.18,33.82L101.6,33.67L103.02,34.5L104.44,35.25L105.86,34.84L107.28,35.85L108.7,36.03L110.12,32.9L111.54,36.63L112.96,36.06L114.38,35.99L115.8,32.93L117.22,36.52L118.64,35.13L120.06,34.84L121.48,35.67L122.9,34.67L124.32,33.27L125.74,35.3L127.16,33.51L128.58,33.37L130,31.31L131.42,37.87L132.84,33.47L134.26,33.97L135.68,34.95L137.1,36.41L138.52,39.11L139.94,37.16L141.36,39.94L142.78,38.99L144.2,40.62L145.62,44.38L147.04,46.41L148.46,28.34L149.88,38.61L151.3,48.06L152.72,37.35L154.14,42.02L155.56,53.25L156.98,45.16L158.4,44.66L159.82,43.4L161.24,45.49L162.66,49.96L164.08,45.85L165.5,49.88L166.92,43.43L168.34,46.77L169.76,48.01L171.18,48.69L172.6,57.5L174.03,46.99L175.45,45.86L176.87,46.5L178.29,48.66L179.71,50.21L181.13,46.52L182.55,48.04L183.97,52.81L185.39,47.84L186.81,48.42L188.23,48.46L189.65,51.91L191.07,47.49L192.49,48.65L193.91,49.46L195.33,51.36L196.75,52.92L198.17,51.57L199.59,56.61L201.01,52.86L202.43,53.09L203.85,59.31L205.27,60.74L206.69,60.52L208.11,71.22L209.53,71.1L210.95,78.46L212.37,70.25L213.79,79.05L215.21,86.97L216.63,80.32L218.05,86.46L219.47,92.87L220.89,93.66L222.31,94.05L223.73,94.64L225.15,103.94L226.57,102.12L227.99,102.48L229.41,103.45L230.83,110.43L232.25,117.12L233.67,120.66L235.09,105.99L236.51,106.41L237.93,91.89L239.35,91.89L240.77,93.21L242.19,96.63L243.61,102.67L245.03,95.4L246.45,100.96L247.87,99.35L249.29,93.09L250.71,99.27L252.13,91.89L253.55,103.07L254.97,97.3L256.39,100.45L257.81,94.81L259.23,100.87L260.65,100.95L262.07,93.21L263.49,94.94L264.91,99.4L266.33,91.33" style="fill:none;fill-rule:nonzero;stroke:rgb(253,180,98);stroke-width:1.12px;"/>
    </g>
    <g transform="matrix(1,0,0,1,0,108.98)">
        <path d="M26.33,153L27.75,145.9L29.17,146.95L30.59,145.54L32.01,147.55L33.43,145.16L34.85,146.02L36.27,148.62L37.69,151.21L39.11,140.1L40.53,151.04L41.95,147.33L43.37,143.83L44.79,144.82L46.21,146.29L47.63,148.34L49.05,148.03L50.47,147.58L51.89,146.57L53.32,143.93L54.74,140.81L56.16,141.17L57.58,142.78L59,127.17L60.42,132.76L61.84,120.68L63.26,122.11L64.68,112.97L66.1,108.72L67.52,106.98L68.94,110.91L70.36,113.17L71.78,111.65L73.2,110.86L74.62,112.26L76.04,108.95L77.46,107.6L78.88,106.13L80.3,112.42L81.72,118.03L83.14,137.19L84.56,127.87L85.98,126.66L87.4,139.41L88.82,138.34L90.24,137.62L91.66,130.02L93.08,141.07L94.5,130.74L95.92,145.39L97.34,146.96L98.76,146.83L100.18,150.11L101.6,149.14L103.02,152.4L104.44,154.49L105.86,151.66L107.28,153.09L108.7,153.46L110.12,149.38L111.54,155.86L112.96,154.25L114.38,152.35L115.8,152.9L117.22,155.27L118.64,154.27L120.06,153.43L121.48,153.42L122.9,150.43L124.32,150.5L125.74,154.06L127.16,149.55L128.58,150.88L130,150.32L131.42,150.32L132.84,148.39L134.26,151.36L135.68,152.44L137.1,151.66L138.52,154.32L139.94,153.2L141.36,152.43L142.78,153.3L144.2,154.11L145.62,157.44L147.04,158.95L148.46,148.82L149.88,157.89L151.3,159.68L152.72,153.32L154.14,157.94L155.56,160.89L156.98,157.98L158.4,159.21L159.82,154.73L161.24,156.02L162.66,161.16L164.08,158.14L165.5,156.77L166.92,153.84L168.34,159.72L169.76,160.91L171.18,160.91L172.6,163.81L174.03,164.49L175.45,160.84L176.87,165.51L178.29,165.57L179.71,166.44L181.13,165.07L182.55,167.65L183.97,168.11L185.39,167.06L186.81,168.14L188.23,166.95L189.65,169.62L191.07,165.46L192.49,167.22L193.91,167.97L195.33,169.65L196.75,171.05L198.17,169.45L199.59,168.11L201.01,170.72L202.43,169.32L203.85,166.81L205.27,171.5L206.69,168.08L208.11,171.93L209.53,167.37L210.95,170.25L212.37,166.04L213.79,169.73L215.21,168.86L216.63,155.92L218.05,170.03L219.47,166.53L220.89,163.46L222.31,159.2L223.73,157.93L225.15,162.07L226.57,161.45L227.99,156.88L229.41,163.27L230.83,165.12L232.25,171.53L233.67,176.89L235.09,149.83L236.51,151.43L237.93,145.73L239.35,144.79L240.77,150.08L242.19,165.16L243.61,170.28L245.03,170.23L246.45,170.21L247.87,161.02L249.29,163.68L250.71,162.73L252.13,162.95L253.55,167.75L254.97,163.19L256.39,167.37L257.81,165.33L259.23,170.14L260.65,164.63L262.07,165.86L263.49,167.93L264.91,169.32L266.33,176.66" style="fill:none;fill-rule:nonzero;stroke:rgb(253,180,98);stroke-width:1.12px;"/>
    </g>
    <g transform="matrix(1,0,0,1,0,358.54)">
        <path d="M24.91,16.73L237.93,16.73" style="fill:none;fill-rule:nonzero;stroke:black;stroke-width:0.75px;"/>
    </g>
    <g transform="matrix(0,1,1,0,10.57,352.75)">
        <path d="M22.52,14.34L27.3,14.34" style="fill:none;fill-rule:nonzero;stroke:black;stroke-width:0.75px;"/>
    </g>
    <g transform="matrix(0,1,1,0,81.58,281.74)">
        <path d="M93.53,14.34L98.31,14.34" style="fill:none;fill-rule:nonzero;stroke:black;stroke-width:0.75px;"/>
    </g>
    <g transform="matrix(0,1,1,0,152.58,210.74)">
        <path d="M164.53,14.34L169.31,14.34" style="fill:none;fill-rule:nonzero;stroke:black;stroke-width:0.75px;"/>
    </g>
    <g transform="matrix(0,1,1,0,223.59,139.73)">
        <path d="M235.54,14.34L240.32,14.34" style="fill:none;fill-rule:nonzero;stroke:black;stroke-width:0.75px;"/>
    </g>
    <g transform="matrix(0,-1,-1,0,110.085,315.375)">
        <path d="M-38.505,93.355L71.965,93.355" style="fill:none;fill-rule:nonzero;stroke:black;stroke-width:0.75px;"/>
    </g>
    <g transform="matrix(-1,0,0,1,28.68,315.76)">
        <path d="M11.95,38.12L16.73,38.12" style="fill:none;fill-rule:nonzero;stroke:black;stroke-width:0.75px;"/>
    </g>
    <g transform="matrix(-1,0,0,1,28.68,242.12)">
        <path d="M11.95,74.94L16.73,74.94" style="fill:none;fill-rule:nonzero;stroke:black;stroke-width:0.75px;"/>
    </g>
    <g transform="matrix(-1,0,0,1,28.68,168.46)">
        <path d="M11.95,111.77L16.73,111.77" style="fill:none;fill-rule:nonzero;stroke:black;stroke-width:0.75px;"/>
    </g>
    <g transform="matrix(-1,0,0,1,28.68,94.82)">
        <path d="M11.95,148.59L16.73,148.59" style="fill:none;fill-rule:nonzero;stroke:black;stroke-width:0.75px;"/>
    </g>
    <g transform="matrix(1,0,0,1,0,192.22)">
        <rect x="16.73" y="16.73" width="259.2" height="166.32" style="fill:none;stroke:black;stroke-width:0.75px;"/>
    </g>
    <g transform="matrix(1,0,0,1,0,138.36)">
        <path d="M16.73,126.82L275.93,126.82" style="fill:none;fill-rule:nonzero;stroke:rgb(127,201,127);stroke-width:0.75px;"/>
    </g>
    <g transform="matrix(0,-1,-1,0,366.22,558.44)">
        <path d="M183.17,99.89L349.49,99.89" style="fill:none;fill-rule:nonzero;stroke:black;stroke-width:0.41px;stroke-dasharray:1.24,2.06;"/>
    </g>
    <g transform="matrix(1,0,0,1,0,319.7)">
        <rect x="16.73" y="16.73" width="98.11" height="38.84" style="fill:white;stroke:black;stroke-width:0.75px;"/>
    </g>
    <g transform="matrix(1,0,0,1,0,296.38)">
        <path d="M23.7,47.81L37.64,47.81" style="fill:none;fill-rule:nonzero;stroke:rgb(56,108,176);stroke-width:0.75px;"/>
    </g>
    <g transform="matrix(1,0,0,1,0,311.92)">
        <path d="M23.7,40.04L37.64,40.04" style="fill:none;fill-rule:nonzero;stroke:rgb(253,180,98);stroke-width:0.75px;"/>
    </g>
    <g transform="matrix(1,0,0,1,0,327.46)">
        <path d="M23.7,32.27L37.64,32.27" style="fill:none;fill-rule:nonzero;stroke:rgb(127,201,127);stroke-width:0.75px;"/>
    </g>
    <g transform="matrix(1,0,0,1,0,343)">
        <path d="M23.7,24.5L37.64,24.5" style="fill:none;fill-rule:nonzero;stroke:black;stroke-width:0.75px;stroke-dasharray:2.25,3.75;"/>
    </g>
    <g transform="matrix(1,0,0,1,0,213.46)">
        <path d="M315.41,65.28L316.83,72.45L318.25,71.97L319.67,71.81L321.09,68.68L322.51,72.53L323.93,66.83L325.35,69.54L326.77,76.78L328.19,82.97L329.61,74.18L331.03,74.56L332.45,76.9L333.87,76.45L335.29,74.95L336.71,77.98L338.13,74.89L339.55,75.16L340.97,75.98L342.4,75.93L343.82,78.29L345.24,75.02L346.66,75.38L348.08,89.13L349.5,81.08L350.92,89.43L352.34,86.14L353.76,95.49L355.18,97.84L356.6,117.69L358.02,99.83L359.44,98.91L360.86,100.85L362.28,104.5L363.7,109.39L365.12,106.39L366.54,107.87L367.96,108.47L369.38,109.81L370.8,111.62L372.22,114.02L373.64,112.54L375.06,117.68L376.48,108.68L377.9,106.27L379.32,115.04L380.74,119.52L382.16,114.42L383.58,109.26L385,102.43L386.42,110.73L387.84,115.28L389.26,96.85L390.68,92.07L392.1,99.43L393.52,103.69L394.94,108.63L396.36,97.5L397.78,93.72L399.2,97.05L400.62,98.4L402.04,104.34L403.46,102.86L404.88,97.29L406.3,98.87L407.72,103.59L409.14,104.54L410.56,108.05L411.98,106.94L413.4,103.96L414.82,103.48L416.24,107.89L417.66,110.98L419.08,112.08L420.5,113.92L421.92,113.72L423.34,111.1L424.76,107.76L426.18,110.22L427.6,107.01L429.02,110.59L430.44,114.04L431.86,110.17L433.28,111.52L434.7,114.9L436.12,104.34L437.54,114.94L438.96,122.58L440.38,115.71L441.8,121.28L443.22,118.35L444.64,118.73L446.06,119.47L447.48,118.89L448.9,118.74L450.32,123.52L451.74,131.59L453.16,122.13L454.58,115.73L456,116.72L457.42,118.67L458.84,128.52L460.26,117.29L461.68,120.3L463.11,125.76L464.53,123.99L465.95,122.15L467.37,114.71L468.79,111.24L470.21,119.66L471.63,113.4L473.05,118.63L474.47,113.27L475.89,122.51L477.31,117.52L478.73,125.03L480.15,116.76L481.57,114.99L482.99,108.58L484.41,116.2L485.83,120.1L487.25,122.12L488.67,100.52L490.09,106.8L491.51,113.09L492.93,112.88L494.35,114.44L495.77,111.82L497.19,108.23L498.61,105.91L500.03,108.08L501.45,100.37L502.87,102.63L504.29,106L505.71,98.02L507.13,97.59L508.55,103.24L509.97,83.61L511.39,89.57L512.81,86.21L514.23,84.34L515.65,84.66L517.07,81.55L518.49,81.06L519.91,78.62L521.33,80.62L522.75,79.65L524.17,57.77L525.59,46.95L527.01,59.85L528.43,64.68L529.85,53.87L531.27,52.72L532.69,47.4L534.11,54.24L535.53,58.99L536.95,77.52L538.37,54.54L539.79,48.43L541.21,55.15L542.63,62.55L544.05,59L545.47,56.88L546.89,58.76L548.31,52.7L549.73,54.6L551.15,58.84L552.57,56.93L553.99,55L555.41,69.33" style="fill:none;fill-rule:nonzero;stroke:rgb(56,108,176);stroke-width:1.65px;"/>
    </g>
    <g transform="matrix(1,0,0,1,0,253.89)">
        <path d="M315.41,53.47L316.83,56.46L318.25,56.59L319.67,54.41L321.09,54.93L322.51,58.23L323.93,49.26L325.35,53.69L326.77,64.77L328.19,66.96L329.61,64.46L331.03,61.99L332.45,53.86L333.87,54.78L335.29,55.04L336.71,61.26L338.13,54.65L339.55,54.83L340.97,58.18L342.4,60.2L343.82,57.21L345.24,56.48L346.66,56.45L348.08,79.4L349.5,67.32L350.92,81.46L352.34,81.87L353.76,92.66L355.18,99.53L356.6,115.22L358.02,98.82L359.44,96.99L360.86,97.23L362.28,98.49L363.7,102.31L365.12,97.31L366.54,98.7L367.96,98.98L369.38,97.3L370.8,98.47L372.22,96.93L373.64,98.37L375.06,100.51L376.48,91.53L377.9,93.52L379.32,97.63L380.74,101.89L382.16,94.94L383.58,95.53L385,83.68L386.42,90.86L387.84,96L389.26,81.97L390.68,82.94L392.1,82.62L393.52,85.28L394.94,89L396.36,80.86L397.78,80.62L399.2,88.06L400.62,81.01L402.04,86.89L403.46,87.05L404.88,91.3L406.3,79.3L407.72,85.45L409.14,83.05L410.56,85.85L411.98,90.68L413.4,88.31L414.82,84.97L416.24,93.11L417.66,87.24L419.08,89.08L420.5,93.37L421.92,95.72L423.34,91.14L424.76,90.48L426.18,90.92L427.6,89.71L429.02,90.97L430.44,94.62L431.86,94.87L433.28,94.67L434.7,100.13L436.12,89.38L437.54,98.02L438.96,99.83L440.38,98.64L441.8,103.7L443.22,100.55L444.64,106.55L446.06,100.75L447.48,101.35L448.9,98.91L450.32,100.88L451.74,109.43L453.16,103.27L454.58,98.43L456,100.61L457.42,99.28L458.84,103.12L460.26,99.29L461.68,104.68L463.11,101.76L464.53,103.06L465.95,97.18L467.37,96.4L468.79,91.99L470.21,95.49L471.63,95.68L473.05,94.54L474.47,94.52L475.89,98.27L477.31,95.86L478.73,98.6L480.15,97.97L481.57,95.35L482.99,97.05L484.41,97.52L485.83,99.48L487.25,102.81L488.67,92.43L490.09,94.78L491.51,100.72L492.93,96.91L494.35,99.42L495.77,95.96L497.19,95.65L498.61,93.51L500.03,97.48L501.45,97.3L502.87,96.96L504.29,100.77L505.71,94.29L507.13,94.49L508.55,107.59L509.97,87.62L511.39,87.87L512.81,86.03L514.23,85.65L515.65,86.86L517.07,83.48L518.49,81.14L519.91,84.66L521.33,79.63L522.75,83.24L524.17,52.18L525.59,50.67L527.01,38.64L528.43,41.14L529.85,33.79L531.27,30.43L532.69,27.66L534.11,29.88L535.53,40.05L536.95,88.57L538.37,28.87L539.79,22.89L541.21,27.68L542.63,49.79L544.05,34.82L545.47,35.46L546.89,34.89L548.31,33.53L549.73,34.49L551.15,37.83L552.57,34.72L553.99,33.53L555.41,49.34" style="fill:none;fill-rule:nonzero;stroke:rgb(253,180,98);stroke-width:1.12px;"/>
    </g>
    <g transform="matrix(1,0,0,1,0,147.95)">
        <path d="M315.41,107.96L316.83,116.89L318.25,116.89L319.67,116.84L321.09,114.19L322.51,115.9L323.93,115.54L325.35,116.04L326.77,111.93L328.19,127.26L329.61,111.13L331.03,112.75L332.45,123.27L333.87,123.92L335.29,117.16L336.71,118.88L338.13,119.4L339.55,119.07L340.97,116.05L342.4,116.85L343.82,118.53L345.24,117.12L346.66,116.05L348.08,119.27L349.5,116.61L350.92,119.37L352.34,111.96L353.76,119.34L355.18,121.2L356.6,143.23L358.02,124.02L359.44,127.82L360.86,130.92L362.28,132.44L363.7,139.79L365.12,137.44L366.54,139.9L367.96,139.34L369.38,142.64L370.8,142.62L372.22,155.45L373.64,149.9L375.06,158.25L376.48,153.92L377.9,138.43L379.32,156L380.74,161.69L382.16,150.99L383.58,147.34L385,141.76L386.42,154.77L387.84,157.56L389.26,141.61L390.68,126.67L392.1,142.9L393.52,146.7L394.94,152.36L396.36,142.46L397.78,132.78L399.2,129.34L400.62,142.44L402.04,148.67L403.46,144.55L404.88,130.39L406.3,142.09L407.72,147.1L409.14,148.63L410.56,153.02L411.98,151.41L413.4,144.65L414.82,144.33L416.24,149.47L417.66,153.53L419.08,157.72L420.5,151.81L421.92,153.96L423.34,154.15L424.76,145.67L426.18,154.2L427.6,146.22L429.02,154.48L430.44,158.55L431.86,147.87L433.28,149.38L434.7,152.38L436.12,136.64L437.54,149.8L438.96,166.2L440.38,145.93L441.8,158.19L443.22,158.2L444.64,146.45L446.06,152.73L447.48,153.51L448.9,153.16L450.32,169.73L451.74,176.89L453.16,161.1L454.58,151.91L456,148.98L457.42,154.29L458.84,171.91L460.26,151.91L461.68,147.56L463.11,169.98L464.53,170.97L465.95,166.28L467.37,158.46L468.79,148.62L470.21,163.16L471.63,149.76L473.05,166.01L474.47,148.19L475.89,168.91L477.31,156.47L478.73,169.27L480.15,152.84L481.57,155.94L482.99,125.3L484.41,158.01L485.83,162.26L487.25,163.05L488.67,119.74L490.09,122.46L491.51,135.18L492.93,145.56L494.35,132.41L495.77,137.74L497.19,124.34L498.61,128.66L500.03,121.37L501.45,114.91L502.87,121.32L504.29,119.29L505.71,115.73L507.13,114.66L508.55,114.46L509.97,108.63L511.39,110.37L512.81,111.07L514.23,106.1L515.65,105.88L517.07,105.86L518.49,106.23L519.91,103.48L521.33,101.64L522.75,93.58L524.17,80.19L525.59,67.16L527.01,102.83L528.43,111.49L529.85,100.65L531.27,106.06L532.69,94.01L534.11,103.93L535.53,101.08L536.95,112.66L538.37,105.05L539.79,100.28L541.21,107.08L542.63,103.52L544.05,108.35L545.47,105.39L546.89,107.84L548.31,103.29L549.73,105.19L551.15,109.02L552.57,105.84L553.99,104.03L555.41,112.76" style="fill:none;fill-rule:nonzero;stroke:rgb(253,180,98);stroke-width:1.12px;"/>
    </g>
    <g transform="matrix(1,0,0,1,0,358.54)">
        <path d="M313.99,16.73L527.01,16.73" style="fill:none;fill-rule:nonzero;stroke:black;stroke-width:0.75px;"/>
    </g>
    <g transform="matrix(0,1,1,0,299.65,63.67)">
        <path d="M311.6,14.34L316.38,14.34" style="fill:none;fill-rule:nonzero;stroke:black;stroke-width:0.75px;"/>
    </g>
    <g transform="matrix(0,1,1,0,370.66,-7.34)">
        <path d="M382.61,14.34L387.39,14.34" style="fill:none;fill-rule:nonzero;stroke:black;stroke-width:0.75px;"/>
    </g>
    <g transform="matrix(0,1,1,0,441.66,-78.34)">
        <path d="M453.61,14.34L458.39,14.34" style="fill:none;fill-rule:nonzero;stroke:black;stroke-width:0.75px;"/>
    </g>
    <g transform="matrix(0,1,1,0,512.67,-149.35)">
        <path d="M524.62,14.34L529.4,14.34" style="fill:none;fill-rule:nonzero;stroke:black;stroke-width:0.75px;"/>
    </g>
    <g transform="matrix(0,-1,-1,0,404.855,598.765)">
        <path d="M244.855,99.045L366.765,99.045" style="fill:none;fill-rule:nonzero;stroke:black;stroke-width:0.75px;"/>
    </g>
    <g transform="matrix(-1,0,0,1,606.84,315.82)">
        <path d="M301.03,38.09L305.81,38.09" style="fill:none;fill-rule:nonzero;stroke:black;stroke-width:0.75px;"/>
    </g>
    <g transform="matrix(-1,0,0,1,606.84,267.06)">
        <path d="M301.03,62.47L305.81,62.47" style="fill:none;fill-rule:nonzero;stroke:black;stroke-width:0.75px;"/>
    </g>
    <g transform="matrix(-1,0,0,1,606.84,218.28)">
        <path d="M301.03,86.86L305.81,86.86" style="fill:none;fill-rule:nonzero;stroke:black;stroke-width:0.75px;"/>
    </g>
    <g transform="matrix(-1,0,0,1,606.84,169.52)">
        <path d="M301.03,111.24L305.81,111.24" style="fill:none;fill-rule:nonzero;stroke:black;stroke-width:0.75px;"/>
    </g>
    <g transform="matrix(-1,0,0,1,606.84,120.76)">
        <path d="M301.03,135.62L305.81,135.62" style="fill:none;fill-rule:nonzero;stroke:black;stroke-width:0.75px;"/>
    </g>
    <g transform="matrix(-1,0,0,1,606.84,72)">
        <path d="M301.03,160L305.81,160" style="fill:none;fill-rule:nonzero;stroke:black;stroke-width:0.75px;"/>
    </g>
    <g transform="matrix(1,0,0,1,0,192.22)">
        <rect x="305.81" y="16.73" width="259.2" height="166.32" style="fill:none;stroke:black;stroke-width:0.75px;"/>
    </g>
    <g transform="matrix(1,0,0,1,0,156.88)">
        <path d="M305.81,117.56L565.01,117.56" style="fill:none;fill-rule:nonzero;stroke:rgb(127,201,127);stroke-width:0.75px;"/>
    </g>
    <g transform="matrix(0,-1,-1,0,655.3,847.52)">
        <path d="M472.25,99.89L638.57,99.89" style="fill:none;fill-rule:nonzero;stroke:black;stroke-width:0.41px;stroke-dasharray:1.24,2.06;"/>
    </g>
    <text x="22.13px" y="194.01px" style="font-family:'Helvetica';font-size:10px;">0</text>
    <text x="90.36px" y="194.01px" style="font-family:'Helvetica';font-size:10px;">50</text>
    <text x="158.58px" y="194.01px" style="font-family:'Helvetica';font-size:10px;">100</text>
    <text x="229.59px" y="194.01px" style="font-family:'Helvetica';font-size:10px;">150</text>
    <g transform="matrix(0,-1,1,0,0,0)">
        <text x="-180.93px" y="8.96px" style="font-family:'Helvetica';font-size:10px;">0.0000 <tspan x="-137.448px " y="8.96px ">0</tspan>.0010 <tspan x="-93.967px " y="8.96px ">0</tspan>.0020 <tspan x="-50.485px " y="8.96px ">0</tspan>.0030</text>
    </g>
    <text x="311.21px" y="194.01px" style="font-family:'Helvetica';font-size:10px;">0</text>
    <text x="379.44px" y="194.01px" style="font-family:'Helvetica';font-size:10px;">50</text>
    <text x="447.66px" y="194.01px" style="font-family:'Helvetica';font-size:10px;">100</text>
    <text x="518.67px" y="194.01px" style="font-family:'Helvetica';font-size:10px;">150</text>
    <g transform="matrix(0,-1,1,0,0,0)">
        <text x="-171.2px" y="298.04px" style="font-family:'Helvetica';font-size:10px;">−</text>
        <text x="-167.87px" y="298.04px" style="font-family:'Helvetica';font-size:10px;">4e</text>
        <text x="-156.75px" y="298.04px" style="font-family:'Helvetica';font-size:10px;">−</text>
        <text x="-153.42px" y="298.04px" style="font-family:'Helvetica';font-size:10px;">04</text>
    </g>
    <g transform="matrix(0,-1,1,0,0,0)">
        <text x="-96.48px" y="298.04px" style="font-family:'Helvetica';font-size:10px;">0e+00</text>
    </g>
    <text x="22.13px" y="390.21px" style="font-family:'Helvetica';font-size:10px;">0</text>
    <text x="90.36px" y="390.21px" style="font-family:'Helvetica';font-size:10px;">50</text>
    <text x="158.58px" y="390.21px" style="font-family:'Helvetica';font-size:10px;">100</text>
    <text x="229.59px" y="390.21px" style="font-family:'Helvetica';font-size:10px;">150</text>
    <g transform="matrix(0,-1,1,0,0,0)">
        <text x="-370.84px" y="8.96px" style="font-family:'Helvetica';font-size:10px;">−</text>
        <text x="-367.51px" y="8.96px" style="font-family:'Helvetica';font-size:10px;">4e</text>
        <text x="-356.39px" y="8.96px" style="font-family:'Helvetica';font-size:10px;">−</text>
        <text x="-353.06px" y="8.96px" style="font-family:'Helvetica';font-size:10px;">04</text>
    </g>
    <g transform="matrix(0,-1,1,0,0,0)">
        <text x="-294.27px" y="8.96px" style="font-family:'Helvetica';font-size:10px;">0e+00 <tspan x="-257.45px " y="8.96px ">2</tspan>e</text>
        <text x="-246.33px" y="8.96px" style="font-family:'Helvetica';font-size:10px;">−</text>
        <text x="-243px" y="8.96px" style="font-family:'Helvetica';font-size:10px;">04</text>
    </g>
    <g>
        <text x="44.62px" y="346.35px" style="font-family:'Helvetica';font-size:6px;">P</text>
        <text x="48.322px" y="346.35px" style="font-family:'Helvetica';font-size:6px;">oste</text>
        <text x="59.662px" y="346.35px" style="font-family:'Helvetica';font-size:6px;">r</text>
        <text x="61.75px" y="346.35px" style="font-family:'Helvetica';font-size:6px;">ior Mean</text>
        <text x="44.62px" y="354.12px" style="font-family:'Helvetica';font-size:6px;">16 &amp; 84% quantiles</text>
        <text x="44.62px" y="361.88px" style="font-family:'Helvetica';font-size:6px;">OLS</text>
        <text x="44.62px" y="369.65px" style="font-family:'Helvetica';font-size:6px;">OOS sta</text>
        <text x="67.63px" y="369.65px" style="font-family:'Helvetica';font-size:6px;">r<tspan x="69.868px " y="369.65px ">t</tspan></text>
    </g>
    <text x="311.21px" y="390.21px" style="font-family:'Helvetica';font-size:10px;">0</text>
    <text x="379.44px" y="390.21px" style="font-family:'Helvetica';font-size:10px;">50</text>
    <text x="447.66px" y="390.21px" style="font-family:'Helvetica';font-size:10px;">100</text>
    <text x="518.67px" y="390.21px" style="font-family:'Helvetica';font-size:10px;">150</text>
    <g transform="matrix(0,-1,1,0,0,0)">
        <text x="-363.78px" y="298.04px" style="font-family:'Helvetica';font-size:10px;">−</text>
        <text x="-360.45px" y="298.04px" style="font-family:'Helvetica';font-size:10px;">0.2</text>
    </g>
    <g transform="matrix(0,-1,1,0,0,0)">
        <text x="-312.09px" y="298.04px" style="font-family:'Helvetica';font-size:10px;">0.2 <tspan x="-287.713px " y="298.04px ">0</tspan>.4 <tspan x="-263.336px " y="298.04px ">0</tspan>.6 <tspan x="-238.96px " y="298.04px ">0</tspan>.8</text>
    </g>
</svg>
