<?xml version="1.0" encoding="UTF-8" standalone="no"?>
<!DOCTYPE svg PUBLIC "-//W3C//DTD SVG 1.1//EN" "http://www.w3.org/Graphics/SVG/1.1/DTD/svg11.dtd">
<svg width="100%" height="100%" viewBox="0 0 680 340" version="1.1" xmlns="http://www.w3.org/2000/svg" xmlns:xlink="http://www.w3.org/1999/xlink" xml:space="preserve" xmlns:serif="http://www.serif.com/" style="fill-rule:evenodd;clip-rule:evenodd;stroke-linecap:round;stroke-linejoin:round;stroke-miterlimit:10;">
    <g transform="matrix(1,0,0,1,1.5,-151.15)">
        <path d="M28.17,224.44L29.9,224.46L31.62,225.28L33.34,223.99L35.06,226.79L36.79,227.46L38.51,222.61L40.23,223.04L41.96,217.83L43.68,221.98L45.4,218.59L47.12,221.29L48.85,220.74L50.57,221.39L52.29,221.87L54.02,225.49L55.74,225.41L57.46,230.43L59.18,228.97L60.91,233.06L62.63,229.71L64.35,231.13L66.08,234.23L67.8,235.28L69.52,232.76L71.25,235.85L72.97,234.05L74.69,237.88L76.41,239.24L78.14,239.12L79.86,235.11L81.58,235.61L83.31,238.62L85.03,239.52L86.75,240.86L88.47,239.95L90.2,240.44L91.92,242.13L93.64,245.54L95.37,245.48L97.09,245.15L98.81,244.59L100.53,245.3L102.26,245.62L103.98,243.98L105.7,244.63L107.43,244.78L109.15,244.7L110.87,245.24L112.59,246.11L114.32,245.91L116.04,245.77L117.76,244.73L119.49,245.22L121.21,245.95L122.93,246.09L124.65,245.55L126.38,244.6L128.1,243.36L129.82,245.89L131.55,246.04L133.27,246.9L134.99,245.69L136.71,244L138.44,247.38L140.16,245.86L141.88,245.92L143.61,246.88L145.33,245.39L147.05,247.12L148.78,247.75L150.5,247.23L152.22,245.56L153.94,244.88L155.67,245.6L157.39,246.28L159.11,247.41L160.84,246.69L162.56,248.3L164.28,245.82L166,247.86L167.73,247.33L169.45,246.22L171.17,246.34L172.9,248.1L174.62,244.95L176.34,246.89L178.06,244.31L179.79,245.78L181.51,247.42L183.23,246.58L184.96,245.2L186.68,245.19L188.4,246.9L190.12,247.21L191.85,245.22L193.57,246.47L195.29,246.3L197.02,245.84L198.74,246.64L200.46,244.57L202.18,246.35L203.91,244.87L205.63,246.66L207.35,245.48L209.08,244.53L210.8,246.79L212.52,246.19L214.25,245.76L215.97,244.93L217.69,245.44L219.41,245.72L221.14,245.42L222.86,246.81L224.58,245.11L226.31,246.15L228.03,247.04L229.75,245.96L231.47,246.2L233.2,246.17L234.92,247.48L236.64,246.13L238.37,246.89L240.09,247.42L241.81,247.34L243.53,246.56L245.26,246.97L246.98,247.36L248.7,248.04L250.43,245.86L252.15,245.96L253.87,248.73L255.59,250.25L257.32,248.4L259.04,249L260.76,249.83L262.49,251.93L264.21,253.7L265.93,249.93L267.65,251.6L269.38,248.87L271.1,249.05L272.82,253.3L274.55,248.23L276.27,252.24L277.99,251.64L279.71,244.71L281.44,232.43L283.16,243.4L284.88,250.61L286.61,252.43L288.33,254.64L290.05,256.24L291.78,264.27L293.5,264.35L295.22,257.07L296.94,260.01L298.67,256.94L300.39,259.56L302.11,263.27L303.84,262.03L305.56,261.34L307.28,261.44L309,265.82L310.73,265.49L312.45,265.46L314.17,255.71" style="fill:none;fill-rule:nonzero;stroke:rgb(56,108,176);stroke-width:1.65px;"/>
    </g>
    <g transform="matrix(1,0,0,1,1.5,-96.14)">
        <path d="M28.17,190.56L29.9,191.87L31.62,191.87L33.34,192.67L35.06,192.11L36.79,193.41L38.51,191.09L40.23,191.55L41.96,187.73L43.68,192.21L45.4,190.02L47.12,192.46L48.85,193.41L50.57,195.31L52.29,195.5L54.02,195.15L55.74,195.34L57.46,196.35L59.18,196.42L60.91,196.56L62.63,196.44L64.35,196.56L66.08,197.24L67.8,197.18L69.52,197.07L71.25,198.03L72.97,196.77L74.69,197.27L76.41,196.15L78.14,195.94L79.86,193.76L81.58,193.02L83.31,194.44L85.03,193.35L86.75,195.58L88.47,195.49L90.2,195.36L91.92,196.25L93.64,195.23L95.37,193.84L97.09,194.48L98.81,193.03L100.53,193.81L102.26,194.03L103.98,191.53L105.7,192.51L107.43,192.12L109.15,193.9L110.87,194.66L112.59,195.91L114.32,195.61L116.04,194.46L117.76,193.34L119.49,193.4L121.21,195.23L122.93,195.34L124.65,194.63L126.38,195.33L128.1,195.27L129.82,195.78L131.55,195.61L133.27,195.76L134.99,195.1L136.71,195.26L138.44,196.51L140.16,195.88L141.88,194.51L143.61,195.96L145.33,195.6L147.05,196.3L148.78,196.38L150.5,196.26L152.22,193.91L153.94,194.3L155.67,193.9L157.39,196.54L159.11,196.62L160.84,196.27L162.56,196.98L164.28,196.62L166,196.8L167.73,196.93L169.45,196.62L171.17,196.19L172.9,197.16L174.62,196.73L176.34,195.9L178.06,194.91L179.79,196.65L181.51,196.01L183.23,197.32L184.96,194.96L186.68,194.87L188.4,195.77L190.12,195.76L191.85,194.95L193.57,195.76L195.29,195.21L197.02,195.84L198.74,196.13L200.46,195.4L202.18,193.71L203.91,196.57L205.63,196.58L207.35,194.48L209.08,194.1L210.8,196.73L212.52,195.88L214.25,194.8L215.97,193.43L217.69,196.18L219.41,195.23L221.14,197.03L222.86,194.42L224.58,193.63L226.31,194.9L228.03,195.24L229.75,196.82L231.47,195.2L233.2,194.77L234.92,195.13L236.64,194.79L238.37,195.89L240.09,195.58L241.81,195.44L243.53,198.29L245.26,195.7L246.98,195.2L248.7,195.97L250.43,194.26L252.15,194.57L253.87,199.37L255.59,205.09L257.32,201.29L259.04,204.51L260.76,210.67L262.49,225.51L264.21,220.51L265.93,207.03L267.65,218.05L269.38,217.78L271.1,220.14L272.82,226.61L274.55,222.27L276.27,222.27L277.99,223.97L279.71,218.08L281.44,217.22L283.16,223.42L284.88,221.08L286.61,224.82L288.33,226.61L290.05,235.16L291.78,238.07L293.5,237.99L295.22,237.09L296.94,238.78L298.67,235.71L300.39,238.68L302.11,235.71L303.84,235.99L305.56,236.37L307.28,235.71L309,235.71L310.73,240.91L312.45,240.91L314.17,219.08" style="fill:none;fill-rule:nonzero;stroke:rgb(253,180,98);stroke-width:1.12px;"/>
    </g>
    <g transform="matrix(1,0,0,1,1.5,-221.01)">
        <path d="M28.17,262.35L29.9,251.36L31.62,261.67L33.34,249.74L35.06,267.88L36.79,273.35L38.51,246.18L40.23,247.78L41.96,244.93L43.68,241.77L45.4,244.83L47.12,245.31L48.85,241.11L50.57,240.29L52.29,239.78L54.02,248.2L55.74,245.48L57.46,270.89L59.18,267.48L60.91,279.2L62.63,267.54L64.35,274.05L66.08,282.84L67.8,293.93L69.52,282.55L71.25,288.13L72.97,285.09L74.69,296.01L76.41,298.2L78.14,297.62L79.86,292.6L81.58,293.43L83.31,299.84L85.03,302.24L86.75,302.77L88.47,302.24L90.2,302.66L91.92,303.21L93.64,309.8L95.37,311.14L97.09,311.85L98.81,311.36L100.53,312.44L102.26,312.09L103.98,310.98L105.7,311.38L107.43,312.89L109.15,310.15L110.87,312.54L112.59,312.61L114.32,312.54L116.04,312.19L117.76,310.66L119.49,310.76L121.21,310.84L122.93,312.83L124.65,312.47L126.38,311.39L128.1,309.14L129.82,310.47L131.55,312.62L133.27,313.39L134.99,310.98L136.71,310.32L138.44,312.09L140.16,311.6L141.88,312.11L143.61,313.73L145.33,311.27L147.05,312.52L148.78,312.15L150.5,312.62L152.22,311.31L153.94,305.66L155.67,311.1L157.39,311.08L159.11,311.81L160.84,311.88L162.56,311.98L164.28,310.36L166,311.44L167.73,311.56L169.45,310.73L171.17,310.52L172.9,310.29L174.62,303.55L176.34,312.53L178.06,307.19L179.79,304.04L181.51,312.78L183.23,305.08L184.96,307.29L186.68,304.1L188.4,309.85L190.12,311.23L191.85,306.31L193.57,306.18L195.29,307.35L197.02,305.76L198.74,308.11L200.46,308.93L202.18,308.77L203.91,305.87L205.63,310.83L207.35,311.3L209.08,306.76L210.8,310.86L212.52,308.64L214.25,307.84L215.97,310.75L217.69,307.71L219.41,307.75L221.14,307.34L222.86,311.4L224.58,308L226.31,311.35L228.03,312.35L229.75,307.66L231.47,307.99L233.2,311.44L234.92,312.29L236.64,309.58L238.37,308.07L240.09,311.43L241.81,307.86L243.53,308.94L245.26,309.62L246.98,309.27L248.7,311.04L250.43,307.65L252.15,306.6L253.87,307.67L255.59,308.16L257.32,304.39L259.04,307.34L260.76,304.42L262.49,302.79L264.21,309.72L265.93,304.26L267.65,304.29L269.38,293.27L271.1,295.15L272.82,298.13L274.55,291.02L276.27,295.13L277.99,287.78L279.71,281.93L281.44,248.48L283.16,281.33L284.88,298.04L286.61,301.5L288.33,303.3L290.05,303.82L291.78,311.61L293.5,311.72L295.22,301.35L296.94,302.69L298.67,301.65L300.39,301.89L302.11,310.56L303.84,307.55L305.56,309.7L307.28,310.56L309,311.7L310.73,308.13L312.45,311.7L314.17,312.52" style="fill:none;fill-rule:nonzero;stroke:rgb(253,180,98);stroke-width:1.12px;"/>
    </g>
    <g transform="matrix(1,0,0,1,1.5,-32.88)">
        <path d="M26.45,182.69L284.88,182.69" style="fill:none;fill-rule:nonzero;stroke:black;stroke-width:0.75px;"/>
    </g>
    <g transform="matrix(0,1,1,0,-152.35,125.75)">
        <path d="M24.06,180.3L28.84,180.3" style="fill:none;fill-rule:nonzero;stroke:black;stroke-width:0.75px;"/>
    </g>
    <g transform="matrix(0,1,1,0,-66.21,39.61)">
        <path d="M110.2,180.3L114.98,180.3" style="fill:none;fill-rule:nonzero;stroke:black;stroke-width:0.75px;"/>
    </g>
    <g transform="matrix(0,1,1,0,19.94,-46.54)">
        <path d="M196.35,180.3L201.13,180.3" style="fill:none;fill-rule:nonzero;stroke:black;stroke-width:0.75px;"/>
    </g>
    <g transform="matrix(0,1,1,0,106.08,-132.68)">
        <path d="M282.49,180.3L287.27,180.3" style="fill:none;fill-rule:nonzero;stroke:black;stroke-width:0.75px;"/>
    </g>
    <g transform="matrix(0,-0.580566,-1,0,264.2,122.785)">
        <path d="M-43.31,245.97L76.77,245.97" style="fill:none;fill-rule:nonzero;stroke:black;stroke-width:0.92px;"/>
    </g>
    <g transform="matrix(-1,0,0,1,30.18,-39.36)">
        <path d="M11.95,185.93L16.73,185.93" style="fill:none;fill-rule:nonzero;stroke:black;stroke-width:0.75px;"/>
    </g>
    <g transform="matrix(-1,0,0,1,30.18,-87.38)">
        <path d="M11.95,209.94L16.73,209.94" style="fill:none;fill-rule:nonzero;stroke:black;stroke-width:0.75px;"/>
    </g>
    <g transform="matrix(-1,0,0,1,30.18,-135.42)">
        <path d="M11.95,233.96L16.73,233.96" style="fill:none;fill-rule:nonzero;stroke:black;stroke-width:0.75px;"/>
    </g>
    <g transform="matrix(-1,0,0,1,30.18,-183.44)">
        <path d="M11.95,257.97L16.73,257.97" style="fill:none;fill-rule:nonzero;stroke:black;stroke-width:0.75px;"/>
    </g>
    <g transform="matrix(-1,0,0,1,30.18,-231.48)">
        <path d="M11.95,281.99L16.73,281.99" style="fill:none;fill-rule:nonzero;stroke:black;stroke-width:0.75px;"/>
    </g>
    <g transform="matrix(-1,0,0,1,30.18,-279.52)">
        <path d="M11.95,306.01L16.73,306.01" style="fill:none;fill-rule:nonzero;stroke:black;stroke-width:0.75px;"/>
    </g>
    <g transform="matrix(1,0,0,1,1.5,-168.96)">
        <rect x="16.73" y="182.69" width="308.88" height="136.08" style="fill:none;stroke:black;stroke-width:0.75px;"/>
    </g>
    <g transform="matrix(1,0,0,1,1.5,-146.54)">
        <path d="M16.73,239.52L325.61,239.52" style="fill:none;fill-rule:nonzero;stroke:rgb(127,201,127);stroke-width:0.75px;"/>
    </g>
    <g transform="matrix(0,-1,-1,0,566.4,395.94)">
        <path d="M246.13,250.73L382.21,250.73" style="fill:none;fill-rule:nonzero;stroke:black;stroke-width:0.41px;stroke-dasharray:1.24,2.06;"/>
    </g>
    <g transform="matrix(1,0,0,0.580566,1.5,-1.63646)">
        <rect x="16.73" y="182.69" width="139.18" height="78.17" style="fill:white;stroke:black;stroke-width:0.92px;"/>
    </g>
    <g transform="matrix(1,0,0,0.580566,1.5,-28.8708)">
        <path d="M26.62,245.23L46.4,245.23" style="fill:none;fill-rule:nonzero;stroke:rgb(56,108,176);stroke-width:0.92px;"/>
    </g>
    <g transform="matrix(1,0,0,0.580566,1.5,-10.7223)">
        <path d="M26.62,229.6L46.4,229.6" style="fill:none;fill-rule:nonzero;stroke:rgb(253,180,98);stroke-width:0.92px;"/>
    </g>
    <g transform="matrix(1,0,0,0.580566,1.5,7.43779)">
        <path d="M26.62,213.96L46.4,213.96" style="fill:none;fill-rule:nonzero;stroke:rgb(127,201,127);stroke-width:0.92px;"/>
    </g>
    <g transform="matrix(1,0,0,0.580566,1.5,25.5863)">
        <path d="M26.62,198.33L46.4,198.33" style="fill:none;fill-rule:nonzero;stroke:black;stroke-width:0.92px;stroke-dasharray:2.75,4.59;"/>
    </g>
    <g transform="matrix(1,0,0,1,1.5,-129.12)">
        <path d="M366.93,237.45L368.66,246.71L370.38,246.4L372.1,248.34L373.82,247.58L375.55,233.55L377.27,251.86L378.99,253.45L380.72,226.69L382.44,254.19L384.16,247.13L385.88,239.62L387.61,238.89L389.33,255.99L391.05,256.62L392.78,254.44L394.5,254.09L396.22,250.88L397.94,253.44L399.67,248.73L401.39,252.24L403.11,249.63L404.84,247.97L406.56,251.74L408.28,251.29L410.01,250.27L411.73,245.24L413.45,240.77L415.17,232.95L416.9,234.12L418.62,233.81L420.34,231.94L422.07,231.65L423.79,228.56L425.51,230.22L427.23,229.84L428.96,228.83L430.68,226.29L432.4,225.08L434.13,229.25L435.85,227.72L437.57,227.45L439.29,227.93L441.02,227.11L442.74,227.4L444.46,226.66L446.19,226.16L447.91,224.82L449.63,223.6L451.35,222.36L453.08,222.69L454.8,223.92L456.52,224.15L458.25,223.87L459.97,224.06L461.69,224.76L463.41,224.94L465.14,223.86L466.86,225.92L468.58,222.69L470.31,224.85L472.03,223.43L473.75,226.58L475.47,223L477.2,223.67L478.92,223.3L480.64,223.44L482.37,223.64L484.09,224.1L485.81,223.71L487.54,223.89L489.26,223.91L490.98,223.42L492.7,225.34L494.43,224.65L496.15,223.49L497.87,223.88L499.6,223.88L501.32,223.84L503.04,225.53L504.76,223.7L506.49,224.55L508.21,223.7L509.93,226.3L511.66,224.22L513.38,215.93L515.1,224.45L516.82,225.81L518.55,219.84L520.27,225.99L521.99,224.94L523.72,224.57L525.44,227.72L527.16,225.05L528.88,223.73L530.61,228.53L532.33,226.21L534.05,226.83L535.78,222.8L537.5,228.56L539.22,225.05L540.94,228.09L542.67,228.18L544.39,228.06L546.11,227.23L547.84,230.07L549.56,228.81L551.28,229.96L553.01,226.5L554.73,225.08L556.45,229.74L558.17,228.15L559.9,229.37L561.62,225.46L563.34,226.44L565.07,226.81L566.79,225.75L568.51,228.66L570.23,224.98L571.96,227.78L573.68,226.88L575.4,227.09L577.13,226.35L578.85,226.03L580.57,228.36L582.29,222.23L584.02,225.3L585.74,227.87L587.46,224.37L589.19,225.38L590.91,221.24L592.63,222.58L594.35,222.36L596.08,215.13L597.8,222.45L599.52,217.62L601.25,215.92L602.97,217.84L606.41,214.68L608.14,212.79L609.86,210.98L611.58,210.84L613.31,211.87L615.03,206.86L616.75,205L618.47,211.42L620.2,215.38L621.92,206.3L623.64,209.15L625.37,209.44L627.09,211.87L628.81,209.96L630.54,212.3L632.26,213.4L633.98,215.66L635.7,209.82L637.43,212.69L639.15,213.28L640.87,215.85L642.6,215.31L644.32,215.17L646.04,213.16L647.76,213.66L649.49,213L651.21,214.05L652.93,219.64" style="fill:none;fill-rule:nonzero;stroke:rgb(56,108,176);stroke-width:1.65px;"/>
    </g>
    <g transform="matrix(1,0,0,1,1.5,-92.09)">
        <path d="M366.93,229.17L368.66,230.65L370.38,229.91L372.1,234.47L373.82,229.77L375.55,229.59L377.27,236.15L378.99,236.24L380.72,236.45L382.44,236.85L384.16,236.86L385.88,236.27L387.61,235.93L389.33,235.8L391.05,235.61L392.78,233.99L394.5,233.62L396.22,230.29L397.94,234.13L399.67,229.85L401.39,232.97L403.11,230.55L404.84,229.79L406.56,232.12L408.28,230.75L410.01,232.1L411.73,228.18L413.45,229.02L415.17,224.19L416.9,222.63L418.62,221.61L420.34,221.55L422.07,219.95L423.79,216.56L425.51,222.94L427.23,222.66L428.96,215.75L430.68,216.16L432.4,204.11L434.13,198.08L435.85,195.31L437.57,193.84L439.29,194.13L441.02,194.46L442.74,193.76L444.46,193.02L446.19,192.84L447.91,191.13L449.63,190.15L451.35,187.78L453.08,187.73L454.8,190.05L456.52,190.98L458.25,190.21L459.97,189.64L461.69,190.99L463.41,191.63L465.14,190.66L466.86,194.16L468.58,188.76L470.31,190.37L472.03,189.77L473.75,196.63L475.47,188.98L477.2,189.57L478.92,189.53L480.64,189.41L482.37,189.17L484.09,189.9L485.81,188.86L487.54,189.59L489.26,189.92L490.98,189.47L492.7,189.51L494.43,190.03L496.15,190.89L497.87,189.45L499.6,189.31L501.32,189.56L503.04,192.34L504.76,189.63L506.49,190.25L508.21,189.89L509.93,193.76L511.66,192.73L513.38,190.8L515.1,191.06L516.82,194.36L518.55,192.14L520.27,193.9L521.99,195.36L523.72,194.38L525.44,201.89L527.16,194.62L528.88,192.83L530.61,199.63L532.33,197.78L534.05,200.39L535.78,195.52L537.5,198.97L539.22,195.17L540.94,201.03L542.67,201.09L544.39,196.57L546.11,194.68L547.84,198.49L549.56,197.3L551.28,198.1L553.01,195.76L554.73,194.75L556.45,198.12L558.17,197.36L559.9,201.41L561.62,193.79L563.34,195.23L565.07,193.68L566.79,194.83L568.51,197.53L570.23,195.21L571.96,194.68L573.68,194.72L575.4,195.87L577.13,195.76L578.85,195.58L580.57,201.13L582.29,195.3L584.02,197.03L585.74,198.2L587.46,195.05L589.19,200.25L590.91,196.1L592.63,200.84L594.35,198.08L596.08,196.3L597.8,197.28L599.52,198.57L601.25,197.56L602.97,197.08L604.69,197.06L606.41,198.45L608.14,200.31L609.86,199.39L611.58,193.08L613.31,199.93L615.03,197.27L616.75,192.84L618.47,201.91L620.2,215.48L621.92,194.55L623.64,190.18L625.37,189.13L627.09,190.5L628.81,188.62L630.54,188.89L632.26,190.4L633.98,194.83L635.7,189.73L637.43,192.1L639.15,188.16L640.87,194.92L642.6,190.7L644.32,191.15L646.04,191.63L647.76,192.42L649.49,199.17L651.21,189.98L652.93,191.24" style="fill:none;fill-rule:nonzero;stroke:rgb(253,180,98);stroke-width:1.12px;"/>
    </g>
    <g transform="matrix(1,0,0,1,1.5,-203.19)">
        <path d="M366.93,292.37L368.66,302.54L370.38,305.85L372.1,306.46L373.82,306.74L375.55,284.95L377.27,306.86L378.99,308.8L380.72,221.96L382.44,307.56L384.16,297.35L385.88,303.93L387.61,302.02L389.33,313.61L391.05,313.73L392.78,312.61L394.5,311.86L396.22,309.63L397.94,310.33L399.67,302.45L401.39,309L403.11,307.28L404.84,306.99L406.56,308.47L408.28,308.82L410.01,304.61L411.73,298.57L413.45,292.04L415.17,279.83L416.9,289.22L418.62,288.16L420.34,287.96L422.07,288.26L423.79,285.47L425.51,287.62L427.23,280.96L428.96,280.59L430.68,267.96L432.4,286.77L434.13,296.26L435.85,296.23L437.57,296.19L439.29,297.17L441.02,296.23L442.74,296.19L444.46,297.17L446.19,297.44L447.91,296.29L449.63,294.94L451.35,295.19L453.08,295.33L454.8,295.21L456.52,292.91L458.25,294.7L459.97,296.01L461.69,294.75L463.41,296.07L465.14,294.71L466.86,294.27L468.58,292.87L470.31,295.48L472.03,295.08L473.75,295.33L475.47,293.57L477.2,293.77L478.92,294.46L480.64,294.15L482.37,294.45L484.09,295.67L485.81,295.21L487.54,295.42L489.26,295.59L490.98,294.82L492.7,294.2L494.43,294.21L496.15,293.8L497.87,295.33L499.6,295.29L501.32,295.36L503.04,295.92L504.76,295.29L506.49,295.29L508.21,294.47L509.93,295.29L511.66,293.8L513.38,290.26L515.1,295.96L516.82,292.42L518.55,292.12L520.27,296.15L521.99,292.35L523.72,292.06L525.44,294.19L527.16,292.68L528.88,294.84L530.61,295.22L532.33,292.38L534.05,290.57L535.78,293.43L537.5,295.12L539.22,294.43L540.94,294.21L542.67,294.31L544.39,295.85L546.11,297.02L547.84,296.38L549.56,297.56L551.28,296.54L553.01,295.85L554.73,296.49L556.45,296.44L558.17,296.49L559.9,292.17L561.62,295.71L563.34,294.94L565.07,297.23L566.79,295.83L568.51,295.74L570.23,294.2L571.96,296.75L573.68,296.5L575.4,296.69L577.13,295.94L578.85,294.6L580.57,295.79L582.29,292.12L584.02,290.66L585.74,295.53L587.46,292.97L589.19,293.92L590.91,290.17L592.63,289L594.35,285.33L596.08,278.26L597.8,288.4L599.52,280.07L601.25,278.2L602.97,278.39L604.69,271.65L606.41,264.14L608.14,256.68L609.86,250.2L611.58,259.33L613.31,258.35L615.03,248.76L616.75,242.81L618.47,250.62L620.2,244.14L621.92,249.2L623.64,252.9L625.37,254.55L627.09,261.15L628.81,261.8L630.54,265.65L632.26,265.15L633.98,271.02L635.7,264.47L637.43,265.54L639.15,271.07L640.87,273.54L642.6,274.74L644.32,271.87L646.04,265.33L647.76,272.5L649.49,265.33L651.21,275.05L652.93,280.44" style="fill:none;fill-rule:nonzero;stroke:rgb(253,180,98);stroke-width:1.12px;"/>
    </g>
    <g transform="matrix(1,0,0,1,1.5,-32.88)">
        <path d="M365.21,182.69L623.64,182.69" style="fill:none;fill-rule:nonzero;stroke:black;stroke-width:0.75px;"/>
    </g>
    <g transform="matrix(0,1,1,0,186.41,-213.01)">
        <path d="M362.82,180.3L367.6,180.3" style="fill:none;fill-rule:nonzero;stroke:black;stroke-width:0.75px;"/>
    </g>
    <g transform="matrix(0,1,1,0,272.55,-299.15)">
        <path d="M448.96,180.3L453.74,180.3" style="fill:none;fill-rule:nonzero;stroke:black;stroke-width:0.75px;"/>
    </g>
    <g transform="matrix(0,1,1,0,358.7,-385.3)">
        <path d="M535.11,180.3L539.89,180.3" style="fill:none;fill-rule:nonzero;stroke:black;stroke-width:0.75px;"/>
    </g>
    <g transform="matrix(0,1,1,0,444.84,-471.44)">
        <path d="M621.25,180.3L626.03,180.3" style="fill:none;fill-rule:nonzero;stroke:black;stroke-width:0.75px;"/>
    </g>
    <g transform="matrix(0,-1,-1,0,606.07,438.91)">
        <path d="M310.79,249.08L400.19,249.08" style="fill:none;fill-rule:nonzero;stroke:black;stroke-width:0.75px;"/>
    </g>
    <g transform="matrix(-1,0,0,1,707.7,-76.26)">
        <path d="M350.71,204.38L355.49,204.38" style="fill:none;fill-rule:nonzero;stroke:black;stroke-width:0.75px;"/>
    </g>
    <g transform="matrix(-1,0,0,1,707.7,-135.86)">
        <path d="M350.71,234.18L355.49,234.18" style="fill:none;fill-rule:nonzero;stroke:black;stroke-width:0.75px;"/>
    </g>
    <g transform="matrix(-1,0,0,1,707.7,-195.46)">
        <path d="M350.71,263.98L355.49,263.98" style="fill:none;fill-rule:nonzero;stroke:black;stroke-width:0.75px;"/>
    </g>
    <g transform="matrix(1,0,0,1,1.5,-168.96)">
        <rect x="355.49" y="182.69" width="308.88" height="136.08" style="fill:none;stroke:black;stroke-width:0.75px;"/>
    </g>
    <g transform="matrix(1,0,0,1,1.5,-133.3)">
        <path d="M355.49,232.9L664.37,232.9" style="fill:none;fill-rule:nonzero;stroke:rgb(127,201,127);stroke-width:0.75px;"/>
    </g>
    <g transform="matrix(0,-1,-1,0,905.16,734.7)">
        <path d="M584.89,250.73L720.97,250.73" style="fill:none;fill-rule:nonzero;stroke:black;stroke-width:0.41px;stroke-dasharray:1.24,2.06;"/>
    </g>
    <g transform="matrix(1,0,0,1,1.5,167.82)">
        <path d="M28.17,92.68L29.9,99.23L31.62,99.47L33.34,100.77L35.06,100.39L36.79,92.26L38.51,103.46L40.23,104.17L41.96,89.55L43.68,109.21L45.4,105.12L47.12,99.77L48.85,99.16L50.57,111.36L52.29,111.13L54.02,108.02L55.74,108.61L57.46,104.69L59.18,108.88L60.91,102.2L62.63,106.83L64.35,104.39L66.08,104.6L67.8,107.68L69.52,105.29L71.25,106.1L72.97,105.63L74.69,100.01L76.41,96.21L78.14,95.93L79.86,100.55L81.58,98.56L83.31,96.81L85.03,94.13L86.75,94.42L88.47,94.32L90.2,93.43L91.92,91.5L93.64,89.43L95.37,95.68L97.09,93.3L98.81,93.38L100.53,93.91L102.26,94.18L103.98,93.07L105.7,92.87L107.43,92.81L109.15,92.65L110.87,93.23L112.59,93.1L114.32,93.05L116.04,92.78L117.76,91.43L119.49,91.64L121.21,92.31L122.93,92.07L124.65,92.34L126.38,91.69L128.1,89.88L129.82,92.85L131.55,92.53L133.27,94.53L134.99,92.2L136.71,91.44L138.44,94.02L140.16,92.96L141.88,94.16L143.61,94.19L145.33,91.93L147.05,93.37L148.78,93.57L150.5,95.1L152.22,93.76L153.94,91.44L155.67,93.52L157.39,93.33L159.11,94.21L160.84,93.86L162.56,95.26L164.28,92.9L166,94.58L167.73,93.85L169.45,92.92L171.17,92.75L172.9,93.64L174.62,86.55L176.34,95.05L178.06,90.68L179.79,88.3L181.51,94.5L183.23,93.91L184.96,91.46L186.68,88.49L188.4,93.27L190.12,93.02L191.85,91.77L193.57,91.94L195.29,87.44L197.02,88.61L198.74,89.63L200.46,89.51L202.18,87.7L203.91,89.57L205.63,89.28L207.35,90.7L209.08,88.44L210.8,92.98L212.52,89.65L214.25,90.31L215.97,91.85L217.69,92.63L219.41,91.29L221.14,88.23L222.86,93.45L224.58,90.81L226.31,93.06L228.03,93.78L229.75,89.67L231.47,91.67L233.2,93.79L234.92,94.7L236.64,92.7L238.37,94.62L240.09,94.5L241.81,86.49L243.53,94.12L245.26,91.78L246.98,90.7L248.7,90.71L250.43,85.93L252.15,89.88L253.87,90.26L255.59,85.65L257.32,80.31L259.04,84.36L260.76,79.56L262.49,90.8L264.21,83.1L265.93,79.13L267.65,80.25L269.38,68.32L271.1,72.11L272.82,73.46L274.55,54.52L276.27,59.91L277.99,66.95L279.71,68.73L281.44,83.94L283.16,74.44L284.88,67.01L286.61,59.28L288.33,63.88L290.05,65.55L291.78,67.45L293.5,64.45L295.22,64.54L296.94,59.56L298.67,53.32L300.39,63.86L302.11,60.41L303.84,63.59L305.56,64.66L307.28,67.22L309,69.14L310.73,68.04L312.45,69.2L314.17,77.96" style="fill:none;fill-rule:nonzero;stroke:rgb(56,108,176);stroke-width:1.65px;"/>
    </g>
    <g transform="matrix(1,0,0,1,1.5,228.24)">
        <path d="M28.17,68.04L29.9,72.77L35.06,72.77L36.79,73.24L38.51,74.93L40.23,75.02L41.96,75.22L43.68,76.17L45.4,75.28L47.12,77.29L48.85,75.28L50.57,82.49L52.29,75.95L54.02,71.15L55.74,72.74L57.46,71.94L59.18,67.28L60.91,63.46L62.63,65.3L64.35,68.27L66.08,62.87L67.8,60.82L69.52,63.12L71.25,59.01L72.97,58.21L74.69,52.57L76.41,51.3L78.14,51.31L79.86,52.86L81.58,52.82L83.31,52.03L85.03,51.22L86.75,50.97L88.47,51.22L90.2,50.92L91.92,49.49L93.64,40.91L95.37,43.09L97.09,37.91L98.81,38.39L100.53,40.21L102.26,38.48L103.98,37.78L105.7,35.71L107.43,34.65L109.15,36.9L110.87,37.19L112.59,36.66L114.32,36.18L116.04,36.33L117.76,34.47L119.49,34.95L121.21,35.86L122.93,36.66L124.65,36.11L126.38,36.08L128.1,35.82L129.82,36.95L131.55,36.08L133.27,37.04L134.99,35.74L136.71,36.11L138.44,36.88L140.16,36.34L141.88,37.48L143.61,37.36L145.33,35.5L147.05,36.23L148.78,36.52L150.5,39.04L152.22,37.42L153.94,36.77L155.67,36.57L157.39,36.74L159.11,36.79L160.84,36.51L162.56,37.78L164.28,37.47L166,37.07L167.73,38.08L169.45,37.03L171.17,38.13L172.9,38.18L174.62,37.23L176.34,39.31L178.06,38.27L179.79,38.09L181.51,39.56L183.23,41.17L184.96,41.05L186.68,40.46L188.4,42.86L190.12,40.03L191.85,41.21L193.57,43.13L195.29,40.34L197.02,39.95L198.74,38.81L200.46,39.81L202.18,38.3L203.91,43.72L205.63,40.79L207.35,38.32L209.08,39.59L210.8,42.25L212.52,39.69L214.25,40.09L215.97,40.37L217.69,41.41L219.41,38.79L221.14,43.28L222.86,38.79L224.58,40.77L226.31,37.84L228.03,41.13L229.75,42.62L231.47,40.38L233.2,40.91L234.92,40.93L236.64,40.5L238.37,42.6L240.09,42.64L241.81,39.33L243.53,42.88L245.26,42.6L246.98,40.79L248.7,41.79L250.43,40.4L252.15,41.51L253.87,40.21L255.59,38.58L257.32,38.87L259.04,40.01L260.76,38.13L262.49,46.82L264.21,41.08L265.93,39.91L267.65,46.47L269.38,41.64L271.1,46.5L272.82,45.91L274.55,21.77L276.27,39.39L277.99,46.59L279.71,47.06L281.44,73.18L283.16,46.37L284.88,41.88L286.61,35.68L288.33,41.46L290.05,43.92L291.78,45.44L293.5,46.18L295.22,40.42L296.94,36.33L298.67,26.38L300.39,37.55L302.11,30.1L303.84,31.22L305.56,31.49L307.28,33.37L309,41.33L310.73,44.63L312.45,38.27L314.17,35.57" style="fill:none;fill-rule:nonzero;stroke:rgb(253,180,98);stroke-width:1.12px;"/>
    </g>
    <g transform="matrix(1,0,0,1,1.5,112.52)">
        <path d="M28.17,110.42L29.9,122.84L31.62,123.26L33.34,130.31L35.06,130.99L36.79,94.29L38.51,132.43L40.23,129L41.96,83.1L43.68,133.18L45.4,135.12L47.12,114.53L48.85,109.85L50.57,143.23L52.29,145.64L54.02,142.03L55.74,143.24L57.46,134.04L59.18,147.07L60.91,134.7L62.63,145.23L64.35,136.63L66.08,143.49L67.8,147.77L69.52,143.39L71.25,146.64L72.97,145.87L74.69,135.57L76.41,134.54L78.14,134.38L79.86,139.14L81.58,139.16L83.31,135.77L85.03,135.19L86.75,135.48L88.47,135.19L90.2,134.4L91.92,133.74L93.64,135.17L95.37,144.4L97.09,144.33L98.81,144.36L100.53,144.4L102.26,144.81L103.98,144.36L105.7,144.4L107.43,144.82L109.15,144L110.87,144.77L112.59,145.42L114.32,144.99L116.04,144.85L117.76,142.41L119.49,142.29L121.21,143.09L122.93,144.89L124.65,143.51L126.38,143.76L128.1,136.99L129.82,142.37L131.55,145.5L133.27,146.43L134.99,141.49L136.71,139.8L138.44,145.19L140.16,143.65L141.88,146.18L143.61,146.57L145.33,143.3L147.05,145.24L148.78,143.68L150.5,146.15L152.22,145.85L153.94,139.01L155.67,145.21L157.39,142.7L159.11,144.29L160.84,144.9L162.56,144.73L164.28,142.7L166,144.95L167.73,142.71L169.45,140.95L171.17,140.63L172.9,142.23L174.62,130.74L176.34,146.6L178.06,133.36L179.79,131.7L181.51,142.5L183.23,138.89L184.96,133.17L186.68,131.52L188.4,137.91L190.12,139.95L191.85,133.43L193.57,133.13L195.29,130.62L197.02,134.24L198.74,132.15L200.46,133.46L202.18,131.41L203.91,132.42L205.63,135.1L207.35,138.91L209.08,131.99L210.8,138.24L212.52,133.1L214.25,135.16L215.97,139.77L217.69,135.98L219.41,137.39L221.14,131.36L222.86,143.52L224.58,134.73L226.31,143.25L228.03,142.38L229.75,132.14L231.47,137.02L233.2,141.94L234.92,142.69L236.64,134.73L238.37,138.4L240.09,139.59L241.81,127.49L243.53,139.2L245.26,135.42L246.98,134.58L248.7,136.11L250.43,125.09L252.15,134.08L253.87,133.88L255.59,122.72L257.32,115.58L259.04,122.78L260.76,111.52L262.49,124.55L264.21,112.27L265.93,102.02L267.65,108.08L269.38,86.77L271.1,84.94L272.82,83.67L274.55,76.17L276.27,72.21L277.99,80.8L279.71,81.89L281.44,87.59L283.16,87.89L284.88,88.08L286.61,72.79L288.33,86.61L290.05,88.3L295.22,88.3L296.94,87.64L298.67,77.5L300.39,88.3L303.84,88.3L305.56,88.47L307.28,88.47L309,96.27L310.73,88.47L312.45,102.23L314.17,108.83" style="fill:none;fill-rule:nonzero;stroke:rgb(253,180,98);stroke-width:1.12px;"/>
    </g>
    <g transform="matrix(1,0,0,1,1.5,299.04)">
        <path d="M26.45,16.73L284.88,16.73" style="fill:none;fill-rule:nonzero;stroke:black;stroke-width:0.75px;"/>
    </g>
    <g transform="matrix(0,1,1,0,13.61,291.71)">
        <path d="M24.06,14.34L28.84,14.34" style="fill:none;fill-rule:nonzero;stroke:black;stroke-width:0.75px;"/>
    </g>
    <g transform="matrix(0,1,1,0,99.75,205.57)">
        <path d="M110.2,14.34L114.98,14.34" style="fill:none;fill-rule:nonzero;stroke:black;stroke-width:0.75px;"/>
    </g>
    <g transform="matrix(0,1,1,0,185.9,119.42)">
        <path d="M196.35,14.34L201.13,14.34" style="fill:none;fill-rule:nonzero;stroke:black;stroke-width:0.75px;"/>
    </g>
    <g transform="matrix(0,1,1,0,272.04,33.28)">
        <path d="M282.49,14.34L287.27,14.34" style="fill:none;fill-rule:nonzero;stroke:black;stroke-width:0.75px;"/>
    </g>
    <g transform="matrix(0,-1,-1,0,112.645,254.815)">
        <path d="M-35.375,94.415L68.835,94.415" style="fill:none;fill-rule:nonzero;stroke:black;stroke-width:0.75px;"/>
    </g>
    <g transform="matrix(-1,0,0,1,30.18,247.88)">
        <path d="M11.95,42.31L16.73,42.31" style="fill:none;fill-rule:nonzero;stroke:black;stroke-width:0.75px;"/>
    </g>
    <g transform="matrix(-1,0,0,1,30.18,195.78)">
        <path d="M11.95,68.36L16.73,68.36" style="fill:none;fill-rule:nonzero;stroke:black;stroke-width:0.75px;"/>
    </g>
    <g transform="matrix(-1,0,0,1,30.18,143.68)">
        <path d="M11.95,94.41L16.73,94.41" style="fill:none;fill-rule:nonzero;stroke:black;stroke-width:0.75px;"/>
    </g>
    <g transform="matrix(-1,0,0,1,30.18,91.56)">
        <path d="M11.95,120.47L16.73,120.47" style="fill:none;fill-rule:nonzero;stroke:black;stroke-width:0.75px;"/>
    </g>
    <g transform="matrix(-1,0,0,1,30.18,39.46)">
        <path d="M11.95,146.52L16.73,146.52" style="fill:none;fill-rule:nonzero;stroke:black;stroke-width:0.75px;"/>
    </g>
    <g transform="matrix(1,0,0,1,1.5,162.96)">
        <rect x="16.73" y="16.73" width="308.88" height="136.08" style="fill:none;stroke:black;stroke-width:0.75px;"/>
    </g>
    <g transform="matrix(1,0,0,1,1.5,178.08)">
        <path d="M16.73,77.21L325.61,77.21" style="fill:none;fill-rule:nonzero;stroke:rgb(127,201,127);stroke-width:0.75px;"/>
    </g>
    <g transform="matrix(0,-1,-1,0,400.44,561.9)">
        <path d="M246.13,84.77L382.21,84.77" style="fill:none;fill-rule:nonzero;stroke:black;stroke-width:0.41px;stroke-dasharray:1.24,2.06;"/>
    </g>
    <g transform="matrix(1,0,0,1,1.5,165.37)">
        <path d="M366.93,91.93L368.66,97.93L370.38,96.8L372.1,103.06L373.82,100.77L375.55,95.55L377.27,101.58L378.99,102.86L380.72,86.09L382.44,100.87L384.16,98.52L385.88,97.32L387.61,98.52L389.33,106.96L391.05,109.41L392.78,110.18L394.5,109.27L396.22,109.25L397.94,112.84L399.67,112.24L401.39,111.01L403.11,111.01L404.84,110.07L406.56,119.91L408.28,113.24L410.01,119.35L411.73,116.61L413.45,116.98L415.17,111.3L416.9,108.87L418.62,107.56L420.34,105.47L422.07,109.02L423.79,112.12L425.51,108.9L427.23,112.13L428.96,108.59L430.68,110.09L432.4,99.46L434.13,101.52L435.85,88.11L437.57,87.58L439.29,91.13L441.02,87.23L442.74,88.26L444.46,91.49L446.19,88.4L447.91,79.61L449.63,87.12L451.35,81.78L453.08,80.59L454.8,76.17L456.52,73.47L458.25,80.48L459.97,78.01L461.69,77.34L463.41,71.11L465.14,72.3L466.86,69.73L468.58,74.28L470.31,73.77L472.03,71.66L473.75,70.3L475.47,75.18L477.2,69.96L478.92,71.82L480.64,69.38L482.37,69.83L484.09,72.22L485.81,83.31L487.54,72.04L489.26,74.12L490.98,67.66L492.7,65.56L494.43,81.56L496.15,74.75L497.87,75.62L499.6,74.95L501.32,76.59L503.04,72.43L504.76,69.13L506.49,72.96L508.21,69.32L509.93,76.07L511.66,58.66L513.38,63.46L515.1,62.61L516.82,64.27L518.55,65.43L520.27,55.33L521.99,53.8L523.72,57.43L525.44,54.32L527.16,66.7L528.88,62.86L530.61,59.69L532.33,51.02L534.05,60.07L535.78,65.06L537.5,56.25L539.22,59.45L540.94,55.74L542.67,67.16L544.39,63.57L546.11,62.29L547.84,57.85L549.56,64.37L551.28,61.48L553.01,62.73L554.73,61.25L556.45,62.48L558.17,65.82L559.9,69.73L561.62,63.9L563.34,64.3L565.07,62.23L566.79,57.86L568.51,63.68L570.23,59.18L571.96,59.24L573.68,63.73L575.4,51.82L577.13,63.5L578.85,63.42L580.57,60.88L582.29,56.17L584.02,65.84L585.74,61.91L587.46,61.75L589.19,59.09L590.91,59.75L592.63,63.98L594.35,57.05L596.08,58.8L597.8,62.11L599.52,53.93L601.25,53.14L602.97,54.66L604.69,56L606.41,55.33L608.14,58.93L609.86,56.55L611.58,47.22L613.31,52.81L615.03,52.07L616.75,54.96L618.47,66.27L620.2,53.76L621.92,59.79L623.64,70.88L625.37,65.7L627.09,70.98L628.81,74.21L630.54,68.09L632.26,63.92L633.98,67.85L635.7,55.79L637.43,49.62L639.15,58.41L640.87,60.26L642.6,57.61L644.32,55.84L646.04,58L647.76,59.58L649.49,52.92L651.21,60.99L652.93,89.99" style="fill:none;fill-rule:nonzero;stroke:rgb(56,108,176);stroke-width:1.65px;"/>
    </g>
    <g transform="matrix(1,0,0,1,1.5,218.7)">
        <path d="M366.93,78.51L368.66,77.69L370.38,77.69L372.1,81.33L373.82,82.34L375.55,81.47L377.27,81.17L378.99,81.22L380.72,76.72L382.44,81.11L384.16,81.06L385.88,80.93L387.61,80.79L389.33,80.05L391.05,81.19L392.78,83.21L394.5,83.5L396.22,83.89L397.94,83.9L399.67,84.75L401.39,83.91L403.11,83.9L404.84,86.69L406.56,87.05L408.28,87.1L410.01,88.52L411.73,92.03L413.45,88.29L415.17,85.95L416.9,85.05L418.62,85.23L420.34,82.66L422.07,82.57L423.79,85.15L425.51,85.37L427.23,85.17L428.96,84.93L430.68,85L432.4,81L434.13,80.79L435.85,70.03L437.57,69.14L439.29,70.53L441.02,67.78L442.74,68.83L444.46,67.02L446.19,64.79L447.91,62.21L449.63,65.21L451.35,53.71L453.08,47.39L454.8,52.99L456.52,50.98L458.25,58.27L459.97,53.48L461.69,49.08L463.41,50.57L465.14,45.72L466.86,50.34L468.58,53.63L470.31,39.21L472.03,41.83L473.75,43.66L475.47,55.09L477.2,38.06L478.92,41.03L480.64,37.87L482.37,43.4L484.09,39.13L485.81,53.43L487.54,40.22L489.26,44.01L490.98,37.28L492.7,37.37L494.43,51.27L496.15,42.96L497.87,41.59L499.6,45.44L501.32,44.92L503.04,39.8L504.76,44.88L506.49,44.91L508.21,42.85L509.93,42.17L511.66,35.71L513.38,39.87L515.1,33.42L516.82,44L518.55,37.78L520.27,28L521.99,27.73L523.72,34.58L525.44,29.13L527.16,43.85L528.88,39.24L530.61,38.84L532.33,26.87L534.05,38.8L535.78,40.02L537.5,32.19L539.22,34.36L540.94,37.05L542.67,41.55L544.39,40.45L546.11,34.36L547.84,33.5L549.56,45.06L551.28,50.05L553.01,36.3L554.73,36.98L556.45,41.87L558.17,42.26L559.9,45.4L561.62,34.38L563.34,38.54L565.07,42.01L566.79,35.47L568.51,42.65L570.23,31.33L571.96,31.39L573.68,33.86L575.4,25.34L577.13,36.79L578.85,37.69L580.57,33.41L582.29,28.7L584.02,33.97L585.74,34.12L587.46,29.27L589.19,33.57L590.91,31.26L592.63,36.69L594.35,28.66L596.08,33L597.8,39.36L599.52,33.52L601.25,28.7L602.97,34.73L604.69,35.75L606.41,37.3L608.14,38.15L609.86,37.52L611.58,26.24L613.31,36.32L615.03,36.29L616.75,38.44L618.47,52.5L620.2,46.37L621.92,50.19L623.64,50.21L625.37,47.22L627.09,45.61L628.81,58.69L630.54,50.06L632.26,50.42L633.98,47.26L635.7,31.07L637.43,25L639.15,42.62L640.87,42.73L642.6,42.45L644.32,42.44L646.04,32.73L647.76,43.48L649.49,21.77L651.21,42.45L652.93,75.12" style="fill:none;fill-rule:nonzero;stroke:rgb(253,180,98);stroke-width:1.12px;"/>
    </g>
    <g transform="matrix(1,0,0,1,1.5,117.09)">
        <path d="M366.93,99.05L368.66,112.44L370.38,107.8L372.1,122.08L373.82,116.74L375.55,105.84L377.27,123.22L378.99,121.66L380.72,87.44L382.44,115.9L384.16,109.44L385.88,102.96L387.61,102.21L389.33,133.36L391.05,136.66L392.78,135.67L394.5,134.97L396.22,136.7L397.94,136.83L399.67,137.4L401.39,136.59L403.11,137.4L404.84,135.32L406.56,147.33L408.28,137.02L410.01,147.77L411.73,139.8L413.45,131.04L415.17,128.06L416.9,122.27L418.62,124.09L420.34,122.92L422.07,124.22L423.79,131.04L425.51,130.65L427.23,130.03L428.96,127.39L430.68,124.07L432.4,114.29L434.13,120.46L435.85,103.11L437.57,103.36L439.29,103.37L441.02,111.57L442.74,107.81L444.46,108.07L446.19,108.2L447.91,96.98L449.63,113.31L451.35,106.47L453.08,107.28L454.8,98.38L456.52,98.46L458.25,101.13L459.97,98.61L461.69,96.76L463.41,85.91L465.14,97.84L466.86,94.35L468.58,94.93L470.31,104.94L472.03,95.85L473.75,97.88L475.47,96.96L477.2,97.72L478.92,99.6L480.64,98.39L482.37,93.58L484.09,102.31L485.81,107.13L487.54,96.81L489.26,100.92L490.98,96.83L492.7,94.58L494.43,105.8L496.15,101.3L497.87,103.12L499.6,101.74L501.32,103.42L503.04,101.51L504.76,93.84L506.49,101.74L508.21,95.67L509.93,102.4L511.66,78.68L513.38,79.16L515.1,88.58L516.82,88.81L518.55,86.72L520.27,77.32L521.99,74.7L523.72,69.38L525.44,68.84L527.16,86.22L528.88,76.09L530.61,74.9L532.33,69.08L534.05,71.19L535.78,84.87L537.5,69.1L539.22,79.35L540.94,72.87L542.67,94.62L544.39,87.17L546.11,89.11L547.84,73.97L549.56,87.21L551.28,78.71L553.01,86.93L554.73,85.3L556.45,88.62L558.17,91.41L559.9,94.39L561.62,92.47L563.34,88.47L565.07,86.26L566.79,81.92L568.51,80.58L570.23,83.38L571.96,86.89L573.68,87.92L575.4,77.82L577.13,89.12L578.85,90.01L580.57,89.12L582.29,78.69L584.02,95.89L585.74,88.42L587.46,92.14L589.19,84.57L590.91,84.99L592.63,92.61L594.35,84.57L596.08,84.78L597.8,80.92L599.52,76.94L601.25,69.35L602.97,70.06L604.69,77.93L606.41,69.07L608.14,76.32L609.86,72.99L611.58,68.2L613.31,67.64L615.03,68.84L616.75,73.23L618.47,77.72L620.2,68.2L621.92,68.49L623.64,85.72L625.37,85.82L627.09,88.35L628.81,88.21L630.54,88.17L632.26,87.79L633.98,88.17L635.7,84.33L637.43,73.13L639.15,77.51L640.87,79.85L642.6,74.17L644.32,74.55L646.04,79.15L647.76,79.15L649.49,72.85L651.21,77.28L652.93,98.83" style="fill:none;fill-rule:nonzero;stroke:rgb(253,180,98);stroke-width:1.12px;"/>
    </g>
    <g transform="matrix(1,0,0,1,1.5,299.04)">
        <path d="M365.21,16.73L623.64,16.73" style="fill:none;fill-rule:nonzero;stroke:black;stroke-width:0.75px;"/>
    </g>
    <g transform="matrix(0,1,1,0,352.37,-47.05)">
        <path d="M362.82,14.34L367.6,14.34" style="fill:none;fill-rule:nonzero;stroke:black;stroke-width:0.75px;"/>
    </g>
    <g transform="matrix(0,1,1,0,438.51,-133.19)">
        <path d="M448.96,14.34L453.74,14.34" style="fill:none;fill-rule:nonzero;stroke:black;stroke-width:0.75px;"/>
    </g>
    <g transform="matrix(0,1,1,0,524.66,-219.34)">
        <path d="M535.11,14.34L539.89,14.34" style="fill:none;fill-rule:nonzero;stroke:black;stroke-width:0.75px;"/>
    </g>
    <g transform="matrix(0,1,1,0,610.8,-305.48)">
        <path d="M621.25,14.34L626.03,14.34" style="fill:none;fill-rule:nonzero;stroke:black;stroke-width:0.75px;"/>
    </g>
    <g transform="matrix(0,-1,-1,0,431.715,613.265)">
        <path d="M307.955,74.725L403.025,74.725" style="fill:none;fill-rule:nonzero;stroke:black;stroke-width:0.75px;"/>
    </g>
    <g transform="matrix(-1,0,0,1,707.7,278.12)">
        <path d="M350.71,27.19L355.49,27.19" style="fill:none;fill-rule:nonzero;stroke:black;stroke-width:0.75px;"/>
    </g>
    <g transform="matrix(-1,0,0,1,707.7,214.74)">
        <path d="M350.71,58.88L355.49,58.88" style="fill:none;fill-rule:nonzero;stroke:black;stroke-width:0.75px;"/>
    </g>
    <g transform="matrix(-1,0,0,1,707.7,151.36)">
        <path d="M350.71,90.57L355.49,90.57" style="fill:none;fill-rule:nonzero;stroke:black;stroke-width:0.75px;"/>
    </g>
    <g transform="matrix(-1,0,0,1,707.7,87.98)">
        <path d="M350.71,122.26L355.49,122.26" style="fill:none;fill-rule:nonzero;stroke:black;stroke-width:0.75px;"/>
    </g>
    <g transform="matrix(1,0,0,1,1.5,162.96)">
        <rect x="355.49" y="16.73" width="308.88" height="136.08" style="fill:none;stroke:black;stroke-width:0.75px;"/>
    </g>
    <g transform="matrix(1,0,0,1,1.5,164.1)">
        <path d="M355.49,84.2L664.37,84.2" style="fill:none;fill-rule:nonzero;stroke:rgb(127,201,127);stroke-width:0.75px;"/>
    </g>
    <g transform="matrix(0,-1,-1,0,739.2,900.66)">
        <path d="M584.89,84.77L720.97,84.77" style="fill:none;fill-rule:nonzero;stroke:black;stroke-width:0.41px;stroke-dasharray:1.24,2.06;"/>
    </g>
    <g transform="matrix(1,0,0,1,1.5,1.5)">
        <text x="23.67px" y="163.25px" style="font-family:'Helvetica';font-size:10px;">0</text>
    </g>
    <g transform="matrix(1,0,0,1,1.5,1.5)">
        <text x="107.03px" y="163.25px" style="font-family:'Helvetica';font-size:10px;">50</text>
    </g>
    <g transform="matrix(1,0,0,1,1.5,1.5)">
        <text x="190.4px" y="163.25px" style="font-family:'Helvetica';font-size:10px;">100</text>
    </g>
    <g transform="matrix(1,0,0,1,1.5,1.5)">
        <text x="276.54px" y="163.25px" style="font-family:'Helvetica';font-size:10px;">150</text>
    </g>
    <g transform="matrix(0,-1,1,0,1.5,1.5)">
        <text x="-162.03px" y="8.96px" style="font-family:'Helvetica';font-size:10px;">−</text>
        <text x="-158.7px" y="8.96px" style="font-family:'Helvetica';font-size:10px;">2e</text>
        <text x="-147.58px" y="8.96px" style="font-family:'Helvetica';font-size:10px;">−</text>
        <text x="-144.25px" y="8.96px" style="font-family:'Helvetica';font-size:10px;">04</text>
    </g>
    <g transform="matrix(0,-1,1,0,1.5,1.5)">
        <text x="-111.08px" y="8.96px" style="font-family:'Helvetica';font-size:10px;">0e+00</text>
    </g>
    <g transform="matrix(0,-1,1,0,1.5,1.5)">
        <text x="-63.05px" y="8.96px" style="font-family:'Helvetica';font-size:10px;">2e</text>
        <text x="-51.93px" y="8.96px" style="font-family:'Helvetica';font-size:10px;">−</text>
        <text x="-48.6px" y="8.96px" style="font-family:'Helvetica';font-size:10px;">04</text>
    </g>
    <g transform="matrix(1,0,0,1,-70.2845,-0.750371)">
        <text x="128.074px" y="115.588px" style="font-family:'Helvetica';font-size:5px;">Posterior Mean</text>
    </g>
    <g transform="matrix(1,0,0,1,-70.8673,8.06366)">
        <text x="128.074px" y="115.588px" style="font-family:'Helvetica';font-size:5px;">16 &amp; 84% quantiles</text>
    </g>
    <g transform="matrix(1,0,0,1,-70.8673,17.2026)">
        <text x="128.074px" y="115.588px" style="font-family:'Helvetica';font-size:5px;">OLS</text>
    </g>
    <g transform="matrix(1,0,0,1,-70.8673,26.7808)">
        <text x="128.074px" y="115.588px" style="font-family:'Helvetica';font-size:5px;">OOS Start</text>
    </g>
    <g transform="matrix(1,0,0,1,1.5,1.5)">
        <text x="362.43px" y="163.25px" style="font-family:'Helvetica';font-size:10px;">0</text>
    </g>
    <g transform="matrix(1,0,0,1,1.5,1.5)">
        <text x="445.79px" y="163.25px" style="font-family:'Helvetica';font-size:10px;">50</text>
    </g>
    <g transform="matrix(1,0,0,1,1.5,1.5)">
        <text x="529.16px" y="163.25px" style="font-family:'Helvetica';font-size:10px;">100</text>
    </g>
    <g transform="matrix(1,0,0,1,1.5,1.5)">
        <text x="615.3px" y="163.25px" style="font-family:'Helvetica';font-size:10px;">150</text>
    </g>
    <g transform="matrix(0,-1,1,0,1.5,1.5)">
        <text x="-143.58px" y="347.72px" style="font-family:'Helvetica';font-size:10px;">−</text>
        <text x="-140.25px" y="347.72px" style="font-family:'Helvetica';font-size:10px;">1e</text>
        <text x="-129.13px" y="347.72px" style="font-family:'Helvetica';font-size:10px;">−</text>
        <text x="-125.8px" y="347.72px" style="font-family:'Helvetica';font-size:10px;">04</text>
    </g>
    <g transform="matrix(0,-1,1,0,1.5,1.5)">
        <text x="-81.06px" y="347.72px" style="font-family:'Helvetica';font-size:10px;">1e</text>
        <text x="-69.94px" y="347.72px" style="font-family:'Helvetica';font-size:10px;">−</text>
        <text x="-66.61px" y="347.72px" style="font-family:'Helvetica';font-size:10px;">04</text>
    </g>
    <g transform="matrix(1,0,0,1,1.5,1.5)">
        <text x="23.67px" y="329.21px" style="font-family:'Helvetica';font-size:10px;">0</text>
    </g>
    <g transform="matrix(1,0,0,1,1.5,1.5)">
        <text x="107.03px" y="329.21px" style="font-family:'Helvetica';font-size:10px;">50</text>
    </g>
    <g transform="matrix(1,0,0,1,1.5,1.5)">
        <text x="190.4px" y="329.21px" style="font-family:'Helvetica';font-size:10px;">100</text>
    </g>
    <g transform="matrix(1,0,0,1,1.5,1.5)">
        <text x="276.54px" y="329.21px" style="font-family:'Helvetica';font-size:10px;">150</text>
    </g>
    <g transform="matrix(0,-1,1,0,1.5,1.5)">
        <text x="-305.65px" y="8.96px" style="font-family:'Helvetica';font-size:10px;">−</text>
        <text x="-302.32px" y="8.96px" style="font-family:'Helvetica';font-size:10px;">1e</text>
        <text x="-291.2px" y="8.96px" style="font-family:'Helvetica';font-size:10px;">−</text>
        <text x="-287.87px" y="8.96px" style="font-family:'Helvetica';font-size:10px;">04</text>
    </g>
    <g transform="matrix(0,-1,1,0,1.5,1.5)">
        <text x="-250.63px" y="8.96px" style="font-family:'Helvetica';font-size:10px;">1e</text>
        <text x="-239.51px" y="8.96px" style="font-family:'Helvetica';font-size:10px;">−</text>
        <text x="-236.18px" y="8.96px" style="font-family:'Helvetica';font-size:10px;">04</text>
    </g>
    <g transform="matrix(0,-1,1,0,1.5,1.5)">
        <text x="-198.52px" y="8.96px" style="font-family:'Helvetica';font-size:10px;">3e</text>
        <text x="-187.4px" y="8.96px" style="font-family:'Helvetica';font-size:10px;">−</text>
        <text x="-184.07px" y="8.96px" style="font-family:'Helvetica';font-size:10px;">04</text>
    </g>
    <g transform="matrix(1,0,0,1,1.5,1.5)">
        <text x="362.43px" y="329.21px" style="font-family:'Helvetica';font-size:10px;">0</text>
    </g>
    <g transform="matrix(1,0,0,1,1.5,1.5)">
        <text x="445.79px" y="329.21px" style="font-family:'Helvetica';font-size:10px;">50</text>
    </g>
    <g transform="matrix(1,0,0,1,1.5,1.5)">
        <text x="529.16px" y="329.21px" style="font-family:'Helvetica';font-size:10px;">100</text>
    </g>
    <g transform="matrix(1,0,0,1,1.5,1.5)">
        <text x="615.3px" y="329.21px" style="font-family:'Helvetica';font-size:10px;">150</text>
    </g>
    <g transform="matrix(0,-1,1,0,1.5,1.5)">
        <text x="-313.68px" y="347.72px" style="font-family:'Helvetica';font-size:10px;">−</text>
        <text x="-310.35px" y="347.72px" style="font-family:'Helvetica';font-size:10px;">0.4</text>
        <text x="-281.99px" y="347.72px" style="font-family:'Helvetica';font-size:10px;">−</text>
        <text x="-278.66px" y="347.72px" style="font-family:'Helvetica';font-size:10px;">0.2 <tspan x="-247.38px " y="347.72px ">0</tspan>.0 <tspan x="-215.69px " y="347.72px ">0</tspan>.2</text>
    </g>
</svg>
