<?xml version="1.0" encoding="UTF-8" standalone="no"?>
<!DOCTYPE svg PUBLIC "-//W3C//DTD SVG 1.1//EN" "http://www.w3.org/Graphics/SVG/1.1/DTD/svg11.dtd">
<svg width="100%" height="100%" viewBox="0 0 80 25" version="1.1" xmlns="http://www.w3.org/2000/svg" xmlns:xlink="http://www.w3.org/1999/xlink" xml:space="preserve" xmlns:serif="http://www.serif.com/" style="fill-rule:evenodd;clip-rule:evenodd;stroke-linejoin:round;stroke-miterlimit:2;">
    <g transform="matrix(1,0,0,1,4,2.5)">
        <g transform="matrix(1.01283,0,0,0.733846,-4.05134,3.48847)">
            <path d="M52.379,-1.626C52.379,-3.352 51.364,-4.754 50.113,-4.754L6.266,-4.754C5.015,-4.754 4,-3.352 4,-1.626L4,19.372C4,21.099 5.015,22.5 6.266,22.5L50.113,22.5C51.364,22.5 52.379,21.099 52.379,19.372L52.379,-1.626Z" style="fill:rgb(85,85,85);"/>
        </g>
        <g transform="matrix(1,0,0,1.03898,-4,-3.37714)">
            <rect x="8.635" y="3.25" width="44.365" height="19.25" style="fill:rgb(85,85,85);"/>
        </g>
        <g transform="matrix(1,0,0,1,-4,-2.5)">
            <path d="M76,4.247C76,3.283 75.217,2.5 74.253,2.5L56.756,2.5C55.792,2.5 55.009,3.283 55.009,4.247L55.009,20.753C55.009,21.717 55.792,22.5 56.756,22.5L74.253,22.5C75.217,22.5 76,21.717 76,20.753L76,4.247Z" style="fill:rgb(69,128,77);"/>
        </g>
        <g transform="matrix(1,0,0,1.04714,-4,-3.56069)">
            <rect x="53" y="3.4" width="8.335" height="19.1" style="fill:rgb(69,128,77);"/>
        </g>
    </g>
    <g transform="matrix(1,0,0,1,4,2.5)">
        <g transform="matrix(0.1,0,0,0.1,25.7412,13.9164)">
            <text x="-191.345px" y="0px" style="font-family:'Verdana', sans-serif;font-size:110px;fill:rgb(1,1,1);fill-opacity:0.3;">p<tspan x="-123.079px -57.981px " y="0px 0px ">yt</tspan>hon</text>
        </g>
        <g transform="matrix(0.1,0,0,0.1,25.7412,12.9164)">
            <text x="-191.345px" y="0px" style="font-family:'Verdana', sans-serif;font-size:110px;fill:white;">p<tspan x="-123.079px -57.981px " y="0px 0px ">yt</tspan>hon</text>
        </g>
        <g transform="matrix(0.1,0,0,0.1,59.7412,13.9164)">
            <text x="-67.515px" y="0px" style="font-family:'Verdana', sans-serif;font-size:110px;fill:rgb(1,1,1);fill-opacity:0.3;">v3</text>
        </g>
        <g transform="matrix(0.1,0,0,0.1,59.7412,12.9164)">
            <text x="-67.515px" y="0px" style="font-family:'Verdana', sans-serif;font-size:110px;fill:white;">v3</text>
        </g>
    </g>
</svg>
