<?xml version="1.0" encoding="UTF-8" standalone="no"?>
<!DOCTYPE svg PUBLIC "-//W3C//DTD SVG 1.1//EN" "http://www.w3.org/Graphics/SVG/1.1/DTD/svg11.dtd">
<svg width="100%" height="100%" viewBox="0 0 61 21" version="1.1" xmlns="http://www.w3.org/2000/svg" xmlns:xlink="http://www.w3.org/1999/xlink" xml:space="preserve" xmlns:serif="http://www.serif.com/" style="fill-rule:evenodd;clip-rule:evenodd;stroke-linejoin:round;stroke-miterlimit:2;">
    <g transform="matrix(0.398742,0,0,0.733846,-1.27768,3.73847)">
        <path d="M52.379,-1.737C52.379,-3.402 49.891,-4.754 46.827,-4.754L9.552,-4.754C6.488,-4.754 4,-3.402 4,-1.737L4,19.483C4,21.148 6.488,22.5 9.552,22.5L46.827,22.5C49.891,22.5 52.379,21.148 52.379,19.483L52.379,-1.737Z" style="fill:rgb(85,85,85);"/>
    </g>
    <g transform="matrix(1,0,0,0.847352,-53.3919,-6.10514)">
        <rect x="59.467" y="7.5" width="14.271" height="23.603" style="fill:rgb(85,85,85);"/>
    </g>
    <g transform="matrix(1.86108,0,0,1,-80.7594,-2.25)">
        <path d="M76,4.247C76,3.283 75.579,2.5 75.061,2.5L55.948,2.5C55.43,2.5 55.009,3.283 55.009,4.247L55.009,20.753C55.009,21.717 55.43,22.5 55.948,22.5L75.061,22.5C75.579,22.5 76,21.717 76,20.753L76,4.247Z" style="fill:rgb(69,128,77);"/>
    </g>
    <g transform="matrix(1,0,0,1.04714,-33.3919,-3.31069)">
        <rect x="53" y="3.4" width="8.335" height="19.1" style="fill:rgb(69,128,77);"/>
    </g>
    <g transform="matrix(0.1,0,0,0.1,9.40408,14.7488)">
        <text x="-38.242px" y="0px" style="font-family:'Verdana', sans-serif;font-size:110px;fill:rgb(1,1,1);fill-opacity:0.3;">R</text>
    </g>
    <g transform="matrix(0.1,0,0,0.1,9.40408,13.7488)">
        <text x="-38.242px" y="0px" style="font-family:'Verdana', sans-serif;font-size:110px;fill:white;">R</text>
    </g>
    <g transform="matrix(0.1,0,0,0.1,40.2367,14.7461)">
        <text x="-177.461px" y="0px" style="font-family:'Verdana', sans-serif;font-size:110px;fill:rgb(1,1,1);fill-opacity:0.3;">v4.0.5</text>
    </g>
    <g transform="matrix(0.1,0,0,0.1,40.2367,13.7461)">
        <text x="-177.461px" y="0px" style="font-family:'Verdana', sans-serif;font-size:110px;fill:white;">v4.0.5</text>
    </g>
</svg>
